<svg width="338" height="84" viewBox="0 0 338 84" fill="none" xmlns="http://www.w3.org/2000/svg">
<path d="M309.203 23.4995L309.703 23.4995L309.703 22.4995L309.203 22.4995L309.203 23.4995ZM29.9375 23.4995L309.203 23.4995L309.203 22.4995L29.9375 22.4995L29.9375 23.4995Z" fill="#D3F3FF" fill-opacity="0.9"/>
<circle cx="116.584" cy="21.9253" r="21" fill="#DDF6FF" fill-opacity="0.9"/>
<path d="M108.569 67.4403V77.9253H107.519V73.0203H101.834V77.9253H100.784V67.4403H101.834V72.1503H107.519V67.4403H108.569ZM118.375 73.4103C118.375 73.7703 118.365 74.0453 118.345 74.2353H111.55C111.58 74.8553 111.73 75.3853 112 75.8253C112.27 76.2653 112.625 76.6003 113.065 76.8303C113.505 77.0503 113.985 77.1603 114.505 77.1603C115.185 77.1603 115.755 76.9953 116.215 76.6653C116.685 76.3353 116.995 75.8903 117.145 75.3303H118.255C118.055 76.1303 117.625 76.7853 116.965 77.2953C116.315 77.7953 115.495 78.0453 114.505 78.0453C113.735 78.0453 113.045 77.8753 112.435 77.5353C111.825 77.1853 111.345 76.6953 110.995 76.0653C110.655 75.4253 110.485 74.6803 110.485 73.8303C110.485 72.9803 110.655 72.2353 110.995 71.5953C111.335 70.9553 111.81 70.4653 112.42 70.1253C113.03 69.7853 113.725 69.6153 114.505 69.6153C115.285 69.6153 115.965 69.7853 116.545 70.1253C117.135 70.4653 117.585 70.9253 117.895 71.5053C118.215 72.0753 118.375 72.7103 118.375 73.4103ZM117.31 73.3803C117.32 72.7703 117.195 72.2503 116.935 71.8203C116.685 71.3903 116.34 71.0653 115.9 70.8453C115.46 70.6253 114.98 70.5153 114.46 70.5153C113.68 70.5153 113.015 70.7653 112.465 71.2653C111.915 71.7653 111.61 72.4703 111.55 73.3803H117.31ZM121.346 66.8253V77.9253H120.296V66.8253H121.346ZM124.758 71.5353C125.018 70.9853 125.428 70.5303 125.988 70.1703C126.558 69.8003 127.233 69.6153 128.013 69.6153C128.753 69.6153 129.418 69.7903 130.008 70.1403C130.608 70.4803 131.073 70.9703 131.403 71.6103C131.743 72.2403 131.913 72.9753 131.913 73.8153C131.913 74.6553 131.743 75.3953 131.403 76.0353C131.073 76.6753 130.608 77.1703 130.008 77.5203C129.418 77.8703 128.753 78.0453 128.013 78.0453C127.243 78.0453 126.573 77.8653 126.003 77.5053C125.433 77.1353 125.018 76.6753 124.758 76.1253V81.7953H123.723V69.7353H124.758V71.5353ZM130.848 73.8153C130.848 73.1353 130.713 72.5503 130.443 72.0603C130.183 71.5603 129.823 71.1803 129.363 70.9203C128.903 70.6603 128.383 70.5303 127.803 70.5303C127.243 70.5303 126.728 70.6653 126.258 70.9353C125.798 71.2053 125.433 71.5903 125.163 72.0903C124.893 72.5903 124.758 73.1703 124.758 73.8303C124.758 74.4903 124.893 75.0703 125.163 75.5703C125.433 76.0703 125.798 76.4553 126.258 76.7253C126.728 76.9953 127.243 77.1303 127.803 77.1303C128.383 77.1303 128.903 77.0003 129.363 76.7403C129.823 76.4703 130.183 76.0853 130.443 75.5853C130.713 75.0753 130.848 74.4853 130.848 73.8153Z" fill="#B3B3B3"/>
<circle cx="208.289" cy="21.9253" r="21" fill="#DDF6FF"/>
<path d="M182.694 70.4553C182.694 71.3553 182.399 72.0803 181.809 72.6303C181.219 73.1803 180.334 73.4553 179.154 73.4553H177.039V77.9253H175.989V67.4403H179.154C180.324 67.4403 181.204 67.7153 181.794 68.2653C182.394 68.8153 182.694 69.5453 182.694 70.4553ZM179.154 72.5553C180.794 72.5553 181.614 71.8553 181.614 70.4553C181.614 69.7553 181.419 69.2253 181.029 68.8653C180.639 68.5053 180.014 68.3253 179.154 68.3253H177.039V72.5553H179.154ZM183.976 73.8153C183.976 72.9753 184.141 72.2403 184.471 71.6103C184.811 70.9703 185.276 70.4803 185.866 70.1403C186.466 69.7903 187.141 69.6153 187.891 69.6153C188.671 69.6153 189.341 69.7953 189.901 70.1553C190.471 70.5153 190.881 70.9753 191.131 71.5353V69.7353H192.181V77.9253H191.131V76.1103C190.871 76.6703 190.456 77.1353 189.886 77.5053C189.326 77.8653 188.656 78.0453 187.876 78.0453C187.136 78.0453 186.466 77.8703 185.866 77.5203C185.276 77.1703 184.811 76.6753 184.471 76.0353C184.141 75.3953 183.976 74.6553 183.976 73.8153ZM191.131 73.8303C191.131 73.1703 190.996 72.5903 190.726 72.0903C190.456 71.5903 190.086 71.2053 189.616 70.9353C189.156 70.6653 188.646 70.5303 188.086 70.5303C187.506 70.5303 186.986 70.6603 186.526 70.9203C186.066 71.1803 185.701 71.5603 185.431 72.0603C185.171 72.5503 185.041 73.1353 185.041 73.8153C185.041 74.4853 185.171 75.0753 185.431 75.5853C185.701 76.0853 186.066 76.4703 186.526 76.7403C186.986 77.0003 187.506 77.1303 188.086 77.1303C188.646 77.1303 189.156 76.9953 189.616 76.7253C190.086 76.4553 190.456 76.0703 190.726 75.5703C190.996 75.0703 191.131 74.4903 191.131 73.8303ZM201.328 69.7353L196.468 81.7803H195.373L196.963 77.8803L193.603 69.7353H194.758L197.548 76.7253L200.248 69.7353H201.328ZM212.502 69.5853C213.462 69.5853 214.242 69.8903 214.842 70.5003C215.452 71.1003 215.757 71.9753 215.757 73.1253V77.9253H214.722V73.2453C214.722 72.3553 214.507 71.6753 214.077 71.2053C213.647 70.7353 213.062 70.5003 212.322 70.5003C211.552 70.5003 210.937 70.7553 210.477 71.2653C210.017 71.7753 209.787 72.5153 209.787 73.4853V77.9253H208.752V73.2453C208.752 72.3553 208.537 71.6753 208.107 71.2053C207.677 70.7353 207.087 70.5003 206.337 70.5003C205.567 70.5003 204.952 70.7553 204.492 71.2653C204.032 71.7753 203.802 72.5153 203.802 73.4853V77.9253H202.752V69.7353H203.802V71.1453C204.062 70.6353 204.432 70.2503 204.912 69.9903C205.392 69.7203 205.927 69.5853 206.517 69.5853C207.227 69.5853 207.847 69.7553 208.377 70.0953C208.917 70.4353 209.307 70.9353 209.547 71.5953C209.767 70.9453 210.142 70.4503 210.672 70.1103C211.212 69.7603 211.822 69.5853 212.502 69.5853ZM225.499 73.4103C225.499 73.7703 225.489 74.0453 225.469 74.2353H218.674C218.704 74.8553 218.854 75.3853 219.124 75.8253C219.394 76.2653 219.749 76.6003 220.189 76.8303C220.629 77.0503 221.109 77.1603 221.629 77.1603C222.309 77.1603 222.879 76.9953 223.339 76.6653C223.809 76.3353 224.119 75.8903 224.269 75.3303H225.379C225.179 76.1303 224.749 76.7853 224.089 77.2953C223.439 77.7953 222.619 78.0453 221.629 78.0453C220.859 78.0453 220.169 77.8753 219.559 77.5353C218.949 77.1853 218.469 76.6953 218.119 76.0653C217.779 75.4253 217.609 74.6803 217.609 73.8303C217.609 72.9803 217.779 72.2353 218.119 71.5953C218.459 70.9553 218.934 70.4653 219.544 70.1253C220.154 69.7853 220.849 69.6153 221.629 69.6153C222.409 69.6153 223.089 69.7853 223.669 70.1253C224.259 70.4653 224.709 70.9253 225.019 71.5053C225.339 72.0753 225.499 72.7103 225.499 73.4103ZM224.434 73.3803C224.444 72.7703 224.319 72.2503 224.059 71.8203C223.809 71.3903 223.464 71.0653 223.024 70.8453C222.584 70.6253 222.104 70.5153 221.584 70.5153C220.804 70.5153 220.139 70.7653 219.589 71.2653C219.039 71.7653 218.734 72.4703 218.674 73.3803H224.434ZM231.26 69.5853C232.24 69.5853 233.04 69.8903 233.66 70.5003C234.28 71.1003 234.59 71.9753 234.59 73.1253V77.9253H233.555V73.2453C233.555 72.3553 233.33 71.6753 232.88 71.2053C232.44 70.7353 231.835 70.5003 231.065 70.5003C230.275 70.5003 229.645 70.7503 229.175 71.2503C228.705 71.7503 228.47 72.4853 228.47 73.4553V77.9253H227.42V69.7353H228.47V71.1303C228.73 70.6303 229.105 70.2503 229.595 69.9903C230.085 69.7203 230.64 69.5853 231.26 69.5853ZM238.277 70.6203V75.7053C238.277 76.2053 238.372 76.5503 238.562 76.7403C238.752 76.9303 239.087 77.0253 239.567 77.0253H240.527V77.9253H239.402C238.662 77.9253 238.112 77.7553 237.752 77.4153C237.392 77.0653 237.212 76.4953 237.212 75.7053V70.6203H236.072V69.7353H237.212V67.6803H238.277V69.7353H240.527V70.6203H238.277Z" fill="#B3B3B3"/>
<circle cx="308.495" cy="21.9253" r="21" fill="#DDF6FF"/>
<path d="M285.775 77.9253L283.18 73.5453H281.245V77.9253H280.195V67.4403H283.345C284.515 67.4403 285.4 67.7203 286 68.2803C286.61 68.8403 286.915 69.5753 286.915 70.4853C286.915 71.2453 286.695 71.8953 286.255 72.4353C285.825 72.9653 285.185 73.3103 284.335 73.4703L287.035 77.9253H285.775ZM281.245 72.6903H283.36C284.18 72.6903 284.795 72.4903 285.205 72.0903C285.625 71.6903 285.835 71.1553 285.835 70.4853C285.835 69.7953 285.635 69.2653 285.235 68.8953C284.835 68.5153 284.205 68.3253 283.345 68.3253H281.245V72.6903ZM296.409 73.4103C296.409 73.7703 296.399 74.0453 296.379 74.2353H289.584C289.614 74.8553 289.764 75.3853 290.034 75.8253C290.304 76.2653 290.659 76.6003 291.099 76.8303C291.539 77.0503 292.019 77.1603 292.539 77.1603C293.219 77.1603 293.789 76.9953 294.249 76.6653C294.719 76.3353 295.029 75.8903 295.179 75.3303H296.289C296.089 76.1303 295.659 76.7853 294.999 77.2953C294.349 77.7953 293.529 78.0453 292.539 78.0453C291.769 78.0453 291.079 77.8753 290.469 77.5353C289.859 77.1853 289.379 76.6953 289.029 76.0653C288.689 75.4253 288.519 74.6803 288.519 73.8303C288.519 72.9803 288.689 72.2353 289.029 71.5953C289.369 70.9553 289.844 70.4653 290.454 70.1253C291.064 69.7853 291.759 69.6153 292.539 69.6153C293.319 69.6153 293.999 69.7853 294.579 70.1253C295.169 70.4653 295.619 70.9253 295.929 71.5053C296.249 72.0753 296.409 72.7103 296.409 73.4103ZM295.344 73.3803C295.354 72.7703 295.229 72.2503 294.969 71.8203C294.719 71.3903 294.374 71.0653 293.934 70.8453C293.494 70.6253 293.014 70.5153 292.494 70.5153C291.714 70.5153 291.049 70.7653 290.499 71.2653C289.949 71.7653 289.644 72.4703 289.584 73.3803H295.344ZM301.24 76.9053L304 69.7353H305.11L301.825 77.9253H300.64L297.355 69.7353H298.48L301.24 76.9053ZM307.058 68.1903C306.848 68.1903 306.668 68.1153 306.518 67.9653C306.368 67.8153 306.293 67.6303 306.293 67.4103C306.293 67.1903 306.368 67.0103 306.518 66.8703C306.668 66.7203 306.848 66.6453 307.058 66.6453C307.268 66.6453 307.448 66.7203 307.598 66.8703C307.748 67.0103 307.823 67.1903 307.823 67.4103C307.823 67.6303 307.748 67.8153 307.598 67.9653C307.448 68.1153 307.268 68.1903 307.058 68.1903ZM307.583 69.7353V77.9253H306.533V69.7353H307.583ZM317.371 73.4103C317.371 73.7703 317.361 74.0453 317.341 74.2353H310.546C310.576 74.8553 310.726 75.3853 310.996 75.8253C311.266 76.2653 311.621 76.6003 312.061 76.8303C312.501 77.0503 312.981 77.1603 313.501 77.1603C314.181 77.1603 314.751 76.9953 315.211 76.6653C315.681 76.3353 315.991 75.8903 316.141 75.3303H317.251C317.051 76.1303 316.621 76.7853 315.961 77.2953C315.311 77.7953 314.491 78.0453 313.501 78.0453C312.731 78.0453 312.041 77.8753 311.431 77.5353C310.821 77.1853 310.341 76.6953 309.991 76.0653C309.651 75.4253 309.481 74.6803 309.481 73.8303C309.481 72.9803 309.651 72.2353 309.991 71.5953C310.331 70.9553 310.806 70.4653 311.416 70.1253C312.026 69.7853 312.721 69.6153 313.501 69.6153C314.281 69.6153 314.961 69.7853 315.541 70.1253C316.131 70.4653 316.581 70.9253 316.891 71.5053C317.211 72.0753 317.371 72.7103 317.371 73.4103ZM316.306 73.3803C316.316 72.7703 316.191 72.2503 315.931 71.8203C315.681 71.3903 315.336 71.0653 314.896 70.8453C314.456 70.6253 313.976 70.5153 313.456 70.5153C312.676 70.5153 312.011 70.7653 311.461 71.2653C310.911 71.7653 310.606 72.4703 310.546 73.3803H316.306ZM330.092 69.7353L327.527 77.9253H326.477L324.212 71.0553L321.947 77.9253H320.882L318.317 69.7353H319.382L321.422 76.8603L323.717 69.7353H324.767L327.032 76.8753L329.057 69.7353H330.092ZM334.343 78.0453C333.403 78.0453 332.633 77.8303 332.033 77.4003C331.443 76.9603 331.113 76.3653 331.043 75.6153H332.123C332.173 76.0753 332.388 76.4503 332.768 76.7403C333.158 77.0203 333.678 77.1603 334.328 77.1603C334.898 77.1603 335.343 77.0253 335.663 76.7553C335.993 76.4853 336.158 76.1503 336.158 75.7503C336.158 75.4703 336.068 75.2403 335.888 75.0603C335.708 74.8803 335.478 74.7403 335.198 74.6403C334.928 74.5303 334.558 74.4153 334.088 74.2953C333.478 74.1353 332.983 73.9753 332.603 73.8153C332.223 73.6553 331.898 73.4203 331.628 73.1103C331.368 72.7903 331.238 72.3653 331.238 71.8353C331.238 71.4353 331.358 71.0653 331.598 70.7253C331.838 70.3853 332.178 70.1153 332.618 69.9153C333.058 69.7153 333.558 69.6153 334.118 69.6153C334.998 69.6153 335.708 69.8403 336.248 70.2903C336.788 70.7303 337.078 71.3403 337.118 72.1203H336.068C336.038 71.6403 335.848 71.2553 335.498 70.9653C335.158 70.6653 334.688 70.5153 334.088 70.5153C333.558 70.5153 333.128 70.6403 332.798 70.8903C332.468 71.1403 332.303 71.4503 332.303 71.8203C332.303 72.1403 332.398 72.4053 332.588 72.6153C332.788 72.8153 333.033 72.9753 333.323 73.0953C333.613 73.2053 334.003 73.3303 334.493 73.4703C335.083 73.6303 335.553 73.7853 335.903 73.9353C336.253 74.0853 336.553 74.3053 336.803 74.5953C337.053 74.8853 337.183 75.2703 337.193 75.7503C337.193 76.1903 337.073 76.5853 336.833 76.9353C336.593 77.2753 336.258 77.5453 335.828 77.7453C335.398 77.9453 334.903 78.0453 334.343 78.0453Z" fill="#B3B3B3"/>
<path d="M26.8825 12.4553L26.8494 12.4741C26.6768 12.5721 26.5069 12.6635 26.34 12.7534C26.0295 12.9205 25.7292 13.0821 25.4412 13.27L25.4365 13.273L25.4365 13.273L24.7552 13.6959L24.0876 14.1453L24.0832 14.1482L24.0832 14.1482C23.9067 14.2617 23.7392 14.3864 23.5637 14.517C23.5234 14.547 23.4826 14.5774 23.4412 14.608C23.3565 14.6725 23.2757 14.7317 23.1972 14.7891C23.0631 14.8873 22.9359 14.9804 22.8081 15.0868L22.8053 15.0891L22.8053 15.0891L22.7493 15.1344C22.3487 15.4579 21.9562 15.775 21.5845 16.1155L21.578 16.1215L21.5779 16.1214C21.2938 16.3638 21.0275 16.621 20.7555 16.8837C20.6446 16.9908 20.5327 17.0988 20.4183 17.2071C20.3357 17.2927 20.2534 17.3775 20.1714 17.4618C19.8817 17.7601 19.597 18.0532 19.3232 18.3596L19.3187 18.3647L19.3186 18.3647C19.0469 18.6525 18.7907 18.9524 18.5304 19.2572C18.4451 19.357 18.3595 19.4573 18.2727 19.5578C18.1962 19.6534 18.1199 19.7481 18.044 19.8423C17.7859 20.1627 17.5321 20.4776 17.2911 20.8051L17.2878 20.8096L17.2878 20.8096C17.0493 21.119 16.8232 21.4365 16.5941 21.758C16.5143 21.8701 16.4342 21.9826 16.353 22.0955C16.0502 22.5312 15.7543 22.9692 15.4708 23.4144C15.1853 23.8637 14.9054 24.3119 14.6415 24.7687L14.6398 24.7716L14.6398 24.7716C14.37 25.2242 14.1154 25.6875 13.8673 26.156L13.8664 26.1578C13.6172 26.6192 13.3904 27.095 13.1642 27.5757C12.9411 28.0538 12.7285 28.5369 12.5251 29.023C12.4711 29.1542 12.4169 29.2845 12.363 29.4143C12.2142 29.7729 12.067 30.1275 11.9275 30.4848L11.9257 30.4895L11.9256 30.4895C11.7292 30.964 11.5323 31.4749 11.3667 31.9142L10.5545 34.0708L10.4018 34.4761L10.1272 34.1412L8.68829 32.3862L8.68823 32.3861C8.41088 32.0476 8.13079 31.7124 7.84817 31.3791C7.79234 31.3152 7.73692 31.2514 7.68172 31.1879C7.45013 30.9214 7.22237 30.6593 6.98407 30.4068C6.92169 30.3415 6.86363 30.2789 6.80699 30.2179C6.71753 30.1215 6.63161 30.029 6.53784 29.9355L6.53219 29.9298L6.53228 29.9298C6.43915 29.8308 6.34682 29.7399 6.25068 29.6453C6.19376 29.5893 6.13551 29.532 6.07497 29.4709C5.76722 29.1682 5.45049 28.8747 5.12481 28.5913L5.12437 28.5909C4.79845 28.3059 4.46418 28.0304 4.11954 27.7687L4.11613 27.7661L4.11615 27.7661C3.98628 27.664 3.8537 27.5689 3.71563 27.4699C3.67491 27.4407 3.63372 27.4112 3.59197 27.381L3.73839 27.1784M26.8825 12.4553L3.71484 25.6179M26.8825 12.4553L26.8918 12.4454M26.8825 12.4553L26.8918 12.4454M3.73839 27.1784L3.59236 27.3813C3.43754 27.2699 3.27875 27.165 3.11392 27.0562C3.09355 27.0428 3.07309 27.0293 3.05253 27.0157C2.68017 26.7784 2.3084 26.5479 1.91938 26.3526L1.91576 26.3508L1.91578 26.3508C1.52621 26.1472 1.11679 25.9603 0.706735 25.8202C0.706436 25.8201 0.706137 25.82 0.705838 25.8199L0.695218 25.8164L0.692921 25.8156C0.496537 25.748 0.390048 25.5337 0.45787 25.3353L0.457897 25.3352C0.504281 25.1996 0.620866 25.1066 0.753297 25.0844L0.753319 25.0844C1.02618 25.0387 1.28212 25.0299 1.53526 25.0304L1.53996 25.0304L1.53996 25.0304C1.7904 25.0356 2.04378 25.0498 2.29691 25.0776L2.30247 25.0782L2.30246 25.0783C2.79576 25.1437 3.2953 25.236 3.78363 25.3776M3.73839 27.1784C3.7784 27.2073 3.81847 27.236 3.85851 27.2647C3.99743 27.3643 4.13604 27.4637 4.27072 27.5696L0.786628 25.5833C1.21249 25.7287 1.63425 25.9216 2.03156 26.1292C2.4335 26.331 2.81506 26.5679 3.18865 26.806C3.20967 26.8199 3.23068 26.8337 3.25167 26.8476C3.416 26.9561 3.57919 27.0638 3.73839 27.1784ZM3.78363 25.3776C3.78391 25.3776 3.78419 25.3777 3.78448 25.3778L3.71484 25.6179M3.78363 25.3776C3.7834 25.3775 3.78318 25.3774 3.78296 25.3774L3.71484 25.6179M3.78363 25.3776C4.26896 25.515 4.74376 25.6869 5.2056 25.886M3.71484 25.6179C4.18909 25.7522 4.6539 25.9204 5.10689 26.1156M5.2056 25.886C5.20551 25.8859 5.20543 25.8859 5.20535 25.8858L5.10689 26.1156M5.2056 25.886C5.66721 26.0838 6.11843 26.3086 6.55331 26.5605C6.99289 26.8072 7.41237 27.0817 7.81879 27.3679L7.81957 27.3684C8.22685 27.6576 8.62051 27.9646 8.99942 28.2874L8.9995 28.2875C9.13503 28.4031 9.2689 28.5204 9.40117 28.6394C9.42029 28.602 9.44077 28.562 9.46234 28.5202C9.58448 28.2831 9.7426 27.9823 9.88366 27.7337C10.4343 26.7472 11.0245 25.7892 11.63 24.8473L11.63 24.8473C11.9329 24.3763 12.2414 23.9077 12.5614 23.4463M5.2056 25.886C5.20568 25.886 5.20577 25.886 5.20585 25.8861L5.10689 26.1156M5.10689 26.1156L26.8918 12.4454M10.3205 33.9827L10.1375 33.7594L10.0866 33.8945L10.3205 33.9827ZM10.3205 33.9827L10.5139 33.8241L10.4223 33.7125L10.3205 33.9827ZM25.3046 13.0606L24.6194 13.4859L23.948 13.9379C23.7636 14.0565 23.5877 14.1875 23.4117 14.3185C23.3715 14.3484 23.3314 14.3783 23.2911 14.4081C23.2144 14.4666 23.1367 14.5235 23.0591 14.5803C22.9199 14.6823 22.781 14.7841 22.6482 14.8946L22.5903 14.9414C22.1913 15.2637 21.7932 15.5853 21.4156 15.9312C21.1254 16.1789 20.8504 16.4444 20.5761 16.7094C20.4651 16.8166 20.3542 16.9237 20.2424 17.0294C20.1598 17.115 20.077 17.2002 19.9943 17.2854C19.704 17.5843 19.4144 17.8824 19.1368 18.193C18.8604 18.4859 18.5985 18.7924 18.3372 19.0984C18.2517 19.1985 18.1663 19.2986 18.0804 19.398C18.0043 19.4932 17.9279 19.588 17.8515 19.6827C17.5928 20.0039 17.3343 20.3246 17.0898 20.6569C16.8481 20.9705 16.618 21.2935 16.3882 21.6162C16.3085 21.7281 16.2289 21.8399 16.1488 21.9512C15.8444 22.3892 15.5461 22.8308 15.2598 23.2803C14.9738 23.7304 14.6917 24.1822 14.425 24.6436C14.1523 25.1011 13.8956 25.5684 13.6464 26.039C13.3935 26.5072 13.1641 26.9887 12.9379 27.4695L25.3046 13.0606ZM25.3046 13.0606C25.6008 12.8674 25.9178 12.6967 26.2347 12.526C26.3994 12.4373 26.5642 12.3486 26.7259 12.2567L25.3046 13.0606ZM26.8918 12.4454C27.0278 12.344 27.0804 12.1607 27.0137 11.9999L27.0137 11.9999L27.0132 11.9986C26.9328 11.8075 26.713 11.7171 26.5213 11.7971L26.5211 11.7972C26.3595 11.8647 26.1917 11.9306 26.0209 11.9975C25.6812 12.1307 25.33 12.2685 24.9934 12.4333C24.9153 12.4697 24.8354 12.5063 24.7545 12.5434C24.583 12.6219 24.4075 12.7023 24.2373 12.7858L24.2373 12.7857L24.2301 12.7896L23.5012 13.1773C23.2858 13.2866 23.0786 13.4101 22.8795 13.5287C22.8423 13.5509 22.8054 13.5729 22.7687 13.5946L22.7687 13.5946L22.7659 13.5963C22.6903 13.6424 22.6092 13.6899 22.5258 13.7387C22.3676 13.8314 22.2011 13.9289 22.048 14.0313C22.0213 14.0486 21.9947 14.066 21.968 14.0833C21.533 14.3663 21.0894 14.6549 20.6638 14.97C20.3276 15.2019 20.0041 15.4554 19.6871 15.704C19.5668 15.7982 19.4475 15.8917 19.3288 15.9831L19.3286 15.9828L19.3194 15.9906C19.2091 16.0843 19.0963 16.1784 18.9826 16.2733C18.6696 16.5344 18.3488 16.802 18.0486 17.0866C17.7234 17.3756 17.4123 17.6804 17.1059 17.9808C17.0153 18.0696 16.9251 18.158 16.8351 18.2454L16.835 18.2453L16.8288 18.2518C16.7454 18.3388 16.6613 18.4261 16.5768 18.5137C16.2752 18.8263 15.9689 19.1439 15.6777 19.4734C15.294 19.8881 14.9335 20.3203 14.5788 20.7492L14.577 20.7513C14.225 21.1867 13.8783 21.6278 13.5424 22.0783L13.5422 22.0786C13.209 22.5271 12.8779 22.9809 12.5614 23.4463M12.5614 23.4463C12.5616 23.446 12.5618 23.4457 12.562 23.4453L12.7675 23.5878L12.5608 23.4472C12.561 23.4469 12.5612 23.4466 12.5614 23.4463Z" fill="white" stroke="white" stroke-width="0.5"/>
<circle cx="35.5488" cy="21.9253" r="21" fill="url(#paint0_linear_434_784)"/>
<path d="M10.7188 70.6953C10.7188 71.2553 10.5838 71.7803 10.3138 72.2703C10.0538 72.7603 9.63883 73.1553 9.06883 73.4553C8.50883 73.7553 7.79883 73.9053 6.93883 73.9053H5.18383V77.9253H3.08383V67.4553H6.93883C7.74883 67.4553 8.43883 67.5953 9.00883 67.8753C9.57883 68.1553 10.0038 68.5403 10.2838 69.0303C10.5738 69.5203 10.7188 70.0753 10.7188 70.6953ZM6.84883 72.2103C7.42883 72.2103 7.85883 72.0803 8.13883 71.8203C8.41883 71.5503 8.55883 71.1753 8.55883 70.6953C8.55883 69.6753 7.98883 69.1653 6.84883 69.1653H5.18383V72.2103H6.84883ZM19.9348 73.5903C19.9348 73.8903 19.9148 74.1603 19.8748 74.4003H13.7998C13.8498 75.0003 14.0598 75.4703 14.4298 75.8103C14.7998 76.1503 15.2548 76.3203 15.7948 76.3203C16.5748 76.3203 17.1298 75.9853 17.4598 75.3153H19.7248C19.4848 76.1153 19.0248 76.7753 18.3448 77.2953C17.6648 77.8053 16.8298 78.0603 15.8398 78.0603C15.0398 78.0603 14.3198 77.8853 13.6798 77.5353C13.0498 77.1753 12.5548 76.6703 12.1948 76.0203C11.8448 75.3703 11.6698 74.6203 11.6698 73.7703C11.6698 72.9103 11.8448 72.1553 12.1948 71.5053C12.5448 70.8553 13.0348 70.3553 13.6648 70.0053C14.2948 69.6553 15.0198 69.4803 15.8398 69.4803C16.6298 69.4803 17.3348 69.6503 17.9548 69.9903C18.5848 70.3303 19.0698 70.8153 19.4098 71.4453C19.7598 72.0653 19.9348 72.7803 19.9348 73.5903ZM17.7598 72.9903C17.7498 72.4503 17.5548 72.0203 17.1748 71.7003C16.7948 71.3703 16.3298 71.2053 15.7798 71.2053C15.2598 71.2053 14.8198 71.3653 14.4598 71.6853C14.1098 71.9953 13.8948 72.4303 13.8148 72.9903H17.7598ZM23.5676 70.9053C23.8376 70.4653 24.1876 70.1203 24.6176 69.8703C25.0576 69.6203 25.5576 69.4953 26.1176 69.4953V71.7003H25.5626C24.9026 71.7003 24.4026 71.8553 24.0626 72.1653C23.7326 72.4753 23.5676 73.0153 23.5676 73.7853V77.9253H21.4676V69.6153H23.5676V70.9053ZM30.7121 78.0603C30.0321 78.0603 29.4221 77.9403 28.8821 77.7003C28.3421 77.4503 27.9121 77.1153 27.5921 76.6953C27.2821 76.2753 27.1121 75.8103 27.0821 75.3003H29.1971C29.2371 75.6203 29.3921 75.8853 29.6621 76.0953C29.9421 76.3053 30.2871 76.4103 30.6971 76.4103C31.0971 76.4103 31.4071 76.3303 31.6271 76.1703C31.8571 76.0103 31.9721 75.8053 31.9721 75.5553C31.9721 75.2853 31.8321 75.0853 31.5521 74.9553C31.2821 74.8153 30.8471 74.6653 30.2471 74.5053C29.6271 74.3553 29.1171 74.2003 28.7171 74.0403C28.3271 73.8803 27.9871 73.6353 27.6971 73.3053C27.4171 72.9753 27.2771 72.5303 27.2771 71.9703C27.2771 71.5103 27.4071 71.0903 27.6671 70.7103C27.9371 70.3303 28.3171 70.0303 28.8071 69.8103C29.3071 69.5903 29.8921 69.4803 30.5621 69.4803C31.5521 69.4803 32.3421 69.7303 32.9321 70.2303C33.5221 70.7203 33.8471 71.3853 33.9071 72.2253H31.8971C31.8671 71.8953 31.7271 71.6353 31.4771 71.4453C31.2371 71.2453 30.9121 71.1453 30.5021 71.1453C30.1221 71.1453 29.8271 71.2153 29.6171 71.3553C29.4171 71.4953 29.3171 71.6903 29.3171 71.9403C29.3171 72.2203 29.4571 72.4353 29.7371 72.5853C30.0171 72.7253 30.4521 72.8703 31.0421 73.0203C31.6421 73.1703 32.1371 73.3253 32.5271 73.4853C32.9171 73.6453 33.2521 73.8953 33.5321 74.2353C33.8221 74.5653 33.9721 75.0053 33.9821 75.5553C33.9821 76.0353 33.8471 76.4653 33.5771 76.8453C33.3171 77.2253 32.9371 77.5253 32.4371 77.7453C31.9471 77.9553 31.3721 78.0603 30.7121 78.0603ZM39.3959 78.0603C38.5959 78.0603 37.8759 77.8853 37.2359 77.5353C36.5959 77.1753 36.0909 76.6703 35.7209 76.0203C35.3609 75.3703 35.1809 74.6203 35.1809 73.7703C35.1809 72.9203 35.3659 72.1703 35.7359 71.5203C36.1159 70.8703 36.6309 70.3703 37.2809 70.0203C37.9309 69.6603 38.6559 69.4803 39.4559 69.4803C40.2559 69.4803 40.9809 69.6603 41.6309 70.0203C42.2809 70.3703 42.7909 70.8703 43.1609 71.5203C43.5409 72.1703 43.7309 72.9203 43.7309 73.7703C43.7309 74.6203 43.5359 75.3703 43.1459 76.0203C42.7659 76.6703 42.2459 77.1753 41.5859 77.5353C40.9359 77.8853 40.2059 78.0603 39.3959 78.0603ZM39.3959 76.2303C39.7759 76.2303 40.1309 76.1403 40.4609 75.9603C40.8009 75.7703 41.0709 75.4903 41.2709 75.1203C41.4709 74.7503 41.5709 74.3003 41.5709 73.7703C41.5709 72.9803 41.3609 72.3753 40.9409 71.9553C40.5309 71.5253 40.0259 71.3103 39.4259 71.3103C38.8259 71.3103 38.3209 71.5253 37.9109 71.9553C37.5109 72.3753 37.3109 72.9803 37.3109 73.7703C37.3109 74.5603 37.5059 75.1703 37.8959 75.6003C38.2959 76.0203 38.7959 76.2303 39.3959 76.2303ZM49.8763 69.4953C50.8663 69.4953 51.6663 69.8103 52.2763 70.4403C52.8863 71.0603 53.1913 71.9303 53.1913 73.0503V77.9253H51.0913V73.3353C51.0913 72.6753 50.9263 72.1703 50.5963 71.8203C50.2663 71.4603 49.8163 71.2803 49.2463 71.2803C48.6663 71.2803 48.2063 71.4603 47.8663 71.8203C47.5363 72.1703 47.3713 72.6753 47.3713 73.3353V77.9253H45.2713V69.6153H47.3713V70.6503C47.6513 70.2903 48.0063 70.0103 48.4363 69.8103C48.8763 69.6003 49.3563 69.4953 49.8763 69.4953ZM54.6483 73.7403C54.6483 72.9003 54.8133 72.1553 55.1433 71.5053C55.4833 70.8553 55.9383 70.3553 56.5083 70.0053C57.0883 69.6553 57.7333 69.4803 58.4433 69.4803C59.0633 69.4803 59.6033 69.6053 60.0633 69.8553C60.5333 70.1053 60.9083 70.4203 61.1883 70.8003V69.6153H63.3033V77.9253H61.1883V76.7103C60.9183 77.1003 60.5433 77.4253 60.0633 77.6853C59.5933 77.9353 59.0483 78.0603 58.4283 78.0603C57.7283 78.0603 57.0883 77.8803 56.5083 77.5203C55.9383 77.1603 55.4833 76.6553 55.1433 76.0053C54.8133 75.3453 54.6483 74.5903 54.6483 73.7403ZM61.1883 73.7703C61.1883 73.2603 61.0883 72.8253 60.8883 72.4653C60.6883 72.0953 60.4183 71.8153 60.0783 71.6253C59.7383 71.4253 59.3733 71.3253 58.9833 71.3253C58.5933 71.3253 58.2333 71.4203 57.9033 71.6103C57.5733 71.8003 57.3033 72.0803 57.0933 72.4503C56.8933 72.8103 56.7933 73.2403 56.7933 73.7403C56.7933 74.2403 56.8933 74.6803 57.0933 75.0603C57.3033 75.4303 57.5733 75.7153 57.9033 75.9153C58.2433 76.1153 58.6033 76.2153 58.9833 76.2153C59.3733 76.2153 59.7383 76.1203 60.0783 75.9303C60.4183 75.7303 60.6883 75.4503 60.8883 75.0903C61.0883 74.7203 61.1883 74.2803 61.1883 73.7703ZM67.4543 66.8253V77.9253H65.3543V66.8253H67.4543Z" fill="#938F99"/>
<g filter="url(#filter0_d_434_784)">
<circle cx="34.6884" cy="23.9998" r="22.5" transform="rotate(-1.67848 34.6884 23.9998)" fill="url(#paint1_linear_434_784)" shape-rendering="crispEdges"/>
</g>
<path d="M47.8298 13.4548L47.7966 13.4736C47.6241 13.5716 47.4542 13.6631 47.2873 13.7529C46.9767 13.92 46.6765 14.0816 46.3885 14.2695L46.3838 14.2725L46.3838 14.2725L45.7025 14.6954L45.0348 15.1448L45.0305 15.1477L45.0305 15.1477C44.854 15.2612 44.6865 15.3859 44.511 15.5165C44.4706 15.5465 44.4299 15.5769 44.3885 15.6075C44.3038 15.6721 44.2229 15.7312 44.1444 15.7887C44.0104 15.8868 43.8832 15.9799 43.7554 16.0863L43.7526 16.0886L43.7525 16.0886L43.6965 16.1339C43.2959 16.4574 42.9034 16.7745 42.5318 17.115L42.5253 17.121L42.5252 17.1209C42.2411 17.3633 41.9748 17.6205 41.7028 17.8832C41.5919 17.9903 41.48 18.0983 41.3656 18.2066C41.283 18.2922 41.2006 18.377 41.1187 18.4614C40.829 18.7596 40.5443 19.0527 40.2705 19.3591L40.2659 19.3642L40.2659 19.3642C39.9941 19.652 39.738 19.9519 39.4776 20.2567C39.3924 20.3565 39.3068 20.4568 39.22 20.5573C39.1435 20.653 39.0672 20.7476 38.9913 20.8419C38.7332 21.1622 38.4794 21.4771 38.2384 21.8046L38.2351 21.8091L38.2351 21.8091C37.9965 22.1185 37.7704 22.436 37.5414 22.7575C37.4616 22.8696 37.3814 22.9821 37.3002 23.095C36.9975 23.5307 36.7016 23.9687 36.4181 24.4139C36.1326 24.8632 35.8527 25.3114 35.5887 25.7682L35.587 25.7711L35.587 25.7711C35.3172 26.2238 35.0627 26.687 34.8146 27.1555L34.8136 27.1573C34.5644 27.6187 34.3377 28.0945 34.1115 28.5752C33.8884 29.0533 33.6758 29.5364 33.4724 30.0225C33.4183 30.1537 33.3642 30.284 33.3103 30.4139C33.1615 30.7724 33.0142 31.127 32.8748 31.4843L32.8729 31.489L32.8729 31.489C32.6765 31.9635 32.4796 32.4744 32.314 32.9137L31.5018 35.0703L31.3491 35.4756L31.0745 35.1407L29.6356 33.3857L29.6355 33.3856C29.3581 33.0471 29.0781 32.7119 28.7954 32.3787C28.7396 32.3147 28.6842 32.2509 28.629 32.1874C28.3974 31.9209 28.1696 31.6588 27.9313 31.4063C27.869 31.341 27.8109 31.2784 27.7543 31.2174C27.6648 31.121 27.5789 31.0285 27.4851 30.935L27.4795 30.9294L27.4795 30.9293C27.3864 30.8303 27.2941 30.7394 27.1979 30.6449C27.141 30.5888 27.0828 30.5315 27.0222 30.4704C26.7145 30.1678 26.3978 29.8742 26.0721 29.5908L26.0716 29.5904C25.7457 29.3054 25.4114 29.0299 25.0668 28.7682L25.0634 28.7656L25.0634 28.7656C24.9335 28.6635 24.801 28.5684 24.6629 28.4694C24.6222 28.4402 24.581 28.4107 24.5392 28.3805L24.6857 28.1779M47.8298 13.4548L24.6621 26.6174M47.8298 13.4548L47.8391 13.4449M47.8298 13.4548L47.8391 13.4449M24.6857 28.1779L24.5396 28.3808C24.3848 28.2694 24.226 28.1645 24.0612 28.0557C24.0408 28.0423 24.0204 28.0288 23.9998 28.0152C23.6274 27.7779 23.2557 27.5474 22.8666 27.3521L22.863 27.3503L22.863 27.3503C22.4735 27.1467 22.0641 26.9598 21.654 26.8197C21.6537 26.8196 21.6534 26.8195 21.6531 26.8194L21.6425 26.8159L21.6402 26.8151C21.4438 26.7475 21.3373 26.5332 21.4051 26.3348L21.4052 26.3347C21.4515 26.1991 21.5681 26.1061 21.7006 26.0839L21.7006 26.0839C21.9734 26.0382 22.2294 26.0294 22.4825 26.0299L22.4872 26.0299L22.4872 26.0299C22.7377 26.0351 22.991 26.0493 23.2442 26.0771L23.2497 26.0777L23.2497 26.0778C23.743 26.1432 24.2426 26.2355 24.7309 26.3771M24.6857 28.1779C24.7257 28.2068 24.7657 28.2355 24.8058 28.2642C24.9447 28.3638 25.0833 28.4632 25.218 28.5691L21.7339 26.5828C22.1598 26.7283 22.5815 26.9211 22.9788 27.1287C23.3808 27.3305 23.7623 27.5674 24.1359 27.8055C24.1569 27.8194 24.1779 27.8333 24.1989 27.8471C24.3633 27.9556 24.5265 28.0633 24.6857 28.1779ZM24.7309 26.3771C24.7312 26.3772 24.7315 26.3772 24.7317 26.3773L24.6621 26.6174M24.7309 26.3771C24.7307 26.377 24.7304 26.3769 24.7302 26.3769L24.6621 26.6174M24.7309 26.3771C25.2162 26.5145 25.691 26.6864 26.1529 26.8855M24.6621 26.6174C25.1364 26.7517 25.6012 26.9199 26.0542 27.1152M26.1529 26.8855C26.1528 26.8854 26.1527 26.8854 26.1526 26.8854L26.0542 27.1152M26.1529 26.8855C26.6145 27.0833 27.0657 27.3081 27.5006 27.56C27.9402 27.8067 28.3596 28.0812 28.7661 28.3674L28.7668 28.3679C29.1741 28.6571 29.5678 28.9641 29.9467 29.2869L29.9468 29.287C30.0823 29.4026 30.2162 29.5199 30.3484 29.6389C30.3676 29.6015 30.388 29.5615 30.4096 29.5197C30.5317 29.2826 30.6899 28.9818 30.8309 28.7332C31.3815 27.7467 31.9718 26.7887 32.5772 25.8468L32.5773 25.8468C32.8802 25.3758 33.1887 24.9073 33.5086 24.4458M26.1529 26.8855C26.1529 26.8855 26.153 26.8855 26.1531 26.8856L26.0542 27.1152M26.0542 27.1152L47.8391 13.4449M31.2678 34.9822L31.0848 34.7589L31.0339 34.894L31.2678 34.9822ZM31.2678 34.9822L31.4611 34.8237L31.3696 34.712L31.2678 34.9822ZM46.2519 14.0601L45.5667 14.4854L44.8952 14.9374C44.7109 15.056 44.535 15.187 44.359 15.318C44.3188 15.3479 44.2786 15.3778 44.2383 15.4076C44.1616 15.4661 44.084 15.523 44.0063 15.5798C43.8672 15.6818 43.7282 15.7836 43.5954 15.8942L43.5375 15.9409C43.1385 16.2632 42.7404 16.5848 42.3629 16.9307C42.0726 17.1784 41.7977 17.4439 41.5233 17.7089C41.4123 17.8161 41.3014 17.9232 41.1896 18.029C41.1071 18.1145 41.0243 18.1998 40.9415 18.2849C40.6512 18.5838 40.3616 18.8819 40.0841 19.1926C39.8077 19.4854 39.5458 19.7919 39.2845 20.0979C39.199 20.198 39.1135 20.2981 39.0276 20.3975C38.9516 20.4927 38.8752 20.5875 38.7988 20.6823C38.54 21.0034 38.2816 21.3241 38.0371 21.6565C37.7954 21.97 37.5653 22.293 37.3355 22.6157C37.2558 22.7276 37.1762 22.8394 37.0961 22.9508C36.7917 23.3887 36.4933 23.8303 36.2071 24.2799C35.9211 24.7299 35.6389 25.1817 35.3723 25.6431C35.0996 26.1007 34.8428 26.5679 34.5936 27.0385C34.3408 27.5067 34.1114 27.9882 33.8851 28.469L46.2519 14.0601ZM46.2519 14.0601C46.548 13.8669 46.865 13.6962 47.182 13.5255C47.3467 13.4368 47.5114 13.3481 47.6732 13.2562L46.2519 14.0601ZM47.8391 13.4449C47.9751 13.3435 48.0277 13.1602 47.961 12.9994L47.961 12.9994L47.9605 12.9981C47.88 12.807 47.6603 12.7166 47.4685 12.7967L47.4684 12.7967C47.3068 12.8643 47.139 12.9301 46.9682 12.997C46.6285 13.1303 46.2772 13.268 45.9407 13.4329C45.8626 13.4692 45.7826 13.5058 45.7018 13.5429C45.5303 13.6214 45.3548 13.7018 45.1846 13.7854L45.1845 13.7852L45.1773 13.7891L44.4485 14.1768C44.2331 14.2861 44.0259 14.4096 43.8268 14.5282C43.7896 14.5504 43.7526 14.5724 43.716 14.5941L43.716 14.5941L43.7132 14.5958C43.6376 14.642 43.5565 14.6894 43.4731 14.7383C43.3149 14.8309 43.1483 14.9284 42.9952 15.0308C42.9686 15.0481 42.9419 15.0655 42.9152 15.0829C42.4803 15.3658 42.0367 15.6544 41.611 15.9695C41.2749 16.2014 40.9514 16.455 40.6343 16.7035C40.5141 16.7977 40.3948 16.8912 40.2761 16.9826L40.2759 16.9824L40.2667 16.9902C40.1563 17.0838 40.0436 17.1779 39.9299 17.2728C39.6168 17.5339 39.296 17.8015 38.9959 18.0861C38.6706 18.3751 38.3596 18.68 38.0531 18.9804C37.9626 19.0691 37.8724 19.1575 37.7824 19.2449L37.7823 19.2448L37.776 19.2513C37.6927 19.3383 37.6086 19.4256 37.524 19.5132C37.2225 19.8259 36.9162 20.1434 36.625 20.4729C36.2413 20.8876 35.8808 21.3198 35.526 21.7487L35.5243 21.7508C35.1722 22.1862 34.8256 22.6273 34.4897 23.0778L34.4894 23.0781C34.1562 23.5266 33.8252 23.9804 33.5086 24.4458M33.5086 24.4458C33.5089 24.4455 33.5091 24.4452 33.5093 24.4448L33.7148 24.5873L33.508 24.4467C33.5082 24.4464 33.5084 24.4461 33.5086 24.4458Z" fill="white" stroke="white" stroke-width="0.5"/>
<defs>
<filter id="filter0_d_434_784" x="8.18848" y="1.49951" width="53" height="53.0005" filterUnits="userSpaceOnUse" color-interpolation-filters="sRGB">
<feFlood flood-opacity="0" result="BackgroundImageFix"/>
<feColorMatrix in="SourceAlpha" type="matrix" values="0 0 0 0 0 0 0 0 0 0 0 0 0 0 0 0 0 0 127 0" result="hardAlpha"/>
<feOffset dy="4"/>
<feGaussianBlur stdDeviation="2"/>
<feComposite in2="hardAlpha" operator="out"/>
<feColorMatrix type="matrix" values="0 0 0 0 0 0 0 0 0 0 0 0 0 0 0 0 0 0 0.25 0"/>
<feBlend mode="normal" in2="BackgroundImageFix" result="effect1_dropShadow_434_784"/>
<feBlend mode="normal" in="SourceGraphic" in2="effect1_dropShadow_434_784" result="shape"/>
</filter>
<linearGradient id="paint0_linear_434_784" x1="35.5488" y1="0.925293" x2="35.5488" y2="42.9253" gradientUnits="userSpaceOnUse">
<stop stop-color="#DDF6FF"/>
<stop offset="1" stop-color="#92EEF7"/>
</linearGradient>
<linearGradient id="paint1_linear_434_784" x1="34.6884" y1="1.49976" x2="34.6884" y2="46.4998" gradientUnits="userSpaceOnUse">
<stop stop-color="#EA0094" stop-opacity="0.81"/>
<stop offset="1" stop-color="#B53586" stop-opacity="0.91"/>
</linearGradient>
</defs>
</svg>
