<svg width="347" height="86" viewBox="0 0 347 86" fill="none" xmlns="http://www.w3.org/2000/svg">
<path d="M313.129 24.4995L313.629 24.4995L313.629 23.4995L313.129 23.4995L313.129 24.4995ZM33.8633 24.4995L313.129 24.4995L313.129 23.4995L33.8633 23.4995L33.8633 24.4995Z" fill="#D3F3FF" fill-opacity="0.9"/>
<circle cx="124.893" cy="22.9253" r="21" fill="url(#paint0_linear_419_788)"/>
<path d="M117.613 68.4553V78.9253H115.513V74.4703H111.028V78.9253H108.928V68.4553H111.028V72.7603H115.513V68.4553H117.613ZM127.405 74.5903C127.405 74.8903 127.385 75.1603 127.345 75.4003H121.27C121.32 76.0003 121.53 76.4703 121.9 76.8103C122.27 77.1503 122.725 77.3203 123.265 77.3203C124.045 77.3203 124.6 76.9853 124.93 76.3153H127.195C126.955 77.1153 126.495 77.7753 125.815 78.2953C125.135 78.8053 124.3 79.0603 123.31 79.0603C122.51 79.0603 121.79 78.8853 121.15 78.5353C120.52 78.1753 120.025 77.6703 119.665 77.0203C119.315 76.3703 119.14 75.6203 119.14 74.7703C119.14 73.9103 119.315 73.1553 119.665 72.5053C120.015 71.8553 120.505 71.3553 121.135 71.0053C121.765 70.6553 122.49 70.4803 123.31 70.4803C124.1 70.4803 124.805 70.6503 125.425 70.9903C126.055 71.3303 126.54 71.8153 126.88 72.4453C127.23 73.0653 127.405 73.7803 127.405 74.5903ZM125.23 73.9903C125.22 73.4503 125.025 73.0203 124.645 72.7003C124.265 72.3703 123.8 72.2053 123.25 72.2053C122.73 72.2053 122.29 72.3653 121.93 72.6853C121.58 72.9953 121.365 73.4303 121.285 73.9903H125.23ZM131.037 67.8253V78.9253H128.937V67.8253H131.037ZM135.212 71.8153C135.482 71.4353 135.852 71.1203 136.322 70.8703C136.802 70.6103 137.347 70.4803 137.957 70.4803C138.667 70.4803 139.307 70.6553 139.877 71.0053C140.457 71.3553 140.912 71.8553 141.242 72.5053C141.582 73.1453 141.752 73.8903 141.752 74.7403C141.752 75.5903 141.582 76.3453 141.242 77.0053C140.912 77.6553 140.457 78.1603 139.877 78.5203C139.307 78.8803 138.667 79.0603 137.957 79.0603C137.347 79.0603 136.807 78.9353 136.337 78.6853C135.877 78.4353 135.502 78.1203 135.212 77.7403V82.8853H133.112V70.6153H135.212V71.8153ZM139.607 74.7403C139.607 74.2403 139.502 73.8103 139.292 73.4503C139.092 73.0803 138.822 72.8003 138.482 72.6103C138.152 72.4203 137.792 72.3253 137.402 72.3253C137.022 72.3253 136.662 72.4253 136.322 72.6253C135.992 72.8153 135.722 73.0953 135.512 73.4653C135.312 73.8353 135.212 74.2703 135.212 74.7703C135.212 75.2703 135.312 75.7053 135.512 76.0753C135.722 76.4453 135.992 76.7303 136.322 76.9303C136.662 77.1203 137.022 77.2153 137.402 77.2153C137.792 77.2153 138.152 77.1153 138.482 76.9153C138.822 76.7153 139.092 76.4303 139.292 76.0603C139.502 75.6903 139.607 75.2503 139.607 74.7403Z" fill="#938F99"/>
<circle cx="216.598" cy="22.9253" r="21" fill="#DDF6FF"/>
<path d="M191.003 71.4553C191.003 72.3553 190.708 73.0803 190.118 73.6303C189.528 74.1803 188.643 74.4553 187.463 74.4553H185.348V78.9253H184.298V68.4403H187.463C188.633 68.4403 189.513 68.7153 190.103 69.2653C190.703 69.8153 191.003 70.5453 191.003 71.4553ZM187.463 73.5553C189.103 73.5553 189.923 72.8553 189.923 71.4553C189.923 70.7553 189.728 70.2253 189.338 69.8653C188.948 69.5053 188.323 69.3253 187.463 69.3253H185.348V73.5553H187.463ZM192.284 74.8153C192.284 73.9753 192.449 73.2403 192.779 72.6103C193.119 71.9703 193.584 71.4803 194.174 71.1403C194.774 70.7903 195.449 70.6153 196.199 70.6153C196.979 70.6153 197.649 70.7953 198.209 71.1553C198.779 71.5153 199.189 71.9753 199.439 72.5353V70.7353H200.489V78.9253H199.439V77.1103C199.179 77.6703 198.764 78.1353 198.194 78.5053C197.634 78.8653 196.964 79.0453 196.184 79.0453C195.444 79.0453 194.774 78.8703 194.174 78.5203C193.584 78.1703 193.119 77.6753 192.779 77.0353C192.449 76.3953 192.284 75.6553 192.284 74.8153ZM199.439 74.8303C199.439 74.1703 199.304 73.5903 199.034 73.0903C198.764 72.5903 198.394 72.2053 197.924 71.9353C197.464 71.6653 196.954 71.5303 196.394 71.5303C195.814 71.5303 195.294 71.6603 194.834 71.9203C194.374 72.1803 194.009 72.5603 193.739 73.0603C193.479 73.5503 193.349 74.1353 193.349 74.8153C193.349 75.4853 193.479 76.0753 193.739 76.5853C194.009 77.0853 194.374 77.4703 194.834 77.7403C195.294 78.0003 195.814 78.1303 196.394 78.1303C196.954 78.1303 197.464 77.9953 197.924 77.7253C198.394 77.4553 198.764 77.0703 199.034 76.5703C199.304 76.0703 199.439 75.4903 199.439 74.8303ZM209.637 70.7353L204.777 82.7803H203.682L205.272 78.8803L201.912 70.7353H203.067L205.857 77.7253L208.557 70.7353H209.637ZM220.81 70.5853C221.77 70.5853 222.55 70.8903 223.15 71.5003C223.76 72.1003 224.065 72.9753 224.065 74.1253V78.9253H223.03V74.2453C223.03 73.3553 222.815 72.6753 222.385 72.2053C221.955 71.7353 221.37 71.5003 220.63 71.5003C219.86 71.5003 219.245 71.7553 218.785 72.2653C218.325 72.7753 218.095 73.5153 218.095 74.4853V78.9253H217.06V74.2453C217.06 73.3553 216.845 72.6753 216.415 72.2053C215.985 71.7353 215.395 71.5003 214.645 71.5003C213.875 71.5003 213.26 71.7553 212.8 72.2653C212.34 72.7753 212.11 73.5153 212.11 74.4853V78.9253H211.06V70.7353H212.11V72.1453C212.37 71.6353 212.74 71.2503 213.22 70.9903C213.7 70.7203 214.235 70.5853 214.825 70.5853C215.535 70.5853 216.155 70.7553 216.685 71.0953C217.225 71.4353 217.615 71.9353 217.855 72.5953C218.075 71.9453 218.45 71.4503 218.98 71.1103C219.52 70.7603 220.13 70.5853 220.81 70.5853ZM233.807 74.4103C233.807 74.7703 233.797 75.0453 233.777 75.2353H226.982C227.012 75.8553 227.162 76.3853 227.432 76.8253C227.702 77.2653 228.057 77.6003 228.497 77.8303C228.937 78.0503 229.417 78.1603 229.937 78.1603C230.617 78.1603 231.187 77.9953 231.647 77.6653C232.117 77.3353 232.427 76.8903 232.577 76.3303H233.687C233.487 77.1303 233.057 77.7853 232.397 78.2953C231.747 78.7953 230.927 79.0453 229.937 79.0453C229.167 79.0453 228.477 78.8753 227.867 78.5353C227.257 78.1853 226.777 77.6953 226.427 77.0653C226.087 76.4253 225.917 75.6803 225.917 74.8303C225.917 73.9803 226.087 73.2353 226.427 72.5953C226.767 71.9553 227.242 71.4653 227.852 71.1253C228.462 70.7853 229.157 70.6153 229.937 70.6153C230.717 70.6153 231.397 70.7853 231.977 71.1253C232.567 71.4653 233.017 71.9253 233.327 72.5053C233.647 73.0753 233.807 73.7103 233.807 74.4103ZM232.742 74.3803C232.752 73.7703 232.627 73.2503 232.367 72.8203C232.117 72.3903 231.772 72.0653 231.332 71.8453C230.892 71.6253 230.412 71.5153 229.892 71.5153C229.112 71.5153 228.447 71.7653 227.897 72.2653C227.347 72.7653 227.042 73.4703 226.982 74.3803H232.742ZM239.568 70.5853C240.548 70.5853 241.348 70.8903 241.968 71.5003C242.588 72.1003 242.898 72.9753 242.898 74.1253V78.9253H241.863V74.2453C241.863 73.3553 241.638 72.6753 241.188 72.2053C240.748 71.7353 240.143 71.5003 239.373 71.5003C238.583 71.5003 237.953 71.7503 237.483 72.2503C237.013 72.7503 236.778 73.4853 236.778 74.4553V78.9253H235.728V70.7353H236.778V72.1303C237.038 71.6303 237.413 71.2503 237.903 70.9903C238.393 70.7203 238.948 70.5853 239.568 70.5853ZM246.586 71.6203V76.7053C246.586 77.2053 246.681 77.5503 246.871 77.7403C247.061 77.9303 247.396 78.0253 247.876 78.0253H248.836V78.9253H247.711C246.971 78.9253 246.421 78.7553 246.061 78.4153C245.701 78.0653 245.521 77.4953 245.521 76.7053V71.6203H244.381V70.7353H245.521V68.6803H246.586V70.7353H248.836V71.6203H246.586Z" fill="#B3B3B3"/>
<circle cx="316.804" cy="22.9253" r="21" fill="#DDF6FF"/>
<path d="M294.084 78.9253L291.489 74.5453H289.554V78.9253H288.504V68.4403H291.654C292.824 68.4403 293.709 68.7203 294.309 69.2803C294.919 69.8403 295.224 70.5753 295.224 71.4853C295.224 72.2453 295.004 72.8953 294.564 73.4353C294.134 73.9653 293.494 74.3103 292.644 74.4703L295.344 78.9253H294.084ZM289.554 73.6903H291.669C292.489 73.6903 293.104 73.4903 293.514 73.0903C293.934 72.6903 294.144 72.1553 294.144 71.4853C294.144 70.7953 293.944 70.2653 293.544 69.8953C293.144 69.5153 292.514 69.3253 291.654 69.3253H289.554V73.6903ZM304.717 74.4103C304.717 74.7703 304.707 75.0453 304.687 75.2353H297.892C297.922 75.8553 298.072 76.3853 298.342 76.8253C298.612 77.2653 298.967 77.6003 299.407 77.8303C299.847 78.0503 300.327 78.1603 300.847 78.1603C301.527 78.1603 302.097 77.9953 302.557 77.6653C303.027 77.3353 303.337 76.8903 303.487 76.3303H304.597C304.397 77.1303 303.967 77.7853 303.307 78.2953C302.657 78.7953 301.837 79.0453 300.847 79.0453C300.077 79.0453 299.387 78.8753 298.777 78.5353C298.167 78.1853 297.687 77.6953 297.337 77.0653C296.997 76.4253 296.827 75.6803 296.827 74.8303C296.827 73.9803 296.997 73.2353 297.337 72.5953C297.677 71.9553 298.152 71.4653 298.762 71.1253C299.372 70.7853 300.067 70.6153 300.847 70.6153C301.627 70.6153 302.307 70.7853 302.887 71.1253C303.477 71.4653 303.927 71.9253 304.237 72.5053C304.557 73.0753 304.717 73.7103 304.717 74.4103ZM303.652 74.3803C303.662 73.7703 303.537 73.2503 303.277 72.8203C303.027 72.3903 302.682 72.0653 302.242 71.8453C301.802 71.6253 301.322 71.5153 300.802 71.5153C300.022 71.5153 299.357 71.7653 298.807 72.2653C298.257 72.7653 297.952 73.4703 297.892 74.3803H303.652ZM309.548 77.9053L312.308 70.7353H313.418L310.133 78.9253H308.948L305.663 70.7353H306.788L309.548 77.9053ZM315.367 69.1903C315.157 69.1903 314.977 69.1153 314.827 68.9653C314.677 68.8153 314.602 68.6303 314.602 68.4103C314.602 68.1903 314.677 68.0103 314.827 67.8703C314.977 67.7203 315.157 67.6453 315.367 67.6453C315.577 67.6453 315.757 67.7203 315.907 67.8703C316.057 68.0103 316.132 68.1903 316.132 68.4103C316.132 68.6303 316.057 68.8153 315.907 68.9653C315.757 69.1153 315.577 69.1903 315.367 69.1903ZM315.892 70.7353V78.9253H314.842V70.7353H315.892ZM325.679 74.4103C325.679 74.7703 325.669 75.0453 325.649 75.2353H318.854C318.884 75.8553 319.034 76.3853 319.304 76.8253C319.574 77.2653 319.929 77.6003 320.369 77.8303C320.809 78.0503 321.289 78.1603 321.809 78.1603C322.489 78.1603 323.059 77.9953 323.519 77.6653C323.989 77.3353 324.299 76.8903 324.449 76.3303H325.559C325.359 77.1303 324.929 77.7853 324.269 78.2953C323.619 78.7953 322.799 79.0453 321.809 79.0453C321.039 79.0453 320.349 78.8753 319.739 78.5353C319.129 78.1853 318.649 77.6953 318.299 77.0653C317.959 76.4253 317.789 75.6803 317.789 74.8303C317.789 73.9803 317.959 73.2353 318.299 72.5953C318.639 71.9553 319.114 71.4653 319.724 71.1253C320.334 70.7853 321.029 70.6153 321.809 70.6153C322.589 70.6153 323.269 70.7853 323.849 71.1253C324.439 71.4653 324.889 71.9253 325.199 72.5053C325.519 73.0753 325.679 73.7103 325.679 74.4103ZM324.614 74.3803C324.624 73.7703 324.499 73.2503 324.239 72.8203C323.989 72.3903 323.644 72.0653 323.204 71.8453C322.764 71.6253 322.284 71.5153 321.764 71.5153C320.984 71.5153 320.319 71.7653 319.769 72.2653C319.219 72.7653 318.914 73.4703 318.854 74.3803H324.614ZM338.4 70.7353L335.835 78.9253H334.785L332.52 72.0553L330.255 78.9253H329.19L326.625 70.7353H327.69L329.73 77.8603L332.025 70.7353H333.075L335.34 77.8753L337.365 70.7353H338.4ZM342.652 79.0453C341.712 79.0453 340.942 78.8303 340.342 78.4003C339.752 77.9603 339.422 77.3653 339.352 76.6153H340.432C340.482 77.0753 340.697 77.4503 341.077 77.7403C341.467 78.0203 341.987 78.1603 342.637 78.1603C343.207 78.1603 343.652 78.0253 343.972 77.7553C344.302 77.4853 344.467 77.1503 344.467 76.7503C344.467 76.4703 344.377 76.2403 344.197 76.0603C344.017 75.8803 343.787 75.7403 343.507 75.6403C343.237 75.5303 342.867 75.4153 342.397 75.2953C341.787 75.1353 341.292 74.9753 340.912 74.8153C340.532 74.6553 340.207 74.4203 339.937 74.1103C339.677 73.7903 339.547 73.3653 339.547 72.8353C339.547 72.4353 339.667 72.0653 339.907 71.7253C340.147 71.3853 340.487 71.1153 340.927 70.9153C341.367 70.7153 341.867 70.6153 342.427 70.6153C343.307 70.6153 344.017 70.8403 344.557 71.2903C345.097 71.7303 345.387 72.3403 345.427 73.1203H344.377C344.347 72.6403 344.157 72.2553 343.807 71.9653C343.467 71.6653 342.997 71.5153 342.397 71.5153C341.867 71.5153 341.437 71.6403 341.107 71.8903C340.777 72.1403 340.612 72.4503 340.612 72.8203C340.612 73.1403 340.707 73.4053 340.897 73.6153C341.097 73.8153 341.342 73.9753 341.632 74.0953C341.922 74.2053 342.312 74.3303 342.802 74.4703C343.392 74.6303 343.862 74.7853 344.212 74.9353C344.562 75.0853 344.862 75.3053 345.112 75.5953C345.362 75.8853 345.492 76.2703 345.502 76.7503C345.502 77.1903 345.382 77.5853 345.142 77.9353C344.902 78.2753 344.567 78.5453 344.137 78.7453C343.707 78.9453 343.212 79.0453 342.652 79.0453Z" fill="#B3B3B3"/>
<g filter="url(#filter0_d_419_788)">
<circle cx="33.6875" cy="23.9998" r="22.5" transform="rotate(-1.67848 33.6875 23.9998)" fill="url(#paint1_linear_419_788)" shape-rendering="crispEdges"/>
</g>
<path d="M9.1025 72.68C9.1025 73.21 8.9775 73.71 8.7275 74.18C8.4775 74.65 8.0775 75.035 7.5275 75.335C6.9775 75.625 6.2725 75.77 5.4125 75.77H3.5225V80H1.8125V69.575H5.4125C6.2125 69.575 6.8875 69.715 7.4375 69.995C7.9975 70.265 8.4125 70.635 8.6825 71.105C8.9625 71.575 9.1025 72.1 9.1025 72.68ZM5.4125 74.375C6.0625 74.375 6.5475 74.23 6.8675 73.94C7.1875 73.64 7.3475 73.22 7.3475 72.68C7.3475 71.54 6.7025 70.97 5.4125 70.97H3.5225V74.375H5.4125ZM18.3084 75.665C18.3084 75.975 18.2884 76.255 18.2484 76.505H11.9334C11.9834 77.165 12.2284 77.695 12.6684 78.095C13.1084 78.495 13.6484 78.695 14.2884 78.695C15.2084 78.695 15.8584 78.31 16.2384 77.54H18.0834C17.8334 78.3 17.3784 78.925 16.7184 79.415C16.0684 79.895 15.2584 80.135 14.2884 80.135C13.4984 80.135 12.7884 79.96 12.1584 79.61C11.5384 79.25 11.0484 78.75 10.6884 78.11C10.3384 77.46 10.1634 76.71 10.1634 75.86C10.1634 75.01 10.3334 74.265 10.6734 73.625C11.0234 72.975 11.5084 72.475 12.1284 72.125C12.7584 71.775 13.4784 71.6 14.2884 71.6C15.0684 71.6 15.7634 71.77 16.3734 72.11C16.9834 72.45 17.4584 72.93 17.7984 73.55C18.1384 74.16 18.3084 74.865 18.3084 75.665ZM16.5234 75.125C16.5134 74.495 16.2884 73.99 15.8484 73.61C15.4084 73.23 14.8634 73.04 14.2134 73.04C13.6234 73.04 13.1184 73.23 12.6984 73.61C12.2784 73.98 12.0284 74.485 11.9484 75.125H16.5234ZM21.7012 72.935C21.9512 72.515 22.2812 72.19 22.6912 71.96C23.1112 71.72 23.6062 71.6 24.1762 71.6V73.37H23.7412C23.0712 73.37 22.5612 73.54 22.2112 73.88C21.8712 74.22 21.7012 74.81 21.7012 75.65V80H19.9912V71.735H21.7012V72.935ZM28.748 80.135C28.098 80.135 27.513 80.02 26.993 79.79C26.483 79.55 26.078 79.23 25.778 78.83C25.478 78.42 25.318 77.965 25.298 77.465H27.068C27.098 77.815 27.263 78.11 27.563 78.35C27.873 78.58 28.258 78.695 28.718 78.695C29.198 78.695 29.568 78.605 29.828 78.425C30.098 78.235 30.233 77.995 30.233 77.705C30.233 77.395 30.083 77.165 29.783 77.015C29.493 76.865 29.028 76.7 28.388 76.52C27.768 76.35 27.263 76.185 26.873 76.025C26.483 75.865 26.143 75.62 25.853 75.29C25.573 74.96 25.433 74.525 25.433 73.985C25.433 73.545 25.563 73.145 25.823 72.785C26.083 72.415 26.453 72.125 26.933 71.915C27.423 71.705 27.983 71.6 28.613 71.6C29.553 71.6 30.308 71.84 30.878 72.32C31.458 72.79 31.768 73.435 31.808 74.255H30.098C30.068 73.885 29.918 73.59 29.648 73.37C29.378 73.15 29.013 73.04 28.553 73.04C28.103 73.04 27.758 73.125 27.518 73.295C27.278 73.465 27.158 73.69 27.158 73.97C27.158 74.19 27.238 74.375 27.398 74.525C27.558 74.675 27.753 74.795 27.983 74.885C28.213 74.965 28.553 75.07 29.003 75.2C29.603 75.36 30.093 75.525 30.473 75.695C30.863 75.855 31.198 76.095 31.478 76.415C31.758 76.735 31.903 77.16 31.913 77.69C31.913 78.16 31.783 78.58 31.523 78.95C31.263 79.32 30.893 79.61 30.413 79.82C29.943 80.03 29.388 80.135 28.748 80.135ZM37.3457 80.135C36.5657 80.135 35.8607 79.96 35.2307 79.61C34.6007 79.25 34.1057 78.75 33.7457 78.11C33.3857 77.46 33.2057 76.71 33.2057 75.86C33.2057 75.02 33.3907 74.275 33.7607 73.625C34.1307 72.975 34.6357 72.475 35.2757 72.125C35.9157 71.775 36.6307 71.6 37.4207 71.6C38.2107 71.6 38.9257 71.775 39.5657 72.125C40.2057 72.475 40.7107 72.975 41.0807 73.625C41.4507 74.275 41.6357 75.02 41.6357 75.86C41.6357 76.7 41.4457 77.445 41.0657 78.095C40.6857 78.745 40.1657 79.25 39.5057 79.61C38.8557 79.96 38.1357 80.135 37.3457 80.135ZM37.3457 78.65C37.7857 78.65 38.1957 78.545 38.5757 78.335C38.9657 78.125 39.2807 77.81 39.5207 77.39C39.7607 76.97 39.8807 76.46 39.8807 75.86C39.8807 75.26 39.7657 74.755 39.5357 74.345C39.3057 73.925 39.0007 73.61 38.6207 73.4C38.2407 73.19 37.8307 73.085 37.3907 73.085C36.9507 73.085 36.5407 73.19 36.1607 73.4C35.7907 73.61 35.4957 73.925 35.2757 74.345C35.0557 74.755 34.9457 75.26 34.9457 75.86C34.9457 76.75 35.1707 77.44 35.6207 77.93C36.0807 78.41 36.6557 78.65 37.3457 78.65ZM47.4962 71.6C48.1462 71.6 48.7262 71.735 49.2362 72.005C49.7562 72.275 50.1612 72.675 50.4512 73.205C50.7412 73.735 50.8862 74.375 50.8862 75.125V80H49.1912V75.38C49.1912 74.64 49.0062 74.075 48.6362 73.685C48.2662 73.285 47.7612 73.085 47.1212 73.085C46.4812 73.085 45.9712 73.285 45.5912 73.685C45.2212 74.075 45.0362 74.64 45.0362 75.38V80H43.3262V71.735H45.0362V72.68C45.3162 72.34 45.6712 72.075 46.1012 71.885C46.5412 71.695 47.0062 71.6 47.4962 71.6ZM52.4974 75.83C52.4974 75 52.6674 74.265 53.0074 73.625C53.3574 72.985 53.8274 72.49 54.4174 72.14C55.0174 71.78 55.6774 71.6 56.3974 71.6C57.0474 71.6 57.6124 71.73 58.0924 71.99C58.5824 72.24 58.9724 72.555 59.2624 72.935V71.735H60.9874V80H59.2624V78.77C58.9724 79.16 58.5774 79.485 58.0774 79.745C57.5774 80.005 57.0074 80.135 56.3674 80.135C55.6574 80.135 55.0074 79.955 54.4174 79.595C53.8274 79.225 53.3574 78.715 53.0074 78.065C52.6674 77.405 52.4974 76.66 52.4974 75.83ZM59.2624 75.86C59.2624 75.29 59.1424 74.795 58.9024 74.375C58.6724 73.955 58.3674 73.635 57.9874 73.415C57.6074 73.195 57.1974 73.085 56.7574 73.085C56.3174 73.085 55.9074 73.195 55.5274 73.415C55.1474 73.625 54.8374 73.94 54.5974 74.36C54.3674 74.77 54.2524 75.26 54.2524 75.83C54.2524 76.4 54.3674 76.9 54.5974 77.33C54.8374 77.76 55.1474 78.09 55.5274 78.32C55.9174 78.54 56.3274 78.65 56.7574 78.65C57.1974 78.65 57.6074 78.54 57.9874 78.32C58.3674 78.1 58.6724 77.78 58.9024 77.36C59.1424 76.93 59.2624 76.43 59.2624 75.86ZM64.9434 68.9V80H63.2334V68.9H64.9434Z" fill="black"/>
<path d="M46.8298 13.4548L46.7966 13.4736C46.6241 13.5716 46.4542 13.6631 46.2873 13.7529C45.9767 13.92 45.6765 14.0816 45.3885 14.2695L45.3838 14.2725L45.3838 14.2725L44.7025 14.6954L44.0348 15.1448L44.0305 15.1477L44.0305 15.1477C43.854 15.2612 43.6865 15.3859 43.511 15.5165C43.4706 15.5465 43.4299 15.5769 43.3885 15.6075C43.3038 15.6721 43.2229 15.7312 43.1444 15.7887C43.0104 15.8868 42.8832 15.9799 42.7554 16.0863L42.7526 16.0886L42.7525 16.0886L42.6965 16.1339C42.2959 16.4574 41.9034 16.7745 41.5318 17.115L41.5253 17.121L41.5252 17.1209C41.2411 17.3633 40.9748 17.6205 40.7028 17.8832C40.5919 17.9903 40.48 18.0983 40.3656 18.2066C40.283 18.2922 40.2006 18.377 40.1187 18.4614C39.829 18.7596 39.5443 19.0527 39.2705 19.3591L39.2659 19.3642L39.2659 19.3642C38.9941 19.652 38.738 19.9519 38.4776 20.2567C38.3924 20.3565 38.3068 20.4568 38.22 20.5573C38.1435 20.653 38.0672 20.7476 37.9913 20.8419C37.7332 21.1622 37.4794 21.4771 37.2384 21.8046L37.2351 21.8091L37.2351 21.8091C36.9965 22.1185 36.7704 22.436 36.5414 22.7575C36.4616 22.8696 36.3814 22.9821 36.3002 23.095C35.9975 23.5307 35.7016 23.9687 35.4181 24.4139C35.1326 24.8632 34.8527 25.3114 34.5887 25.7682L34.587 25.7711L34.587 25.7711C34.3172 26.2238 34.0627 26.687 33.8146 27.1555L33.8136 27.1573C33.5644 27.6187 33.3377 28.0945 33.1115 28.5752C32.8884 29.0533 32.6758 29.5364 32.4724 30.0225C32.4183 30.1537 32.3642 30.284 32.3103 30.4139C32.1615 30.7724 32.0142 31.127 31.8748 31.4843L31.8729 31.489L31.8729 31.489C31.6765 31.9635 31.4796 32.4744 31.314 32.9137L30.5018 35.0703L30.3491 35.4756L30.0745 35.1407L28.6356 33.3857L28.6355 33.3856C28.3581 33.0471 28.0781 32.7119 27.7954 32.3787C27.7396 32.3147 27.6842 32.2509 27.629 32.1874C27.3974 31.9209 27.1696 31.6588 26.9313 31.4063C26.869 31.341 26.8109 31.2784 26.7543 31.2174C26.6648 31.121 26.5789 31.0285 26.4851 30.935L26.4795 30.9294L26.4795 30.9293C26.3864 30.8303 26.2941 30.7394 26.1979 30.6449C26.141 30.5888 26.0828 30.5315 26.0222 30.4704C25.7145 30.1678 25.3978 29.8742 25.0721 29.5908L25.0716 29.5904C24.7457 29.3054 24.4114 29.0299 24.0668 28.7682L24.0634 28.7656L24.0634 28.7656C23.9335 28.6635 23.801 28.5684 23.6629 28.4694C23.6222 28.4402 23.581 28.4107 23.5392 28.3805L23.6857 28.1779M46.8298 13.4548L23.6621 26.6174M46.8298 13.4548L46.8391 13.4449M46.8298 13.4548L46.8391 13.4449M23.6857 28.1779L23.5396 28.3808C23.3848 28.2694 23.226 28.1645 23.0612 28.0557C23.0408 28.0423 23.0204 28.0288 22.9998 28.0152C22.6274 27.7779 22.2557 27.5474 21.8666 27.3521L21.863 27.3503L21.863 27.3503C21.4735 27.1467 21.0641 26.9598 20.654 26.8197C20.6537 26.8196 20.6534 26.8195 20.6531 26.8194L20.6425 26.8159L20.6402 26.8151C20.4438 26.7475 20.3373 26.5332 20.4051 26.3348L20.4052 26.3347C20.4515 26.1991 20.5681 26.1061 20.7006 26.0839L20.7006 26.0839C20.9734 26.0382 21.2294 26.0294 21.4825 26.0299L21.4872 26.0299L21.4872 26.0299C21.7377 26.0351 21.991 26.0493 22.2442 26.0771L22.2497 26.0777L22.2497 26.0778C22.743 26.1432 23.2426 26.2355 23.7309 26.3771M23.6857 28.1779C23.7257 28.2068 23.7657 28.2355 23.8058 28.2642C23.9447 28.3638 24.0833 28.4632 24.218 28.5691L20.7339 26.5828C21.1598 26.7283 21.5815 26.9211 21.9788 27.1287C22.3808 27.3305 22.7623 27.5674 23.1359 27.8055C23.1569 27.8194 23.1779 27.8333 23.1989 27.8471C23.3633 27.9556 23.5265 28.0633 23.6857 28.1779ZM23.7309 26.3771C23.7312 26.3772 23.7315 26.3772 23.7317 26.3773L23.6621 26.6174M23.7309 26.3771C23.7307 26.377 23.7304 26.3769 23.7302 26.3769L23.6621 26.6174M23.7309 26.3771C24.2162 26.5145 24.691 26.6864 25.1529 26.8855M23.6621 26.6174C24.1364 26.7517 24.6012 26.9199 25.0542 27.1152M25.1529 26.8855C25.1528 26.8854 25.1527 26.8854 25.1526 26.8854L25.0542 27.1152M25.1529 26.8855C25.6145 27.0833 26.0657 27.3081 26.5006 27.56C26.9402 27.8067 27.3596 28.0812 27.7661 28.3674L27.7668 28.3679C28.1741 28.6571 28.5678 28.9641 28.9467 29.2869L28.9468 29.287C29.0823 29.4026 29.2162 29.5199 29.3484 29.6389C29.3676 29.6015 29.388 29.5615 29.4096 29.5197C29.5317 29.2826 29.6899 28.9818 29.8309 28.7332C30.3815 27.7467 30.9718 26.7887 31.5772 25.8468L31.5773 25.8468C31.8802 25.3758 32.1887 24.9073 32.5086 24.4458M25.1529 26.8855C25.1529 26.8855 25.153 26.8855 25.1531 26.8856L25.0542 27.1152M25.0542 27.1152L46.8391 13.4449M30.2678 34.9822L30.0848 34.7589L30.0339 34.894L30.2678 34.9822ZM30.2678 34.9822L30.4611 34.8237L30.3696 34.712L30.2678 34.9822ZM45.2519 14.0601L44.5667 14.4854L43.8952 14.9374C43.7109 15.056 43.535 15.187 43.359 15.318C43.3188 15.3479 43.2786 15.3778 43.2383 15.4076C43.1616 15.4661 43.084 15.523 43.0063 15.5798C42.8672 15.6818 42.7282 15.7836 42.5954 15.8942L42.5375 15.9409C42.1385 16.2632 41.7404 16.5848 41.3629 16.9307C41.0726 17.1784 40.7977 17.4439 40.5233 17.7089C40.4123 17.8161 40.3014 17.9232 40.1896 18.029C40.1071 18.1145 40.0243 18.1998 39.9415 18.2849C39.6512 18.5838 39.3616 18.8819 39.0841 19.1926C38.8077 19.4854 38.5458 19.7919 38.2845 20.0979C38.199 20.198 38.1135 20.2981 38.0276 20.3975C37.9516 20.4927 37.8752 20.5875 37.7988 20.6823C37.54 21.0034 37.2816 21.3241 37.0371 21.6565C36.7954 21.97 36.5653 22.293 36.3355 22.6157C36.2558 22.7276 36.1762 22.8394 36.0961 22.9508C35.7917 23.3887 35.4933 23.8303 35.2071 24.2799C34.9211 24.7299 34.6389 25.1817 34.3723 25.6431C34.0996 26.1007 33.8428 26.5679 33.5936 27.0385C33.3408 27.5067 33.1114 27.9882 32.8851 28.469L45.2519 14.0601ZM45.2519 14.0601C45.548 13.8669 45.865 13.6962 46.182 13.5255C46.3467 13.4368 46.5114 13.3481 46.6732 13.2562L45.2519 14.0601ZM46.8391 13.4449C46.9751 13.3435 47.0277 13.1602 46.961 12.9994L46.961 12.9994L46.9605 12.9981C46.88 12.807 46.6603 12.7166 46.4685 12.7967L46.4684 12.7967C46.3068 12.8643 46.139 12.9301 45.9682 12.997C45.6285 13.1303 45.2772 13.268 44.9407 13.4329C44.8626 13.4692 44.7826 13.5058 44.7018 13.5429C44.5303 13.6214 44.3548 13.7018 44.1846 13.7854L44.1845 13.7852L44.1773 13.7891L43.4485 14.1768C43.2331 14.2861 43.0259 14.4096 42.8268 14.5282C42.7896 14.5504 42.7526 14.5724 42.716 14.5941L42.716 14.5941L42.7132 14.5958C42.6376 14.642 42.5565 14.6894 42.4731 14.7383C42.3149 14.8309 42.1483 14.9284 41.9952 15.0308C41.9686 15.0481 41.9419 15.0655 41.9152 15.0829C41.4803 15.3658 41.0367 15.6544 40.611 15.9695C40.2749 16.2014 39.9514 16.455 39.6343 16.7035C39.5141 16.7977 39.3948 16.8912 39.2761 16.9826L39.2759 16.9824L39.2667 16.9902C39.1563 17.0838 39.0436 17.1779 38.9299 17.2728C38.6168 17.5339 38.296 17.8015 37.9959 18.0861C37.6706 18.3751 37.3596 18.68 37.0531 18.9804C36.9626 19.0691 36.8724 19.1575 36.7824 19.2449L36.7823 19.2448L36.776 19.2513C36.6927 19.3383 36.6086 19.4256 36.524 19.5132C36.2225 19.8259 35.9162 20.1434 35.625 20.4729C35.2413 20.8876 34.8808 21.3198 34.526 21.7487L34.5243 21.7508C34.1722 22.1862 33.8256 22.6273 33.4897 23.0778L33.4894 23.0781C33.1562 23.5266 32.8252 23.9804 32.5086 24.4458M32.5086 24.4458C32.5089 24.4455 32.5091 24.4452 32.5093 24.4448L32.7148 24.5873L32.508 24.4467C32.5082 24.4464 32.5084 24.4461 32.5086 24.4458Z" fill="white" stroke="white" stroke-width="0.5"/>
<defs>
<filter id="filter0_d_419_788" x="7.1875" y="1.49951" width="53" height="53.0005" filterUnits="userSpaceOnUse" color-interpolation-filters="sRGB">
<feFlood flood-opacity="0" result="BackgroundImageFix"/>
<feColorMatrix in="SourceAlpha" type="matrix" values="0 0 0 0 0 0 0 0 0 0 0 0 0 0 0 0 0 0 127 0" result="hardAlpha"/>
<feOffset dy="4"/>
<feGaussianBlur stdDeviation="2"/>
<feComposite in2="hardAlpha" operator="out"/>
<feColorMatrix type="matrix" values="0 0 0 0 0 0 0 0 0 0 0 0 0 0 0 0 0 0 0.25 0"/>
<feBlend mode="normal" in2="BackgroundImageFix" result="effect1_dropShadow_419_788"/>
<feBlend mode="normal" in="SourceGraphic" in2="effect1_dropShadow_419_788" result="shape"/>
</filter>
<linearGradient id="paint0_linear_419_788" x1="124.893" y1="1.92529" x2="124.893" y2="43.9253" gradientUnits="userSpaceOnUse">
<stop stop-color="#DDF6FF"/>
<stop offset="1" stop-color="#92EEF7"/>
</linearGradient>
<linearGradient id="paint1_linear_419_788" x1="33.6875" y1="1.49976" x2="33.6875" y2="46.4998" gradientUnits="userSpaceOnUse">
<stop stop-color="#EA0094" stop-opacity="0.81"/>
<stop offset="1" stop-color="#B53586" stop-opacity="0.91"/>
</linearGradient>
</defs>
</svg>
