<svg width="400" height="460" viewBox="0 0 400 460" fill="none" xmlns="http://www.w3.org/2000/svg">
<mask id="mask0_438_806" style="mask-type:alpha" maskUnits="userSpaceOnUse" x="0" y="3" width="400" height="457">
<rect x="0.667969" y="3" width="399" height="456.82" fill="#D9D9D9"/>
</mask>
<g mask="url(#mask0_438_806)">
<ellipse cx="200.168" cy="135.971" rx="302" ry="323.849" fill="url(#paint0_linear_438_806)"/>
</g>
<mask id="mask1_438_806" style="mask-type:alpha" maskUnits="userSpaceOnUse" x="0" y="-65" width="400" height="512">
<mask id="mask2_438_806" style="mask-type:alpha" maskUnits="userSpaceOnUse" x="0" y="-65" width="400" height="512">
<rect x="0.667969" y="-65" width="399" height="511.82" fill="#D9D9D9"/>
</mask>
<g mask="url(#mask2_438_806)">
<ellipse cx="200.168" cy="83.9805" rx="302" ry="362.839" fill="url(#paint1_linear_438_806)"/>
</g>
</mask>
<g mask="url(#mask1_438_806)">
<circle cx="200.168" cy="411.82" r="139.692" stroke="black" stroke-dasharray="8 8"/>
<circle cx="75.3535" cy="370.758" r="23.5" fill="white"/>
<path d="M81.3564 360.331H81.3146C80.0929 360.33 78.8948 360.666 77.8511 361.3C76.8071 361.935 75.9578 362.844 75.3957 363.929C74.8445 362.828 73.9984 361.902 72.9521 361.254C71.9057 360.606 70.6999 360.261 69.469 360.258H69.4272H69.4274C67.6643 360.26 65.9731 360.959 64.7226 362.202C63.4721 363.444 62.763 365.131 62.75 366.894C62.75 368.752 63.2658 370.117 64.4562 371.327L65.0477 371.926L74.9219 381.113C75.1377 381.307 75.4644 381.307 75.6802 381.113L85.6601 372.013C85.7225 371.962 85.782 371.908 85.8384 371.85C85.8595 371.828 85.8823 371.808 85.9066 371.789L85.9672 371.736L86.0013 371.702C87.2473 370.459 87.9503 368.773 87.9567 367.013C87.9633 365.253 87.2725 363.562 86.0357 362.31C84.7989 361.057 83.1165 360.346 81.3565 360.331L81.3564 360.331ZM85.2088 370.925C85.1556 370.967 85.1048 371.012 85.0572 371.061C85.025 371.093 84.9906 371.124 84.9549 371.152L84.9245 371.178L75.3163 379.93L65.8368 371.103L65.2642 370.523C64.2858 369.533 63.8764 368.448 63.884 366.898V366.897C63.8959 365.435 64.4852 364.036 65.5234 363.005C66.5615 361.975 67.9647 361.396 69.4276 361.395H69.4617C70.7083 361.401 71.9165 361.828 72.8887 362.609C73.8613 363.389 74.5405 364.476 74.8156 365.692C74.8738 365.949 75.1015 366.133 75.3655 366.135C75.6276 366.136 75.8561 365.957 75.9191 365.703C76.2134 364.496 76.9038 363.424 77.88 362.656C78.856 361.888 80.0616 361.469 81.3034 361.468H81.3375C82.8071 361.468 84.2158 362.054 85.252 363.095C86.2883 364.137 86.8663 365.549 86.8583 367.019C86.8501 368.488 86.2566 369.894 85.209 370.924L85.2088 370.925Z" fill="black"/>
<path d="M70.3521 362.879C70.0517 362.827 69.747 362.801 69.442 362.803C68.9506 362.819 68.4652 362.915 68.005 363.088C67.3655 363.323 66.7912 363.706 66.3289 364.206L66.1318 364.422L66.564 364.802L66.7611 364.586H66.7613C67.162 364.154 67.6599 363.824 68.2134 363.622C68.612 363.473 69.032 363.39 69.457 363.376C69.7252 363.375 69.9932 363.398 70.2571 363.444L70.5454 363.493L70.6441 362.913L70.3521 362.879Z" fill="black"/>
<path d="M71.0995 363.091L70.8225 362.993L70.6445 363.547L70.9215 363.645L70.9212 363.645C71.0921 363.708 71.2568 363.785 71.4142 363.876L71.6684 364.021L71.9604 363.512L71.7062 363.368C71.5126 363.258 71.3097 363.165 71.0995 363.091Z" fill="black"/>
<circle cx="23.5" cy="23.5" r="23.5" transform="matrix(1 0 0 -1 51.8535 471.461)" fill="white"/>
<path d="M81.3564 458.389H81.3146C80.0929 458.389 78.8948 458.053 77.8511 457.419C76.8071 456.784 75.9578 455.875 75.3957 454.79C74.8445 455.891 73.9984 456.817 72.9521 457.465C71.9057 458.113 70.6999 458.458 69.469 458.461H69.4272H69.4274C67.6643 458.459 65.9731 457.761 64.7226 456.518C63.4721 455.275 62.763 453.588 62.75 451.825C62.75 449.967 63.2658 448.602 64.4562 447.393L65.0477 446.794L74.9219 437.606C75.1377 437.413 75.4644 437.413 75.6802 437.606L85.6601 446.706C85.7225 446.757 85.782 446.811 85.8384 446.869C85.8595 446.891 85.8823 446.911 85.9066 446.93L85.9672 446.983L86.0013 447.017C87.2473 448.26 87.9503 449.946 87.9567 451.706C87.9633 453.466 87.2725 455.157 86.0357 456.41C84.7989 457.662 83.1165 458.373 81.3565 458.389L81.3564 458.389ZM85.2088 447.795C85.1556 447.752 85.1048 447.707 85.0572 447.658C85.025 447.626 84.9906 447.596 84.9549 447.567L84.9245 447.541L75.3163 438.789L65.8368 447.617L65.2642 448.197C64.2858 449.186 63.8764 450.271 63.884 451.822V451.822C63.8959 453.284 64.4852 454.683 65.5234 455.714C66.5615 456.744 67.9647 457.323 69.4276 457.324H69.4617C70.7083 457.318 71.9165 456.891 72.8887 456.111C73.8613 455.33 74.5405 454.243 74.8156 453.028C74.8738 452.77 75.1015 452.586 75.3655 452.584C75.6276 452.583 75.8561 452.762 75.9191 453.016C76.2134 454.223 76.9038 455.296 77.88 456.063C78.856 456.831 80.0616 457.25 81.3034 457.252H81.3375C82.8071 457.252 84.2158 456.666 85.252 455.624C86.2883 454.582 86.8663 453.17 86.8583 451.7C86.8501 450.231 86.2566 448.825 85.209 447.795L85.2088 447.795Z" fill="black"/>
<circle cx="114.459" cy="300.522" r="23.5" fill="white"/>
<path fill-rule="evenodd" clip-rule="evenodd" d="M114.457 311.845C112.217 311.845 110.026 311.18 108.163 309.936C106.3 308.691 104.848 306.922 103.991 304.852C103.133 302.782 102.909 300.504 103.346 298.307C103.783 296.109 104.862 294.09 106.446 292.506C108.03 290.922 110.049 289.843 112.246 289.405C114.444 288.968 116.722 289.193 118.792 290.05C120.862 290.907 122.631 292.359 123.876 294.222C125.121 296.085 125.785 298.276 125.785 300.516C125.782 303.52 124.587 306.399 122.464 308.523C120.34 310.647 117.46 311.841 114.457 311.845V311.845ZM114.818 288.021H114.096C110.813 288.116 107.7 289.499 105.429 291.871C103.158 294.243 101.912 297.414 101.959 300.697C102.007 303.981 103.345 307.114 105.684 309.419C108.023 311.725 111.175 313.017 114.459 313.017C117.743 313.017 120.895 311.725 123.233 309.419C125.572 307.114 126.91 303.981 126.958 300.697C127.005 297.414 125.759 294.243 123.488 291.871C121.217 289.499 118.104 288.116 114.821 288.021H114.818ZM117.822 303.779C117.822 302.486 116.6 301.374 115.044 301.146V306.396C116.63 306.137 117.822 305.062 117.822 303.779V303.779ZM111.093 297.253C111.093 298.545 112.315 299.659 113.871 299.886V294.636C112.285 294.896 111.093 295.969 111.093 297.253ZM117.888 296.281C118.037 296.568 118.39 296.681 118.678 296.532C118.965 296.383 119.077 296.029 118.929 295.742C118.25 294.431 116.754 293.55 115.044 293.421V292.107C115.047 291.949 114.987 291.797 114.877 291.684C114.766 291.572 114.615 291.508 114.458 291.508C114.3 291.508 114.149 291.572 114.039 291.684C113.928 291.797 113.868 291.949 113.872 292.107V293.452C112.951 293.561 112.077 293.919 111.344 294.487C110.466 295.138 109.939 296.16 109.92 297.253C109.94 298.339 110.455 299.356 111.318 300.014C112.05 300.603 112.936 300.969 113.871 301.068V306.436C112.612 306.314 111.501 305.668 111.026 304.752V304.752C110.877 304.465 110.524 304.352 110.236 304.501C109.949 304.65 109.837 305.003 109.986 305.291C110.664 306.602 112.16 307.484 113.871 307.612V308.926C113.878 309.245 114.138 309.5 114.457 309.5C114.775 309.5 115.036 309.245 115.043 308.926V307.579C115.963 307.47 116.837 307.112 117.571 306.544C118.459 305.907 118.988 304.882 118.993 303.788C118.998 302.695 118.479 301.665 117.596 301.019C116.864 300.43 115.978 300.063 115.044 299.963V294.598C116.303 294.719 117.413 295.365 117.888 296.281L117.888 296.281Z" fill="black"/>
<circle cx="194.614" cy="268.961" r="23.5" fill="white"/>
<path fill-rule="evenodd" clip-rule="evenodd" d="M194.946 251.921C194.612 251.917 194.281 251.929 193.949 251.952C189.975 252.228 186.279 254.44 184.206 258.038C181.446 262.825 182.08 268.825 186.148 272.803C187.006 273.642 187.275 274.398 187.326 275.289C187.377 276.18 187.166 277.215 186.973 278.429C186.886 278.978 186.993 279.531 187.288 280.008C187.584 280.486 188.042 280.891 188.645 281.272C191.053 282.797 195.155 283.812 198.224 283.399C199.509 283.226 200.243 282.32 200.426 281.19C200.535 280.519 200.637 280.037 200.799 279.809C200.962 279.582 201.174 279.448 201.905 279.46C202.65 279.473 203.435 279.554 204.173 279.282C204.91 279.01 205.484 278.277 205.608 277.118C205.663 276.597 205.564 276.644 205.916 276.193C206.476 275.475 206.707 274.993 206.382 274.21C207.13 273.977 207.293 273.375 207.077 272.689L206.648 271.329L208.32 270.706C208.805 270.525 209.126 270.096 209.203 269.651C209.281 269.205 209.152 268.742 208.854 268.377C207.897 267.204 207.039 266.59 206.559 265.493C206.278 264.851 206.33 264.625 206.45 264.216C206.57 263.806 206.821 263.226 206.823 262.332C206.83 259.648 205.352 257.556 203.929 255.986C202.154 254.026 199.884 252.81 197.963 252.342L198.015 252.356C197.998 252.349 197.981 252.344 197.963 252.338C196.961 252.07 195.949 251.934 194.946 251.921L194.946 251.921ZM194.932 252.976C195.847 252.988 196.771 253.112 197.686 253.356C197.688 253.357 197.691 253.356 197.693 253.356C197.7 253.359 197.707 253.361 197.714 253.363C199.407 253.776 201.531 254.906 203.149 256.692C204.503 258.187 205.778 260.035 205.772 262.33C205.77 263.035 205.59 263.41 205.44 263.922C205.289 264.433 205.233 265.091 205.594 265.915C206.195 267.289 207.202 267.964 208.039 269.045C208.291 269.371 208.19 269.631 207.95 269.72L206.262 270.35C206.153 270.391 205.951 270.456 205.769 270.672C205.586 270.888 205.523 271.265 205.621 271.576L206.073 273.008C206.142 273.226 206.045 273.389 205.775 273.409C205.37 273.439 205.103 273.856 205.32 274.2C205.7 274.802 205.385 275.161 205.083 275.553C204.64 276.13 204.61 276.562 204.563 277.005C204.465 277.926 204.217 278.145 203.806 278.296C203.396 278.448 202.704 278.423 201.923 278.41C201.009 278.394 200.321 278.672 199.943 279.201C199.565 279.73 199.492 280.35 199.385 281.026C199.256 281.837 198.778 282.267 198.09 282.355C195.375 282.704 191.317 281.719 189.206 280.382C188.687 280.054 188.358 279.742 188.182 279.458C188.006 279.174 187.958 278.925 188.011 278.595C188.198 277.412 188.436 276.32 188.374 275.228C188.311 274.136 187.903 273.047 186.884 272.05C183.154 268.402 182.581 262.962 185.117 258.563C187.014 255.273 190.39 253.254 194.021 253.001C194.324 252.979 194.627 252.972 194.932 252.976L194.932 252.976Z" fill="black"/>
<path d="M187.874 266.248L187.874 266.248C185.874 262.659 187.391 258.096 190.918 256.158C190.918 256.158 190.918 256.158 190.918 256.158L190.966 256.245C191.938 255.712 192.973 255.413 194.013 255.327L187.874 266.248ZM187.874 266.248C189.647 269.427 193.78 270.788 197.017 268.946C199.843 267.337 201.047 263.63 199.365 260.741L199.365 260.741C197.922 258.266 194.646 257.21 192.11 258.737C189.989 260.016 189.085 262.875 190.457 265.059C191.569 266.83 194.009 267.581 195.839 266.355C197.254 265.408 197.853 263.377 196.766 261.901L196.766 261.901C196.373 261.367 195.789 261.005 195.151 260.878C194.512 260.751 193.796 260.878 193.242 261.364L193.242 261.364C192.885 261.677 192.653 262.115 192.595 262.593C192.537 263.074 192.693 263.638 193.157 263.991C193.385 264.181 193.723 264.149 193.913 263.922L193.913 263.922C194.103 263.693 194.073 263.354 193.845 263.163L193.845 263.163L193.844 263.162L193.842 263.16C193.833 263.153 193.82 263.142 193.806 263.133C193.736 263.079 193.697 263.025 193.676 262.965C193.654 262.903 193.649 262.826 193.661 262.724L193.661 262.724C193.685 262.526 193.808 262.296 193.948 262.173L193.948 262.173C194.23 261.926 194.576 261.861 194.943 261.933C195.31 262.007 195.674 262.233 195.9 262.539L195.9 262.539C196.58 263.463 196.197 264.818 195.242 265.457C193.963 266.314 192.186 265.78 191.371 264.484C190.345 262.849 191.028 260.646 192.665 259.659L192.665 259.659C194.651 258.463 197.281 259.3 198.436 261.284C199.799 263.624 198.811 266.684 196.483 268.009C193.794 269.54 190.309 268.396 188.817 265.72C187.121 262.678 188.414 258.759 191.436 257.099C194.827 255.236 199.17 256.686 200.996 260.058C202.527 262.885 202.031 266.473 199.887 268.859C199.688 269.08 199.707 269.421 199.928 269.62C200.149 269.819 200.489 269.801 200.688 269.579C203.132 266.859 203.701 262.792 201.943 259.546L201.943 259.546C200.366 256.636 197.166 254.967 194.005 255.227L193.951 255.231L193.951 255.232L187.874 266.248Z" fill="black" stroke="black" stroke-width="0.2"/>
<circle cx="284.854" cy="300.522" r="23.5" fill="white"/>
<mask id="path-18-outside-1_438_806" maskUnits="userSpaceOnUse" x="270.504" y="284.14" width="35" height="33" fill="black">
<rect fill="white" x="270.504" y="284.14" width="35" height="33"/>
<path d="M305.169 306.629C305.078 306.176 304.817 305.791 304.433 305.543L284.933 292.968C285.363 292.851 285.749 292.618 286.06 292.303C287.271 293.65 288.9 294.335 290.861 294.335C291.729 294.335 292.662 294.201 293.652 293.931C293.786 293.895 293.869 293.762 293.845 293.626C293.482 291.619 292.565 290.251 291.117 289.55C292.386 288.758 293.35 287.527 294.024 285.844C294.053 285.772 294.049 285.691 294.014 285.622C293.978 285.553 293.915 285.503 293.839 285.485C290.192 284.587 287.419 285.445 285.591 288.034C285.212 287.797 284.772 287.661 284.302 287.661C283.263 287.661 282.322 288.347 281.939 289.355C281.678 289.338 281.41 289.405 281.182 289.56C280.975 289.7 280.733 289.882 280.494 290.105L278.539 288.844C277.75 288.335 276.683 288.579 276.162 289.387C275.641 290.196 275.859 291.268 276.648 291.776L278.87 293.21C276.834 294.81 274.935 297.428 273.495 300.633C272.096 303.75 271.36 306.99 271.527 309.299C271.854 313.803 274.99 316.386 280.131 316.386C282.535 316.386 284.46 315.763 285.854 314.534C287.236 313.314 288.1 311.493 288.422 309.121C288.736 306.802 288.295 304.091 287.179 301.488C286.399 299.668 285.345 298.002 284.077 296.568L302.541 308.476C302.925 308.675 303.35 308.766 303.834 308.699C304.281 308.595 304.666 308.324 304.918 307.933C305.17 307.543 305.259 307.08 305.169 306.63L305.169 306.629ZM293.271 293.478C290.289 294.231 287.979 293.693 286.4 291.88C286.588 291.59 286.725 291.26 286.794 290.903C287.837 291.751 289.186 292.296 290.814 292.522C290.827 292.524 290.839 292.525 290.851 292.525C290.983 292.525 291.098 292.428 291.116 292.294C291.137 292.148 291.034 292.013 290.888 291.993C289.445 291.792 288.242 291.33 287.299 290.618C288.522 290.572 289.595 290.327 290.524 289.877C291.977 290.422 292.878 291.603 293.271 293.478L293.271 293.478ZM293.407 285.933C292.182 288.738 290.025 290.101 286.835 290.092C286.812 289.842 286.756 289.602 286.672 289.376C287.91 288.542 289.359 287.952 290.983 287.622C291.128 287.592 291.222 287.451 291.192 287.306C291.163 287.162 291.022 287.068 290.877 287.098C289.211 287.437 287.718 288.039 286.436 288.89C286.316 288.696 286.174 288.519 286.013 288.363C287.672 285.995 290.096 285.198 293.407 285.933L293.407 285.933ZM284.302 288.196C285.41 288.196 286.312 289.165 286.312 290.357C286.312 291.548 285.41 292.517 284.302 292.517L283.789 292.23C283.984 292.008 284.092 291.721 284.088 291.421C284.083 291.072 283.929 290.741 283.664 290.514L282.645 289.641C282.586 289.59 282.522 289.546 282.455 289.509C282.768 288.726 283.498 288.196 284.302 288.196ZM281.482 290.003C281.597 289.925 281.729 289.886 281.861 289.886C282.017 289.886 282.173 289.941 282.298 290.047L283.316 290.92C283.464 291.047 283.551 291.232 283.553 291.428C283.556 291.622 283.478 291.801 283.335 291.93C282.922 292.303 282.599 292.673 282.375 293.029C282.159 293.373 281.983 293.837 281.85 294.407C281.802 294.616 281.66 294.783 281.461 294.866C281.259 294.951 281.036 294.934 280.849 294.82L279.88 294.23C279.661 294.096 279.539 293.854 279.561 293.596C279.607 293.072 279.745 292.083 280.157 291.358C280.507 290.742 281.071 290.281 281.482 290.003ZM276.938 291.327C276.397 290.978 276.25 290.237 276.612 289.677C276.973 289.116 277.708 288.944 278.249 289.293L280.115 290.497C279.96 290.678 279.815 290.877 279.692 291.094C279.405 291.599 279.236 292.197 279.136 292.744L276.938 291.327ZM287.892 309.049C287.28 313.563 284.668 315.851 280.131 315.851C275.235 315.851 272.369 313.51 272.061 309.259C271.747 304.931 274.758 297.261 279.029 293.768C279.063 294.145 279.271 294.485 279.602 294.687L280.571 295.278C280.764 295.396 280.98 295.456 281.198 295.456C281.356 295.456 281.516 295.424 281.668 295.36C281.762 295.321 281.848 295.27 281.927 295.212C286.016 298.649 288.518 304.429 287.892 309.049L287.892 309.049ZM302.056 306.086C301.81 306.469 301.72 306.92 301.801 307.361L282.284 294.775C282.321 294.697 282.35 294.615 282.37 294.529C282.49 294.016 282.643 293.607 282.828 293.314C282.969 293.088 283.16 292.853 283.395 292.613L303.112 305.328C302.677 305.436 302.302 305.704 302.056 306.086L302.056 306.086ZM304.469 307.643C304.293 307.915 304.025 308.105 303.714 308.177C303.406 308.248 303.092 308.194 302.832 308.026C302.57 307.858 302.392 307.594 302.33 307.285C302.267 306.972 302.329 306.649 302.505 306.377C302.681 306.104 302.949 305.914 303.26 305.842C303.568 305.772 303.881 305.825 304.142 305.993L304.142 305.993C304.404 306.162 304.582 306.425 304.644 306.735C304.707 307.048 304.645 307.37 304.469 307.643L304.469 307.643Z"/>
</mask>
<path d="M305.169 306.629C305.078 306.176 304.817 305.791 304.433 305.543L284.933 292.968C285.363 292.851 285.749 292.618 286.06 292.303C287.271 293.65 288.9 294.335 290.861 294.335C291.729 294.335 292.662 294.201 293.652 293.931C293.786 293.895 293.869 293.762 293.845 293.626C293.482 291.619 292.565 290.251 291.117 289.55C292.386 288.758 293.35 287.527 294.024 285.844C294.053 285.772 294.049 285.691 294.014 285.622C293.978 285.553 293.915 285.503 293.839 285.485C290.192 284.587 287.419 285.445 285.591 288.034C285.212 287.797 284.772 287.661 284.302 287.661C283.263 287.661 282.322 288.347 281.939 289.355C281.678 289.338 281.41 289.405 281.182 289.56C280.975 289.7 280.733 289.882 280.494 290.105L278.539 288.844C277.75 288.335 276.683 288.579 276.162 289.387C275.641 290.196 275.859 291.268 276.648 291.776L278.87 293.21C276.834 294.81 274.935 297.428 273.495 300.633C272.096 303.75 271.36 306.99 271.527 309.299C271.854 313.803 274.99 316.386 280.131 316.386C282.535 316.386 284.46 315.763 285.854 314.534C287.236 313.314 288.1 311.493 288.422 309.121C288.736 306.802 288.295 304.091 287.179 301.488C286.399 299.668 285.345 298.002 284.077 296.568L302.541 308.476C302.925 308.675 303.35 308.766 303.834 308.699C304.281 308.595 304.666 308.324 304.918 307.933C305.17 307.543 305.259 307.08 305.169 306.63L305.169 306.629ZM293.271 293.478C290.289 294.231 287.979 293.693 286.4 291.88C286.588 291.59 286.725 291.26 286.794 290.903C287.837 291.751 289.186 292.296 290.814 292.522C290.827 292.524 290.839 292.525 290.851 292.525C290.983 292.525 291.098 292.428 291.116 292.294C291.137 292.148 291.034 292.013 290.888 291.993C289.445 291.792 288.242 291.33 287.299 290.618C288.522 290.572 289.595 290.327 290.524 289.877C291.977 290.422 292.878 291.603 293.271 293.478L293.271 293.478ZM293.407 285.933C292.182 288.738 290.025 290.101 286.835 290.092C286.812 289.842 286.756 289.602 286.672 289.376C287.91 288.542 289.359 287.952 290.983 287.622C291.128 287.592 291.222 287.451 291.192 287.306C291.163 287.162 291.022 287.068 290.877 287.098C289.211 287.437 287.718 288.039 286.436 288.89C286.316 288.696 286.174 288.519 286.013 288.363C287.672 285.995 290.096 285.198 293.407 285.933L293.407 285.933ZM284.302 288.196C285.41 288.196 286.312 289.165 286.312 290.357C286.312 291.548 285.41 292.517 284.302 292.517L283.789 292.23C283.984 292.008 284.092 291.721 284.088 291.421C284.083 291.072 283.929 290.741 283.664 290.514L282.645 289.641C282.586 289.59 282.522 289.546 282.455 289.509C282.768 288.726 283.498 288.196 284.302 288.196ZM281.482 290.003C281.597 289.925 281.729 289.886 281.861 289.886C282.017 289.886 282.173 289.941 282.298 290.047L283.316 290.92C283.464 291.047 283.551 291.232 283.553 291.428C283.556 291.622 283.478 291.801 283.335 291.93C282.922 292.303 282.599 292.673 282.375 293.029C282.159 293.373 281.983 293.837 281.85 294.407C281.802 294.616 281.66 294.783 281.461 294.866C281.259 294.951 281.036 294.934 280.849 294.82L279.88 294.23C279.661 294.096 279.539 293.854 279.561 293.596C279.607 293.072 279.745 292.083 280.157 291.358C280.507 290.742 281.071 290.281 281.482 290.003ZM276.938 291.327C276.397 290.978 276.25 290.237 276.612 289.677C276.973 289.116 277.708 288.944 278.249 289.293L280.115 290.497C279.96 290.678 279.815 290.877 279.692 291.094C279.405 291.599 279.236 292.197 279.136 292.744L276.938 291.327ZM287.892 309.049C287.28 313.563 284.668 315.851 280.131 315.851C275.235 315.851 272.369 313.51 272.061 309.259C271.747 304.931 274.758 297.261 279.029 293.768C279.063 294.145 279.271 294.485 279.602 294.687L280.571 295.278C280.764 295.396 280.98 295.456 281.198 295.456C281.356 295.456 281.516 295.424 281.668 295.36C281.762 295.321 281.848 295.27 281.927 295.212C286.016 298.649 288.518 304.429 287.892 309.049L287.892 309.049ZM302.056 306.086C301.81 306.469 301.72 306.92 301.801 307.361L282.284 294.775C282.321 294.697 282.35 294.615 282.37 294.529C282.49 294.016 282.643 293.607 282.828 293.314C282.969 293.088 283.16 292.853 283.395 292.613L303.112 305.328C302.677 305.436 302.302 305.704 302.056 306.086L302.056 306.086ZM304.469 307.643C304.293 307.915 304.025 308.105 303.714 308.177C303.406 308.248 303.092 308.194 302.832 308.026C302.57 307.858 302.392 307.594 302.33 307.285C302.267 306.972 302.329 306.649 302.505 306.377C302.681 306.104 302.949 305.914 303.26 305.842C303.568 305.772 303.881 305.825 304.142 305.993L304.142 305.993C304.404 306.162 304.582 306.425 304.644 306.735C304.707 307.048 304.645 307.37 304.469 307.643L304.469 307.643Z" fill="black"/>
<path d="M305.169 306.629C305.078 306.176 304.817 305.791 304.433 305.543L284.933 292.968C285.363 292.851 285.749 292.618 286.06 292.303C287.271 293.65 288.9 294.335 290.861 294.335C291.729 294.335 292.662 294.201 293.652 293.931C293.786 293.895 293.869 293.762 293.845 293.626C293.482 291.619 292.565 290.251 291.117 289.55C292.386 288.758 293.35 287.527 294.024 285.844C294.053 285.772 294.049 285.691 294.014 285.622C293.978 285.553 293.915 285.503 293.839 285.485C290.192 284.587 287.419 285.445 285.591 288.034C285.212 287.797 284.772 287.661 284.302 287.661C283.263 287.661 282.322 288.347 281.939 289.355C281.678 289.338 281.41 289.405 281.182 289.56C280.975 289.7 280.733 289.882 280.494 290.105L278.539 288.844C277.75 288.335 276.683 288.579 276.162 289.387C275.641 290.196 275.859 291.268 276.648 291.776L278.87 293.21C276.834 294.81 274.935 297.428 273.495 300.633C272.096 303.75 271.36 306.99 271.527 309.299C271.854 313.803 274.99 316.386 280.131 316.386C282.535 316.386 284.46 315.763 285.854 314.534C287.236 313.314 288.1 311.493 288.422 309.121C288.736 306.802 288.295 304.091 287.179 301.488C286.399 299.668 285.345 298.002 284.077 296.568L302.541 308.476C302.925 308.675 303.35 308.766 303.834 308.699C304.281 308.595 304.666 308.324 304.918 307.933C305.17 307.543 305.259 307.08 305.169 306.63L305.169 306.629ZM293.271 293.478C290.289 294.231 287.979 293.693 286.4 291.88C286.588 291.59 286.725 291.26 286.794 290.903C287.837 291.751 289.186 292.296 290.814 292.522C290.827 292.524 290.839 292.525 290.851 292.525C290.983 292.525 291.098 292.428 291.116 292.294C291.137 292.148 291.034 292.013 290.888 291.993C289.445 291.792 288.242 291.33 287.299 290.618C288.522 290.572 289.595 290.327 290.524 289.877C291.977 290.422 292.878 291.603 293.271 293.478L293.271 293.478ZM293.407 285.933C292.182 288.738 290.025 290.101 286.835 290.092C286.812 289.842 286.756 289.602 286.672 289.376C287.91 288.542 289.359 287.952 290.983 287.622C291.128 287.592 291.222 287.451 291.192 287.306C291.163 287.162 291.022 287.068 290.877 287.098C289.211 287.437 287.718 288.039 286.436 288.89C286.316 288.696 286.174 288.519 286.013 288.363C287.672 285.995 290.096 285.198 293.407 285.933L293.407 285.933ZM284.302 288.196C285.41 288.196 286.312 289.165 286.312 290.357C286.312 291.548 285.41 292.517 284.302 292.517L283.789 292.23C283.984 292.008 284.092 291.721 284.088 291.421C284.083 291.072 283.929 290.741 283.664 290.514L282.645 289.641C282.586 289.59 282.522 289.546 282.455 289.509C282.768 288.726 283.498 288.196 284.302 288.196ZM281.482 290.003C281.597 289.925 281.729 289.886 281.861 289.886C282.017 289.886 282.173 289.941 282.298 290.047L283.316 290.92C283.464 291.047 283.551 291.232 283.553 291.428C283.556 291.622 283.478 291.801 283.335 291.93C282.922 292.303 282.599 292.673 282.375 293.029C282.159 293.373 281.983 293.837 281.85 294.407C281.802 294.616 281.66 294.783 281.461 294.866C281.259 294.951 281.036 294.934 280.849 294.82L279.88 294.23C279.661 294.096 279.539 293.854 279.561 293.596C279.607 293.072 279.745 292.083 280.157 291.358C280.507 290.742 281.071 290.281 281.482 290.003ZM276.938 291.327C276.397 290.978 276.25 290.237 276.612 289.677C276.973 289.116 277.708 288.944 278.249 289.293L280.115 290.497C279.96 290.678 279.815 290.877 279.692 291.094C279.405 291.599 279.236 292.197 279.136 292.744L276.938 291.327ZM287.892 309.049C287.28 313.563 284.668 315.851 280.131 315.851C275.235 315.851 272.369 313.51 272.061 309.259C271.747 304.931 274.758 297.261 279.029 293.768C279.063 294.145 279.271 294.485 279.602 294.687L280.571 295.278C280.764 295.396 280.98 295.456 281.198 295.456C281.356 295.456 281.516 295.424 281.668 295.36C281.762 295.321 281.848 295.27 281.927 295.212C286.016 298.649 288.518 304.429 287.892 309.049L287.892 309.049ZM302.056 306.086C301.81 306.469 301.72 306.92 301.801 307.361L282.284 294.775C282.321 294.697 282.35 294.615 282.37 294.529C282.49 294.016 282.643 293.607 282.828 293.314C282.969 293.088 283.16 292.853 283.395 292.613L303.112 305.328C302.677 305.436 302.302 305.704 302.056 306.086L302.056 306.086ZM304.469 307.643C304.293 307.915 304.025 308.105 303.714 308.177C303.406 308.248 303.092 308.194 302.832 308.026C302.57 307.858 302.392 307.594 302.33 307.285C302.267 306.972 302.329 306.649 302.505 306.377C302.681 306.104 302.949 305.914 303.26 305.842C303.568 305.772 303.881 305.825 304.142 305.993L304.142 305.993C304.404 306.162 304.582 306.425 304.644 306.735C304.707 307.048 304.645 307.37 304.469 307.643L304.469 307.643Z" stroke="black" stroke-width="0.4" mask="url(#path-18-outside-1_438_806)"/>
<path d="M285.114 306.359L285.114 306.359C285.316 306.381 285.461 306.562 285.439 306.764M285.114 306.359L282.673 311.247L282.617 311.164L282.673 311.247M285.114 306.359C284.911 306.337 284.731 306.482 284.708 306.684L284.708 306.684M285.114 306.359L284.708 306.684M285.439 306.764L285.34 306.753L285.439 306.764C285.439 306.764 285.439 306.764 285.439 306.764ZM285.439 306.764C285.233 308.635 284.3 310.144 282.673 311.247M282.673 311.247C282.61 311.29 282.538 311.31 282.467 311.31M282.673 311.247L282.467 311.31M284.708 306.684C284.528 308.33 283.707 309.659 282.261 310.638L282.261 310.638M284.708 306.684L282.261 310.638M282.261 310.638C282.093 310.752 282.049 310.981 282.162 311.149M282.261 310.638L282.162 311.149M282.162 311.149C282.233 311.253 282.349 311.31 282.467 311.31M282.162 311.149L282.467 311.31M285.103 306.458L285.103 306.458L285.103 306.458Z" fill="black" stroke="black" stroke-width="0.2"/>
<circle cx="325.203" cy="370.758" r="23.5" fill="white"/>
<path fill-rule="evenodd" clip-rule="evenodd" d="M314.451 362.2L316.25 379.72C316.357 380.76 317.247 381.545 318.322 381.545H332.085C333.159 381.545 334.049 380.76 334.156 379.72L335.956 362.2C336.015 361.623 335.827 361.068 335.427 360.638C335.028 360.208 334.48 359.971 333.884 359.971H316.522C315.927 359.971 315.379 360.208 314.979 360.638C314.579 361.068 314.392 361.623 314.451 362.2M316.522 359.079H333.884C335.658 359.079 337.044 360.57 336.868 362.289L335.069 379.808C334.915 381.301 333.625 382.438 332.085 382.438H318.322C316.781 382.438 315.491 381.301 315.338 379.808L313.539 362.289C313.362 360.57 314.748 359.079 316.522 359.079M319.61 364.034C321.147 362.806 323.097 362.071 325.218 362.071C327.339 362.071 329.288 362.806 330.826 364.034C331.244 364.369 331.278 364.993 330.899 365.371L327.896 368.373C327.723 368.546 327.491 368.638 327.258 368.638C327.1 368.638 326.941 368.596 326.8 368.507C326.341 368.221 325.799 368.056 325.218 368.056C324.637 368.056 324.095 368.221 323.636 368.507C323.494 368.595 323.336 368.638 323.178 368.638C322.945 368.638 322.713 368.546 322.539 368.373L319.536 365.371C319.157 364.993 319.192 364.369 319.61 364.034ZM323.177 367.715C323.701 367.394 324.292 367.204 324.904 367.155L325.218 365.064L325.532 367.155C326.143 367.204 326.735 367.394 327.259 367.715L330.239 364.737C328.799 363.592 327.063 362.986 325.218 362.986C323.372 362.986 321.637 363.592 320.196 364.737L323.177 367.715Z" fill="black"/>
<circle cx="23.5" cy="23.5" r="23.5" transform="matrix(1 0 0 -1 301.703 471.461)" fill="white"/>
<path fill-rule="evenodd" clip-rule="evenodd" d="M314.451 456.519L316.25 439C316.357 437.959 317.247 437.174 318.322 437.174H332.085C333.159 437.174 334.049 437.959 334.156 439L335.956 456.519C336.015 457.096 335.827 457.651 335.427 458.081C335.028 458.511 334.48 458.748 333.884 458.748H316.522C315.927 458.748 315.379 458.511 314.979 458.081C314.579 457.651 314.392 457.096 314.451 456.519M316.522 459.641H333.884C335.658 459.641 337.044 458.149 336.868 456.43L335.069 438.911C334.915 437.418 333.625 436.282 332.085 436.282H318.322C316.781 436.282 315.491 437.418 315.338 438.911L313.539 456.43C313.362 458.149 314.748 459.641 316.522 459.641M319.61 454.685C321.147 455.914 323.097 456.648 325.218 456.648C327.339 456.648 329.288 455.914 330.826 454.685C331.244 454.35 331.278 453.726 330.899 453.348L327.896 450.347C327.723 450.173 327.491 450.082 327.258 450.082C327.1 450.082 326.941 450.124 326.8 450.212C326.341 450.498 325.799 450.663 325.218 450.663C324.637 450.663 324.095 450.498 323.636 450.212C323.494 450.124 323.336 450.082 323.178 450.082C322.945 450.082 322.713 450.173 322.539 450.347L319.536 453.348C319.157 453.726 319.192 454.35 319.61 454.685ZM323.177 451.004C323.701 451.325 324.292 451.515 324.904 451.564L325.218 453.656L325.532 451.564C326.143 451.515 326.735 451.325 327.259 451.004L330.239 453.982C328.799 455.128 327.063 455.733 325.218 455.733C323.372 455.733 321.637 455.128 320.196 453.982L323.177 451.004Z" fill="black"/>
</g>
<defs>
<linearGradient id="paint0_linear_438_806" x1="200.168" y1="-18.4207" x2="200.168" y2="459.82" gradientUnits="userSpaceOnUse">
<stop stop-color="#F4C2E2"/>
<stop offset="1" stop-color="#C7238B"/>
</linearGradient>
<linearGradient id="paint1_linear_438_806" x1="200.168" y1="-66.2013" x2="200.168" y2="446.82" gradientUnits="userSpaceOnUse">
<stop stop-color="#477BFF"/>
<stop offset="1" stop-color="#C7238B"/>
</linearGradient>
</defs>
</svg>
