<svg width="346" height="87" viewBox="0 0 346 87" fill="none" xmlns="http://www.w3.org/2000/svg">
<path d="M312.441 25.4995L312.941 25.4995L312.941 24.4995L312.441 24.4995L312.441 25.4995ZM33.1758 25.4995L312.441 25.4995L312.441 24.4995L33.1758 24.4995L33.1758 25.4995Z" fill="#D3F3FF" fill-opacity="0.9"/>
<circle cx="221.91" cy="23.9253" r="21" fill="url(#paint0_linear_438_805)"/>
<path d="M195.58 72.6953C195.58 73.2553 195.445 73.7803 195.175 74.2703C194.915 74.7603 194.5 75.1553 193.93 75.4553C193.37 75.7553 192.66 75.9053 191.8 75.9053H190.045V79.9253H187.945V69.4553H191.8C192.61 69.4553 193.3 69.5953 193.87 69.8753C194.44 70.1553 194.865 70.5403 195.145 71.0303C195.435 71.5203 195.58 72.0753 195.58 72.6953ZM191.71 74.2103C192.29 74.2103 192.72 74.0803 193 73.8203C193.28 73.5503 193.42 73.1753 193.42 72.6953C193.42 71.6753 192.85 71.1653 191.71 71.1653H190.045V74.2103H191.71ZM196.531 75.7403C196.531 74.9003 196.696 74.1553 197.026 73.5053C197.366 72.8553 197.821 72.3553 198.391 72.0053C198.971 71.6553 199.616 71.4803 200.326 71.4803C200.946 71.4803 201.486 71.6053 201.946 71.8553C202.416 72.1053 202.791 72.4203 203.071 72.8003V71.6153H205.186V79.9253H203.071V78.7103C202.801 79.1003 202.426 79.4253 201.946 79.6853C201.476 79.9353 200.931 80.0603 200.311 80.0603C199.611 80.0603 198.971 79.8803 198.391 79.5203C197.821 79.1603 197.366 78.6553 197.026 78.0053C196.696 77.3453 196.531 76.5903 196.531 75.7403ZM203.071 75.7703C203.071 75.2603 202.971 74.8253 202.771 74.4653C202.571 74.0953 202.301 73.8153 201.961 73.6253C201.621 73.4253 201.256 73.3253 200.866 73.3253C200.476 73.3253 200.116 73.4203 199.786 73.6103C199.456 73.8003 199.186 74.0803 198.976 74.4503C198.776 74.8103 198.676 75.2403 198.676 75.7403C198.676 76.2403 198.776 76.6803 198.976 77.0603C199.186 77.4303 199.456 77.7153 199.786 77.9153C200.126 78.1153 200.486 78.2153 200.866 78.2153C201.256 78.2153 201.621 78.1203 201.961 77.9303C202.301 77.7303 202.571 77.4503 202.771 77.0903C202.971 76.7203 203.071 76.2803 203.071 75.7703ZM215.187 71.6153L210.042 83.8553H207.807L209.607 79.7153L206.277 71.6153H208.632L210.777 77.4203L212.952 71.6153H215.187ZM226.639 71.4953C227.659 71.4953 228.479 71.8103 229.099 72.4403C229.729 73.0603 230.044 73.9303 230.044 75.0503V79.9253H227.944V75.3353C227.944 74.6853 227.779 74.1903 227.449 73.8503C227.119 73.5003 226.669 73.3253 226.099 73.3253C225.529 73.3253 225.074 73.5003 224.734 73.8503C224.404 74.1903 224.239 74.6853 224.239 75.3353V79.9253H222.139V75.3353C222.139 74.6853 221.974 74.1903 221.644 73.8503C221.314 73.5003 220.864 73.3253 220.294 73.3253C219.714 73.3253 219.254 73.5003 218.914 73.8503C218.584 74.1903 218.419 74.6853 218.419 75.3353V79.9253H216.319V71.6153H218.419V72.6203C218.689 72.2703 219.034 71.9953 219.454 71.7953C219.884 71.5953 220.354 71.4953 220.864 71.4953C221.514 71.4953 222.094 71.6353 222.604 71.9153C223.114 72.1853 223.509 72.5753 223.789 73.0853C224.059 72.6053 224.449 72.2203 224.959 71.9303C225.479 71.6403 226.039 71.4953 226.639 71.4953ZM239.762 75.5903C239.762 75.8903 239.742 76.1603 239.702 76.4003H233.627C233.677 77.0003 233.887 77.4703 234.257 77.8103C234.627 78.1503 235.082 78.3203 235.622 78.3203C236.402 78.3203 236.957 77.9853 237.287 77.3153H239.552C239.312 78.1153 238.852 78.7753 238.172 79.2953C237.492 79.8053 236.657 80.0603 235.667 80.0603C234.867 80.0603 234.147 79.8853 233.507 79.5353C232.877 79.1753 232.382 78.6703 232.022 78.0203C231.672 77.3703 231.497 76.6203 231.497 75.7703C231.497 74.9103 231.672 74.1553 232.022 73.5053C232.372 72.8553 232.862 72.3553 233.492 72.0053C234.122 71.6553 234.847 71.4803 235.667 71.4803C236.457 71.4803 237.162 71.6503 237.782 71.9903C238.412 72.3303 238.897 72.8153 239.237 73.4453C239.587 74.0653 239.762 74.7803 239.762 75.5903ZM237.587 74.9903C237.577 74.4503 237.382 74.0203 237.002 73.7003C236.622 73.3703 236.157 73.2053 235.607 73.2053C235.087 73.2053 234.647 73.3653 234.287 73.6853C233.937 73.9953 233.722 74.4303 233.642 74.9903H237.587ZM245.9 71.4953C246.89 71.4953 247.69 71.8103 248.3 72.4403C248.91 73.0603 249.215 73.9303 249.215 75.0503V79.9253H247.115V75.3353C247.115 74.6753 246.95 74.1703 246.62 73.8203C246.29 73.4603 245.84 73.2803 245.27 73.2803C244.69 73.2803 244.23 73.4603 243.89 73.8203C243.56 74.1703 243.395 74.6753 243.395 75.3353V79.9253H241.295V71.6153H243.395V72.6503C243.675 72.2903 244.03 72.0103 244.46 71.8103C244.9 71.6003 245.38 71.4953 245.9 71.4953ZM253.657 73.3403V77.3603C253.657 77.6403 253.722 77.8453 253.852 77.9753C253.992 78.0953 254.222 78.1553 254.542 78.1553H255.517V79.9253H254.197C252.427 79.9253 251.542 79.0653 251.542 77.3453V73.3403H250.552V71.6153H251.542V69.5603H253.657V71.6153H255.517V73.3403H253.657Z" fill="#938F99"/>
<circle cx="316.116" cy="23.9253" r="21" fill="#DDF6FF"/>
<path d="M293.396 79.9253L290.801 75.5453H288.866V79.9253H287.816V69.4403H290.966C292.136 69.4403 293.021 69.7203 293.621 70.2803C294.231 70.8403 294.536 71.5753 294.536 72.4853C294.536 73.2453 294.316 73.8953 293.876 74.4353C293.446 74.9653 292.806 75.3103 291.956 75.4703L294.656 79.9253H293.396ZM288.866 74.6903H290.981C291.801 74.6903 292.416 74.4903 292.826 74.0903C293.246 73.6903 293.456 73.1553 293.456 72.4853C293.456 71.7953 293.256 71.2653 292.856 70.8953C292.456 70.5153 291.826 70.3253 290.966 70.3253H288.866V74.6903ZM304.03 75.4103C304.03 75.7703 304.02 76.0453 304 76.2353H297.205C297.235 76.8553 297.385 77.3853 297.655 77.8253C297.925 78.2653 298.28 78.6003 298.72 78.8303C299.16 79.0503 299.64 79.1603 300.16 79.1603C300.84 79.1603 301.41 78.9953 301.87 78.6653C302.34 78.3353 302.65 77.8903 302.8 77.3303H303.91C303.71 78.1303 303.28 78.7853 302.62 79.2953C301.97 79.7953 301.15 80.0453 300.16 80.0453C299.39 80.0453 298.7 79.8753 298.09 79.5353C297.48 79.1853 297 78.6953 296.65 78.0653C296.31 77.4253 296.14 76.6803 296.14 75.8303C296.14 74.9803 296.31 74.2353 296.65 73.5953C296.99 72.9553 297.465 72.4653 298.075 72.1253C298.685 71.7853 299.38 71.6153 300.16 71.6153C300.94 71.6153 301.62 71.7853 302.2 72.1253C302.79 72.4653 303.24 72.9253 303.55 73.5053C303.87 74.0753 304.03 74.7103 304.03 75.4103ZM302.965 75.3803C302.975 74.7703 302.85 74.2503 302.59 73.8203C302.34 73.3903 301.995 73.0653 301.555 72.8453C301.115 72.6253 300.635 72.5153 300.115 72.5153C299.335 72.5153 298.67 72.7653 298.12 73.2653C297.57 73.7653 297.265 74.4703 297.205 75.3803H302.965ZM308.861 78.9053L311.621 71.7353H312.731L309.446 79.9253H308.261L304.976 71.7353H306.101L308.861 78.9053ZM314.679 70.1903C314.469 70.1903 314.289 70.1153 314.139 69.9653C313.989 69.8153 313.914 69.6303 313.914 69.4103C313.914 69.1903 313.989 69.0103 314.139 68.8703C314.289 68.7203 314.469 68.6453 314.679 68.6453C314.889 68.6453 315.069 68.7203 315.219 68.8703C315.369 69.0103 315.444 69.1903 315.444 69.4103C315.444 69.6303 315.369 69.8153 315.219 69.9653C315.069 70.1153 314.889 70.1903 314.679 70.1903ZM315.204 71.7353V79.9253H314.154V71.7353H315.204ZM324.992 75.4103C324.992 75.7703 324.982 76.0453 324.962 76.2353H318.167C318.197 76.8553 318.347 77.3853 318.617 77.8253C318.887 78.2653 319.242 78.6003 319.682 78.8303C320.122 79.0503 320.602 79.1603 321.122 79.1603C321.802 79.1603 322.372 78.9953 322.832 78.6653C323.302 78.3353 323.612 77.8903 323.762 77.3303H324.872C324.672 78.1303 324.242 78.7853 323.582 79.2953C322.932 79.7953 322.112 80.0453 321.122 80.0453C320.352 80.0453 319.662 79.8753 319.052 79.5353C318.442 79.1853 317.962 78.6953 317.612 78.0653C317.272 77.4253 317.102 76.6803 317.102 75.8303C317.102 74.9803 317.272 74.2353 317.612 73.5953C317.952 72.9553 318.427 72.4653 319.037 72.1253C319.647 71.7853 320.342 71.6153 321.122 71.6153C321.902 71.6153 322.582 71.7853 323.162 72.1253C323.752 72.4653 324.202 72.9253 324.512 73.5053C324.832 74.0753 324.992 74.7103 324.992 75.4103ZM323.927 75.3803C323.937 74.7703 323.812 74.2503 323.552 73.8203C323.302 73.3903 322.957 73.0653 322.517 72.8453C322.077 72.6253 321.597 72.5153 321.077 72.5153C320.297 72.5153 319.632 72.7653 319.082 73.2653C318.532 73.7653 318.227 74.4703 318.167 75.3803H323.927ZM337.713 71.7353L335.148 79.9253H334.098L331.833 73.0553L329.568 79.9253H328.503L325.938 71.7353H327.003L329.043 78.8603L331.338 71.7353H332.388L334.653 78.8753L336.678 71.7353H337.713ZM341.964 80.0453C341.024 80.0453 340.254 79.8303 339.654 79.4003C339.064 78.9603 338.734 78.3653 338.664 77.6153H339.744C339.794 78.0753 340.009 78.4503 340.389 78.7403C340.779 79.0203 341.299 79.1603 341.949 79.1603C342.519 79.1603 342.964 79.0253 343.284 78.7553C343.614 78.4853 343.779 78.1503 343.779 77.7503C343.779 77.4703 343.689 77.2403 343.509 77.0603C343.329 76.8803 343.099 76.7403 342.819 76.6403C342.549 76.5303 342.179 76.4153 341.709 76.2953C341.099 76.1353 340.604 75.9753 340.224 75.8153C339.844 75.6553 339.519 75.4203 339.249 75.1103C338.989 74.7903 338.859 74.3653 338.859 73.8353C338.859 73.4353 338.979 73.0653 339.219 72.7253C339.459 72.3853 339.799 72.1153 340.239 71.9153C340.679 71.7153 341.179 71.6153 341.739 71.6153C342.619 71.6153 343.329 71.8403 343.869 72.2903C344.409 72.7303 344.699 73.3403 344.739 74.1203H343.689C343.659 73.6403 343.469 73.2553 343.119 72.9653C342.779 72.6653 342.309 72.5153 341.709 72.5153C341.179 72.5153 340.749 72.6403 340.419 72.8903C340.089 73.1403 339.924 73.4503 339.924 73.8203C339.924 74.1403 340.019 74.4053 340.209 74.6153C340.409 74.8153 340.654 74.9753 340.944 75.0953C341.234 75.2053 341.624 75.3303 342.114 75.4703C342.704 75.6303 343.174 75.7853 343.524 75.9353C343.874 76.0853 344.174 76.3053 344.424 76.5953C344.674 76.8853 344.804 77.2703 344.814 77.7503C344.814 78.1903 344.694 78.5853 344.454 78.9353C344.214 79.2753 343.879 79.5453 343.449 79.7453C343.019 79.9453 342.524 80.0453 341.964 80.0453Z" fill="#B3B3B3"/>
<g filter="url(#filter0_d_438_805)">
<circle cx="33" cy="24.9998" r="22.5" transform="rotate(-1.67848 33 24.9998)" fill="url(#paint1_linear_438_805)" shape-rendering="crispEdges"/>
</g>
<path d="M8.415 73.68C8.415 74.21 8.29 74.71 8.04 75.18C7.79 75.65 7.39 76.035 6.84 76.335C6.29 76.625 5.585 76.77 4.725 76.77H2.835V81H1.125V70.575H4.725C5.525 70.575 6.2 70.715 6.75 70.995C7.31 71.265 7.725 71.635 7.995 72.105C8.275 72.575 8.415 73.1 8.415 73.68ZM4.725 75.375C5.375 75.375 5.86 75.23 6.18 74.94C6.5 74.64 6.66 74.22 6.66 73.68C6.66 72.54 6.015 71.97 4.725 71.97H2.835V75.375H4.725ZM17.6209 76.665C17.6209 76.975 17.6009 77.255 17.5609 77.505H11.2459C11.2959 78.165 11.5409 78.695 11.9809 79.095C12.4209 79.495 12.9609 79.695 13.6009 79.695C14.5209 79.695 15.1709 79.31 15.5509 78.54H17.3959C17.1459 79.3 16.6909 79.925 16.0309 80.415C15.3809 80.895 14.5709 81.135 13.6009 81.135C12.8109 81.135 12.1009 80.96 11.4709 80.61C10.8509 80.25 10.3609 79.75 10.0009 79.11C9.6509 78.46 9.4759 77.71 9.4759 76.86C9.4759 76.01 9.6459 75.265 9.9859 74.625C10.3359 73.975 10.8209 73.475 11.4409 73.125C12.0709 72.775 12.7909 72.6 13.6009 72.6C14.3809 72.6 15.0759 72.77 15.6859 73.11C16.2959 73.45 16.7709 73.93 17.1109 74.55C17.4509 75.16 17.6209 75.865 17.6209 76.665ZM15.8359 76.125C15.8259 75.495 15.6009 74.99 15.1609 74.61C14.7209 74.23 14.1759 74.04 13.5259 74.04C12.9359 74.04 12.4309 74.23 12.0109 74.61C11.5909 74.98 11.3409 75.485 11.2609 76.125H15.8359ZM21.0137 73.935C21.2637 73.515 21.5937 73.19 22.0037 72.96C22.4237 72.72 22.9187 72.6 23.4887 72.6V74.37H23.0537C22.3837 74.37 21.8737 74.54 21.5237 74.88C21.1837 75.22 21.0137 75.81 21.0137 76.65V81H19.3037V72.735H21.0137V73.935ZM28.0605 81.135C27.4105 81.135 26.8255 81.02 26.3055 80.79C25.7955 80.55 25.3905 80.23 25.0905 79.83C24.7905 79.42 24.6305 78.965 24.6105 78.465H26.3805C26.4105 78.815 26.5755 79.11 26.8755 79.35C27.1855 79.58 27.5705 79.695 28.0305 79.695C28.5105 79.695 28.8805 79.605 29.1405 79.425C29.4105 79.235 29.5455 78.995 29.5455 78.705C29.5455 78.395 29.3955 78.165 29.0955 78.015C28.8055 77.865 28.3405 77.7 27.7005 77.52C27.0805 77.35 26.5755 77.185 26.1855 77.025C25.7955 76.865 25.4555 76.62 25.1655 76.29C24.8855 75.96 24.7455 75.525 24.7455 74.985C24.7455 74.545 24.8755 74.145 25.1355 73.785C25.3955 73.415 25.7655 73.125 26.2455 72.915C26.7355 72.705 27.2955 72.6 27.9255 72.6C28.8655 72.6 29.6205 72.84 30.1905 73.32C30.7705 73.79 31.0805 74.435 31.1205 75.255H29.4105C29.3805 74.885 29.2305 74.59 28.9605 74.37C28.6905 74.15 28.3255 74.04 27.8655 74.04C27.4155 74.04 27.0705 74.125 26.8305 74.295C26.5905 74.465 26.4705 74.69 26.4705 74.97C26.4705 75.19 26.5505 75.375 26.7105 75.525C26.8705 75.675 27.0655 75.795 27.2955 75.885C27.5255 75.965 27.8655 76.07 28.3155 76.2C28.9155 76.36 29.4055 76.525 29.7855 76.695C30.1755 76.855 30.5105 77.095 30.7905 77.415C31.0705 77.735 31.2155 78.16 31.2255 78.69C31.2255 79.16 31.0955 79.58 30.8355 79.95C30.5755 80.32 30.2055 80.61 29.7255 80.82C29.2555 81.03 28.7005 81.135 28.0605 81.135ZM36.6582 81.135C35.8782 81.135 35.1732 80.96 34.5432 80.61C33.9132 80.25 33.4182 79.75 33.0582 79.11C32.6982 78.46 32.5182 77.71 32.5182 76.86C32.5182 76.02 32.7032 75.275 33.0732 74.625C33.4432 73.975 33.9482 73.475 34.5882 73.125C35.2282 72.775 35.9432 72.6 36.7332 72.6C37.5232 72.6 38.2382 72.775 38.8782 73.125C39.5182 73.475 40.0232 73.975 40.3932 74.625C40.7632 75.275 40.9482 76.02 40.9482 76.86C40.9482 77.7 40.7582 78.445 40.3782 79.095C39.9982 79.745 39.4782 80.25 38.8182 80.61C38.1682 80.96 37.4482 81.135 36.6582 81.135ZM36.6582 79.65C37.0982 79.65 37.5082 79.545 37.8882 79.335C38.2782 79.125 38.5932 78.81 38.8332 78.39C39.0732 77.97 39.1932 77.46 39.1932 76.86C39.1932 76.26 39.0782 75.755 38.8482 75.345C38.6182 74.925 38.3132 74.61 37.9332 74.4C37.5532 74.19 37.1432 74.085 36.7032 74.085C36.2632 74.085 35.8532 74.19 35.4732 74.4C35.1032 74.61 34.8082 74.925 34.5882 75.345C34.3682 75.755 34.2582 76.26 34.2582 76.86C34.2582 77.75 34.4832 78.44 34.9332 78.93C35.3932 79.41 35.9682 79.65 36.6582 79.65ZM46.8087 72.6C47.4587 72.6 48.0387 72.735 48.5487 73.005C49.0687 73.275 49.4737 73.675 49.7637 74.205C50.0537 74.735 50.1987 75.375 50.1987 76.125V81H48.5037V76.38C48.5037 75.64 48.3187 75.075 47.9487 74.685C47.5787 74.285 47.0737 74.085 46.4337 74.085C45.7937 74.085 45.2837 74.285 44.9037 74.685C44.5337 75.075 44.3487 75.64 44.3487 76.38V81H42.6387V72.735H44.3487V73.68C44.6287 73.34 44.9837 73.075 45.4137 72.885C45.8537 72.695 46.3187 72.6 46.8087 72.6ZM51.8099 76.83C51.8099 76 51.9799 75.265 52.3199 74.625C52.6699 73.985 53.1399 73.49 53.7299 73.14C54.3299 72.78 54.9899 72.6 55.7099 72.6C56.3599 72.6 56.9249 72.73 57.4049 72.99C57.8949 73.24 58.2849 73.555 58.5749 73.935V72.735H60.2999V81H58.5749V79.77C58.2849 80.16 57.8899 80.485 57.3899 80.745C56.8899 81.005 56.3199 81.135 55.6799 81.135C54.9699 81.135 54.3199 80.955 53.7299 80.595C53.1399 80.225 52.6699 79.715 52.3199 79.065C51.9799 78.405 51.8099 77.66 51.8099 76.83ZM58.5749 76.86C58.5749 76.29 58.4549 75.795 58.2149 75.375C57.9849 74.955 57.6799 74.635 57.2999 74.415C56.9199 74.195 56.5099 74.085 56.0699 74.085C55.6299 74.085 55.2199 74.195 54.8399 74.415C54.4599 74.625 54.1499 74.94 53.9099 75.36C53.6799 75.77 53.5649 76.26 53.5649 76.83C53.5649 77.4 53.6799 77.9 53.9099 78.33C54.1499 78.76 54.4599 79.09 54.8399 79.32C55.2299 79.54 55.6399 79.65 56.0699 79.65C56.5099 79.65 56.9199 79.54 57.2999 79.32C57.6799 79.1 57.9849 78.78 58.2149 78.36C58.4549 77.93 58.5749 77.43 58.5749 76.86ZM64.2559 69.9V81H62.5459V69.9H64.2559Z" fill="black"/>
<path d="M46.1423 14.4548L46.1091 14.4736C45.9366 14.5716 45.7667 14.6631 45.5998 14.7529C45.2892 14.92 44.989 15.0816 44.701 15.2695L44.6963 15.2725L44.6963 15.2725L44.015 15.6954L43.3473 16.1448L43.343 16.1477L43.343 16.1477C43.1665 16.2612 42.999 16.3859 42.8235 16.5165C42.7831 16.5465 42.7424 16.5769 42.701 16.6075C42.6163 16.6721 42.5354 16.7312 42.4569 16.7887C42.3229 16.8868 42.1957 16.9799 42.0679 17.0863L42.0651 17.0886L42.065 17.0886L42.009 17.1339C41.6084 17.4574 41.2159 17.7745 40.8443 18.115L40.8378 18.121L40.8377 18.1209C40.5536 18.3633 40.2873 18.6205 40.0153 18.8832C39.9044 18.9903 39.7925 19.0983 39.6781 19.2066C39.5955 19.2922 39.5131 19.377 39.4312 19.4614C39.1415 19.7596 38.8568 20.0527 38.583 20.3591L38.5784 20.3642L38.5784 20.3642C38.3066 20.652 38.0505 20.9519 37.7901 21.2567C37.7049 21.3565 37.6193 21.4568 37.5325 21.5573C37.456 21.653 37.3797 21.7476 37.3038 21.8419C37.0457 22.1622 36.7919 22.4771 36.5509 22.8046L36.5476 22.8091L36.5476 22.8091C36.309 23.1185 36.0829 23.436 35.8539 23.7575C35.7741 23.8696 35.6939 23.9821 35.6127 24.095C35.31 24.5307 35.0141 24.9687 34.7306 25.4139C34.4451 25.8632 34.1652 26.3114 33.9012 26.7682L33.8995 26.7711L33.8995 26.7711C33.6297 27.2238 33.3752 27.687 33.1271 28.1555L33.1261 28.1573C32.8769 28.6187 32.6502 29.0945 32.424 29.5752C32.2009 30.0533 31.9883 30.5364 31.7849 31.0225C31.7308 31.1537 31.6767 31.284 31.6228 31.4139C31.474 31.7724 31.3267 32.127 31.1873 32.4843L31.1854 32.489L31.1854 32.489C30.989 32.9635 30.7921 33.4744 30.6265 33.9137L29.8143 36.0703L29.6616 36.4756L29.387 36.1407L27.9481 34.3857L27.948 34.3856C27.6706 34.0471 27.3906 33.7119 27.1079 33.3787C27.0521 33.3147 26.9967 33.2509 26.9415 33.1874C26.7099 32.9209 26.4821 32.6588 26.2438 32.4063C26.1815 32.341 26.1234 32.2784 26.0668 32.2174C25.9773 32.121 25.8914 32.0285 25.7976 31.935L25.792 31.9294L25.792 31.9293C25.6989 31.8303 25.6066 31.7394 25.5104 31.6449C25.4535 31.5888 25.3953 31.5315 25.3347 31.4704C25.027 31.1678 24.7103 30.8742 24.3846 30.5908L24.3841 30.5904C24.0582 30.3054 23.7239 30.0299 23.3793 29.7682L23.3759 29.7656L23.3759 29.7656C23.246 29.6635 23.1135 29.5684 22.9754 29.4694C22.9347 29.4402 22.8935 29.4107 22.8517 29.3805L22.9982 29.1779M46.1423 14.4548L22.9746 27.6174M46.1423 14.4548L46.1516 14.4449M46.1423 14.4548L46.1516 14.4449M22.9982 29.1779L22.8521 29.3808C22.6973 29.2694 22.5385 29.1645 22.3737 29.0557C22.3533 29.0423 22.3329 29.0288 22.3123 29.0152C21.9399 28.7779 21.5682 28.5474 21.1791 28.3521L21.1755 28.3503L21.1755 28.3503C20.786 28.1467 20.3766 27.9598 19.9665 27.8197C19.9662 27.8196 19.9659 27.8195 19.9656 27.8194L19.955 27.8159L19.9527 27.8151C19.7563 27.7475 19.6498 27.5332 19.7176 27.3348L19.7177 27.3347C19.764 27.1991 19.8806 27.1061 20.0131 27.0839L20.0131 27.0839C20.2859 27.0382 20.5419 27.0294 20.795 27.0299L20.7997 27.0299L20.7997 27.0299C21.0502 27.0351 21.3035 27.0493 21.5567 27.0771L21.5622 27.0777L21.5622 27.0778C22.0555 27.1432 22.5551 27.2355 23.0434 27.3771M22.9982 29.1779C23.0382 29.2068 23.0782 29.2355 23.1183 29.2642C23.2572 29.3638 23.3958 29.4632 23.5305 29.5691L20.0464 27.5828C20.4723 27.7283 20.894 27.9211 21.2913 28.1287C21.6933 28.3305 22.0748 28.5674 22.4484 28.8055C22.4694 28.8194 22.4904 28.8333 22.5114 28.8471C22.6758 28.9556 22.839 29.0633 22.9982 29.1779ZM23.0434 27.3771C23.0437 27.3772 23.044 27.3772 23.0442 27.3773L22.9746 27.6174M23.0434 27.3771C23.0432 27.377 23.0429 27.3769 23.0427 27.3769L22.9746 27.6174M23.0434 27.3771C23.5287 27.5145 24.0035 27.6864 24.4654 27.8855M22.9746 27.6174C23.4489 27.7517 23.9137 27.9199 24.3667 28.1152M24.4654 27.8855C24.4653 27.8854 24.4652 27.8854 24.4651 27.8854L24.3667 28.1152M24.4654 27.8855C24.927 28.0833 25.3782 28.3081 25.8131 28.56C26.2527 28.8067 26.6721 29.0812 27.0786 29.3674L27.0793 29.3679C27.4866 29.6571 27.8803 29.9641 28.2592 30.2869L28.2593 30.287C28.3948 30.4026 28.5287 30.5199 28.6609 30.6389C28.6801 30.6015 28.7005 30.5615 28.7221 30.5197C28.8442 30.2826 29.0024 29.9818 29.1434 29.7332C29.694 28.7467 30.2843 27.7887 30.8897 26.8468L30.8898 26.8468C31.1927 26.3758 31.5012 25.9073 31.8211 25.4458M24.4654 27.8855C24.4654 27.8855 24.4655 27.8855 24.4656 27.8856L24.3667 28.1152M24.3667 28.1152L46.1516 14.4449M29.5803 35.9822L29.3973 35.7589L29.3464 35.894L29.5803 35.9822ZM29.5803 35.9822L29.7736 35.8237L29.6821 35.712L29.5803 35.9822ZM44.5644 15.0601L43.8792 15.4854L43.2077 15.9374C43.0234 16.056 42.8475 16.187 42.6715 16.318C42.6313 16.3479 42.5911 16.3778 42.5508 16.4076C42.4741 16.4661 42.3965 16.523 42.3188 16.5798C42.1797 16.6818 42.0407 16.7836 41.9079 16.8942L41.85 16.9409C41.451 17.2632 41.0529 17.5848 40.6754 17.9307C40.3851 18.1784 40.1102 18.4439 39.8358 18.7089C39.7248 18.8161 39.6139 18.9232 39.5021 19.029C39.4196 19.1145 39.3368 19.1998 39.254 19.2849C38.9637 19.5838 38.6741 19.8819 38.3966 20.1926C38.1202 20.4854 37.8583 20.7919 37.597 21.0979C37.5115 21.198 37.426 21.2981 37.3401 21.3975C37.2641 21.4927 37.1877 21.5875 37.1113 21.6823C36.8525 22.0034 36.5941 22.3241 36.3496 22.6565C36.1079 22.97 35.8778 23.293 35.648 23.6157C35.5683 23.7276 35.4887 23.8394 35.4086 23.9508C35.1042 24.3887 34.8058 24.8303 34.5196 25.2799C34.2336 25.7299 33.9514 26.1817 33.6848 26.6431C33.4121 27.1007 33.1553 27.5679 32.9061 28.0385C32.6533 28.5067 32.4239 28.9882 32.1976 29.469L44.5644 15.0601ZM44.5644 15.0601C44.8605 14.8669 45.1775 14.6962 45.4945 14.5255C45.6592 14.4368 45.8239 14.3481 45.9857 14.2562L44.5644 15.0601ZM46.1516 14.4449C46.2876 14.3435 46.3402 14.1602 46.2735 13.9994L46.2735 13.9994L46.273 13.9981C46.1925 13.807 45.9728 13.7166 45.781 13.7967L45.7809 13.7967C45.6193 13.8643 45.4515 13.9301 45.2807 13.997C44.941 14.1303 44.5897 14.268 44.2532 14.4329C44.1751 14.4692 44.0951 14.5058 44.0143 14.5429C43.8428 14.6214 43.6673 14.7018 43.4971 14.7854L43.497 14.7852L43.4898 14.7891L42.761 15.1768C42.5456 15.2861 42.3384 15.4096 42.1393 15.5282C42.1021 15.5504 42.0651 15.5724 42.0285 15.5941L42.0285 15.5941L42.0257 15.5958C41.9501 15.642 41.869 15.6894 41.7856 15.7383C41.6274 15.8309 41.4608 15.9284 41.3077 16.0308C41.2811 16.0481 41.2544 16.0655 41.2277 16.0829C40.7928 16.3658 40.3492 16.6544 39.9235 16.9695C39.5874 17.2014 39.2639 17.455 38.9468 17.7035C38.8266 17.7977 38.7073 17.8912 38.5886 17.9826L38.5884 17.9824L38.5792 17.9902C38.4688 18.0838 38.3561 18.1779 38.2424 18.2728C37.9293 18.5339 37.6085 18.8015 37.3084 19.0861C36.9831 19.3751 36.6721 19.68 36.3656 19.9804C36.2751 20.0691 36.1849 20.1575 36.0949 20.2449L36.0948 20.2448L36.0885 20.2513C36.0052 20.3383 35.9211 20.4256 35.8365 20.5132C35.535 20.8259 35.2287 21.1434 34.9375 21.4729C34.5538 21.8876 34.1933 22.3198 33.8385 22.7487L33.8368 22.7508C33.4847 23.1862 33.1381 23.6273 32.8022 24.0778L32.8019 24.0781C32.4687 24.5266 32.1377 24.9804 31.8211 25.4458M31.8211 25.4458C31.8214 25.4455 31.8216 25.4452 31.8218 25.4448L32.0273 25.5873L31.8205 25.4467C31.8207 25.4464 31.8209 25.4461 31.8211 25.4458Z" fill="white" stroke="white" stroke-width="0.5"/>
<g filter="url(#filter1_d_438_805)">
<circle cx="125.363" cy="23.9251" r="22.5" transform="rotate(-1.67848 125.363 23.9251)" fill="url(#paint2_linear_438_805)" shape-rendering="crispEdges"/>
</g>
<path d="M117.813 69.5003V79.9253H116.103V75.3653H111.198V79.9253H109.488V69.5003H111.198V73.9703H116.103V69.5003H117.813ZM127.639 75.5903C127.639 75.9003 127.619 76.1803 127.579 76.4303H121.264C121.314 77.0903 121.559 77.6203 121.999 78.0203C122.439 78.4203 122.979 78.6203 123.619 78.6203C124.539 78.6203 125.189 78.2353 125.569 77.4653H127.414C127.164 78.2253 126.709 78.8503 126.049 79.3403C125.399 79.8203 124.589 80.0603 123.619 80.0603C122.829 80.0603 122.119 79.8853 121.489 79.5353C120.869 79.1753 120.379 78.6753 120.019 78.0353C119.669 77.3853 119.494 76.6353 119.494 75.7853C119.494 74.9353 119.664 74.1903 120.004 73.5503C120.354 72.9003 120.839 72.4003 121.459 72.0503C122.089 71.7003 122.809 71.5253 123.619 71.5253C124.399 71.5253 125.094 71.6953 125.704 72.0353C126.314 72.3753 126.789 72.8553 127.129 73.4753C127.469 74.0853 127.639 74.7903 127.639 75.5903ZM125.854 75.0503C125.844 74.4203 125.619 73.9153 125.179 73.5353C124.739 73.1553 124.194 72.9653 123.544 72.9653C122.954 72.9653 122.449 73.1553 122.029 73.5353C121.609 73.9053 121.359 74.4103 121.279 75.0503H125.854ZM131.032 68.8253V79.9253H129.322V68.8253H131.032ZM134.987 72.8753C135.277 72.4953 135.672 72.1753 136.172 71.9153C136.672 71.6553 137.237 71.5253 137.867 71.5253C138.587 71.5253 139.242 71.7053 139.832 72.0653C140.432 72.4153 140.902 72.9103 141.242 73.5503C141.582 74.1903 141.752 74.9253 141.752 75.7553C141.752 76.5853 141.582 77.3303 141.242 77.9903C140.902 78.6403 140.432 79.1503 139.832 79.5203C139.242 79.8803 138.587 80.0603 137.867 80.0603C137.237 80.0603 136.677 79.9353 136.187 79.6853C135.697 79.4253 135.297 79.1053 134.987 78.7253V83.8553H133.277V71.6603H134.987V72.8753ZM140.012 75.7553C140.012 75.1853 139.892 74.6953 139.652 74.2853C139.422 73.8653 139.112 73.5503 138.722 73.3403C138.342 73.1203 137.932 73.0103 137.492 73.0103C137.062 73.0103 136.652 73.1203 136.262 73.3403C135.882 73.5603 135.572 73.8803 135.332 74.3003C135.102 74.7203 134.987 75.2153 134.987 75.7853C134.987 76.3553 135.102 76.8553 135.332 77.2853C135.572 77.7053 135.882 78.0253 136.262 78.2453C136.652 78.4653 137.062 78.5753 137.492 78.5753C137.932 78.5753 138.342 78.4653 138.722 78.2453C139.112 78.0153 139.422 77.6853 139.652 77.2553C139.892 76.8253 140.012 76.3253 140.012 75.7553Z" fill="black"/>
<path d="M138.506 13.3801L138.472 13.3989C138.3 13.4969 138.13 13.5884 137.963 13.6782C137.653 13.8453 137.352 14.0069 137.064 14.1948L137.06 14.1978L137.06 14.1978L136.378 14.6207L135.711 15.0701L135.706 15.073L135.706 15.073C135.53 15.1865 135.362 15.3112 135.187 15.4418C135.146 15.4718 135.106 15.5022 135.064 15.5328C134.98 15.5974 134.899 15.6565 134.82 15.714C134.686 15.8121 134.559 15.9052 134.431 16.0116L134.428 16.0139L134.428 16.0139L134.372 16.0592C133.972 16.3827 133.579 16.6998 133.208 17.0403L133.201 17.0463L133.201 17.0462C132.917 17.2886 132.651 17.5458 132.379 17.8085C132.268 17.9156 132.156 18.0236 132.041 18.1319C131.959 18.2175 131.876 18.3023 131.794 18.3867C131.505 18.6849 131.22 18.978 130.946 19.2844L130.942 19.2895L130.942 19.2895C130.67 19.5773 130.414 19.8772 130.153 20.182C130.068 20.2818 129.983 20.3821 129.896 20.4826C129.819 20.5782 129.743 20.6729 129.667 20.7672C129.409 21.0875 129.155 21.4024 128.914 21.7299L128.911 21.7344L128.911 21.7344C128.672 22.0438 128.446 22.3613 128.217 22.6828C128.137 22.7949 128.057 22.9074 127.976 23.0203C127.673 23.456 127.377 23.894 127.094 24.3392C126.808 24.7885 126.528 25.2367 126.264 25.6935L126.263 25.6964L126.263 25.6964C125.993 26.1491 125.738 26.6123 125.49 27.0808L125.489 27.0826C125.24 27.544 125.013 28.0198 124.787 28.5005C124.564 28.9786 124.352 29.4617 124.148 29.9478C124.094 30.079 124.04 30.2093 123.986 30.3391C123.837 30.6977 123.69 31.0523 123.551 31.4096L123.549 31.4143L123.549 31.4143C123.352 31.8888 123.155 32.3997 122.99 32.839L122.178 34.9956L122.025 35.4009L121.75 35.066L120.311 33.311L120.311 33.3109C120.034 32.9724 119.754 32.6372 119.471 32.304C119.415 32.24 119.36 32.1762 119.305 32.1127C119.073 31.8462 118.845 31.5841 118.607 31.3316C118.545 31.2663 118.487 31.2037 118.43 31.1427C118.341 31.0463 118.255 30.9538 118.161 30.8603L118.155 30.8546L118.155 30.8546C118.062 30.7556 117.97 30.6647 117.874 30.5701C117.817 30.5141 117.759 30.4568 117.698 30.3957C117.39 30.093 117.074 29.7995 116.748 29.5161L116.747 29.5157C116.421 29.2307 116.087 28.9552 115.743 28.6935L115.739 28.6909L115.739 28.6909C115.609 28.5888 115.477 28.4937 115.339 28.3947C115.298 28.3655 115.257 28.336 115.215 28.3058L115.361 28.1032M138.506 13.3801L115.338 26.5427M138.506 13.3801L138.515 13.3702M138.506 13.3801L138.515 13.3702M115.361 28.1032L115.215 28.3061C115.061 28.1947 114.902 28.0898 114.737 27.981C114.717 27.9676 114.696 27.9541 114.676 27.9405C114.303 27.7032 113.931 27.4727 113.542 27.2774L113.539 27.2756L113.539 27.2756C113.149 27.072 112.74 26.8851 112.33 26.745C112.329 26.7449 112.329 26.7448 112.329 26.7447L112.318 26.7412L112.316 26.7404C112.12 26.6728 112.013 26.4585 112.081 26.2601L112.081 26.26C112.127 26.1244 112.244 26.0314 112.376 26.0092L112.376 26.0092C112.649 25.9635 112.905 25.9547 113.158 25.9552L113.163 25.9552L113.163 25.9552C113.413 25.9604 113.667 25.9746 113.92 26.0024L113.926 26.003L113.926 26.0031C114.419 26.0685 114.918 26.1608 115.407 26.3024M115.361 28.1032C115.401 28.1321 115.442 28.1608 115.482 28.1895C115.62 28.2891 115.759 28.3885 115.894 28.4944L112.41 26.5081C112.836 26.6535 113.257 26.8464 113.655 27.054C114.057 27.2558 114.438 27.4927 114.812 27.7308C114.833 27.7447 114.854 27.7585 114.875 27.7724C115.039 27.8809 115.202 27.9886 115.361 28.1032ZM115.407 26.3024C115.407 26.3024 115.407 26.3025 115.408 26.3026L115.338 26.5427M115.407 26.3024C115.406 26.3023 115.406 26.3022 115.406 26.3022L115.338 26.5427M115.407 26.3024C115.892 26.4398 116.367 26.6117 116.829 26.8108M115.338 26.5427C115.812 26.677 116.277 26.8452 116.73 27.0404M116.829 26.8108C116.829 26.8107 116.828 26.8107 116.828 26.8107L116.73 27.0404M116.829 26.8108C117.29 27.0086 117.741 27.2334 118.176 27.4853C118.616 27.732 119.035 28.0065 119.442 28.2927L119.443 28.2932C119.85 28.5824 120.244 28.8894 120.622 29.2122L120.623 29.2123C120.758 29.3279 120.892 29.4452 121.024 29.5642C121.043 29.5268 121.064 29.4868 121.085 29.445C121.208 29.2079 121.366 28.9071 121.507 28.6585C122.057 27.672 122.648 26.714 123.253 25.7721L123.253 25.7721C123.556 25.3011 123.864 24.8326 124.184 24.3711M116.829 26.8108C116.829 26.8108 116.829 26.8108 116.829 26.8109L116.73 27.0404M116.73 27.0404L138.515 13.3702M121.944 34.9075L121.761 34.6842L121.71 34.8193L121.944 34.9075ZM121.944 34.9075L122.137 34.7489L122.045 34.6373L121.944 34.9075ZM136.928 13.9854L136.242 14.4107L135.571 14.8627C135.387 14.9813 135.211 15.1123 135.035 15.2433C134.995 15.2732 134.954 15.3031 134.914 15.3329C134.837 15.3914 134.76 15.4483 134.682 15.5051C134.543 15.6071 134.404 15.7089 134.271 15.8195L134.213 15.8662C133.814 16.1885 133.416 16.5101 133.039 16.856C132.748 17.1037 132.473 17.3692 132.199 17.6342C132.088 17.7414 131.977 17.8485 131.865 17.9543C131.783 18.0398 131.7 18.1251 131.617 18.2102C131.327 18.5091 131.037 18.8072 130.76 19.1178C130.483 19.4107 130.222 19.7172 129.96 20.0232C129.875 20.1233 129.789 20.2234 129.703 20.3228C129.627 20.418 129.551 20.5128 129.475 20.6075C129.216 20.9287 128.957 21.2494 128.713 21.5818C128.471 21.8953 128.241 22.2183 128.011 22.541C127.932 22.6529 127.852 22.7647 127.772 22.876C127.467 23.314 127.169 23.7556 126.883 24.2052C126.597 24.6552 126.315 25.107 126.048 25.5684C125.775 26.0259 125.519 26.4932 125.269 26.9638C125.017 27.432 124.787 27.9135 124.561 28.3943L136.928 13.9854ZM136.928 13.9854C137.224 13.7922 137.541 13.6215 137.858 13.4508C138.022 13.3621 138.187 13.2734 138.349 13.1815L136.928 13.9854ZM138.515 13.3702C138.651 13.2688 138.703 13.0855 138.637 12.9247L138.637 12.9247L138.636 12.9234C138.556 12.7323 138.336 12.6419 138.144 12.7219L138.144 12.722C137.983 12.7896 137.815 12.8554 137.644 12.9223C137.304 13.0556 136.953 13.1933 136.616 13.3581C136.538 13.3945 136.458 13.4311 136.378 13.4682C136.206 13.5467 136.031 13.6271 135.86 13.7106L135.86 13.7105L135.853 13.7144L135.124 14.1021C134.909 14.2114 134.702 14.3349 134.503 14.4535C134.465 14.4757 134.428 14.4977 134.392 14.5194L134.392 14.5194L134.389 14.5211C134.313 14.5672 134.232 14.6147 134.149 14.6635C133.991 14.7562 133.824 14.8537 133.671 14.9561C133.644 14.9734 133.618 14.9908 133.591 15.0081C133.156 15.2911 132.712 15.5797 132.287 15.8948C131.951 16.1267 131.627 16.3802 131.31 16.6288C131.19 16.723 131.071 16.8165 130.952 16.9079L130.952 16.9076L130.942 16.9155C130.832 17.0091 130.719 17.1032 130.606 17.1981C130.293 17.4592 129.972 17.7268 129.672 18.0114C129.346 18.3004 129.035 18.6052 128.729 18.9056C128.638 18.9944 128.548 19.0828 128.458 19.1702L128.458 19.1701L128.452 19.1766C128.368 19.2636 128.284 19.3509 128.2 19.4385C127.898 19.7511 127.592 20.0687 127.301 20.3982C126.917 20.8129 126.557 21.2451 126.202 21.674L126.2 21.6761C125.848 22.1115 125.501 22.5526 125.165 23.0031L125.165 23.0034C124.832 23.4519 124.501 23.9057 124.184 24.3711M124.184 24.3711C124.185 24.3708 124.185 24.3705 124.185 24.3701L124.391 24.5126L124.184 24.372C124.184 24.3717 124.184 24.3714 124.184 24.3711Z" fill="white" stroke="white" stroke-width="0.5"/>
<defs>
<filter id="filter0_d_438_805" x="6.5" y="2.49951" width="53" height="53.0005" filterUnits="userSpaceOnUse" color-interpolation-filters="sRGB">
<feFlood flood-opacity="0" result="BackgroundImageFix"/>
<feColorMatrix in="SourceAlpha" type="matrix" values="0 0 0 0 0 0 0 0 0 0 0 0 0 0 0 0 0 0 127 0" result="hardAlpha"/>
<feOffset dy="4"/>
<feGaussianBlur stdDeviation="2"/>
<feComposite in2="hardAlpha" operator="out"/>
<feColorMatrix type="matrix" values="0 0 0 0 0 0 0 0 0 0 0 0 0 0 0 0 0 0 0.25 0"/>
<feBlend mode="normal" in2="BackgroundImageFix" result="effect1_dropShadow_438_805"/>
<feBlend mode="normal" in="SourceGraphic" in2="effect1_dropShadow_438_805" result="shape"/>
</filter>
<filter id="filter1_d_438_805" x="98.8633" y="1.4248" width="53" height="53.0005" filterUnits="userSpaceOnUse" color-interpolation-filters="sRGB">
<feFlood flood-opacity="0" result="BackgroundImageFix"/>
<feColorMatrix in="SourceAlpha" type="matrix" values="0 0 0 0 0 0 0 0 0 0 0 0 0 0 0 0 0 0 127 0" result="hardAlpha"/>
<feOffset dy="4"/>
<feGaussianBlur stdDeviation="2"/>
<feComposite in2="hardAlpha" operator="out"/>
<feColorMatrix type="matrix" values="0 0 0 0 0 0 0 0 0 0 0 0 0 0 0 0 0 0 0.25 0"/>
<feBlend mode="normal" in2="BackgroundImageFix" result="effect1_dropShadow_438_805"/>
<feBlend mode="normal" in="SourceGraphic" in2="effect1_dropShadow_438_805" result="shape"/>
</filter>
<linearGradient id="paint0_linear_438_805" x1="221.91" y1="2.92529" x2="221.91" y2="44.9253" gradientUnits="userSpaceOnUse">
<stop stop-color="#DDF6FF"/>
<stop offset="1" stop-color="#92EEF7"/>
</linearGradient>
<linearGradient id="paint1_linear_438_805" x1="33" y1="2.49976" x2="33" y2="47.4998" gradientUnits="userSpaceOnUse">
<stop stop-color="#EA0094" stop-opacity="0.81"/>
<stop offset="1" stop-color="#B53586" stop-opacity="0.91"/>
</linearGradient>
<linearGradient id="paint2_linear_438_805" x1="125.363" y1="1.42505" x2="125.363" y2="46.4251" gradientUnits="userSpaceOnUse">
<stop stop-color="#EA0094" stop-opacity="0.81"/>
<stop offset="1" stop-color="#B53586" stop-opacity="0.91"/>
</linearGradient>
</defs>
</svg>
