<svg width="338" height="84" viewBox="0 0 338 84" fill="none" xmlns="http://www.w3.org/2000/svg">
<circle cx="116.584" cy="21.9253" r="21" fill="#DDF6FF" fill-opacity="0.9"/>
<path d="M108.569 67.4403V77.9253H107.519V73.0203H101.834V77.9253H100.784V67.4403H101.834V72.1503H107.519V67.4403H108.569ZM118.375 73.4103C118.375 73.7703 118.365 74.0453 118.345 74.2353H111.55C111.58 74.8553 111.73 75.3853 112 75.8253C112.27 76.2653 112.625 76.6003 113.065 76.8303C113.505 77.0503 113.985 77.1603 114.505 77.1603C115.185 77.1603 115.755 76.9953 116.215 76.6653C116.685 76.3353 116.995 75.8903 117.145 75.3303H118.255C118.055 76.1303 117.625 76.7853 116.965 77.2953C116.315 77.7953 115.495 78.0453 114.505 78.0453C113.735 78.0453 113.045 77.8753 112.435 77.5353C111.825 77.1853 111.345 76.6953 110.995 76.0653C110.655 75.4253 110.485 74.6803 110.485 73.8303C110.485 72.9803 110.655 72.2353 110.995 71.5953C111.335 70.9553 111.81 70.4653 112.42 70.1253C113.03 69.7853 113.725 69.6153 114.505 69.6153C115.285 69.6153 115.965 69.7853 116.545 70.1253C117.135 70.4653 117.585 70.9253 117.895 71.5053C118.215 72.0753 118.375 72.7103 118.375 73.4103ZM117.31 73.3803C117.32 72.7703 117.195 72.2503 116.935 71.8203C116.685 71.3903 116.34 71.0653 115.9 70.8453C115.46 70.6253 114.98 70.5153 114.46 70.5153C113.68 70.5153 113.015 70.7653 112.465 71.2653C111.915 71.7653 111.61 72.4703 111.55 73.3803H117.31ZM121.346 66.8253V77.9253H120.296V66.8253H121.346ZM124.758 71.5353C125.018 70.9853 125.428 70.5303 125.988 70.1703C126.558 69.8003 127.233 69.6153 128.013 69.6153C128.753 69.6153 129.418 69.7903 130.008 70.1403C130.608 70.4803 131.073 70.9703 131.403 71.6103C131.743 72.2403 131.913 72.9753 131.913 73.8153C131.913 74.6553 131.743 75.3953 131.403 76.0353C131.073 76.6753 130.608 77.1703 130.008 77.5203C129.418 77.8703 128.753 78.0453 128.013 78.0453C127.243 78.0453 126.573 77.8653 126.003 77.5053C125.433 77.1353 125.018 76.6753 124.758 76.1253V81.7953H123.723V69.7353H124.758V71.5353ZM130.848 73.8153C130.848 73.1353 130.713 72.5503 130.443 72.0603C130.183 71.5603 129.823 71.1803 129.363 70.9203C128.903 70.6603 128.383 70.5303 127.803 70.5303C127.243 70.5303 126.728 70.6653 126.258 70.9353C125.798 71.2053 125.433 71.5903 125.163 72.0903C124.893 72.5903 124.758 73.1703 124.758 73.8303C124.758 74.4903 124.893 75.0703 125.163 75.5703C125.433 76.0703 125.798 76.4553 126.258 76.7253C126.728 76.9953 127.243 77.1303 127.803 77.1303C128.383 77.1303 128.903 77.0003 129.363 76.7403C129.823 76.4703 130.183 76.0853 130.443 75.5853C130.713 75.0753 130.848 74.4853 130.848 73.8153Z" fill="#B3B3B3"/>
<circle cx="208.289" cy="21.9253" r="21" fill="#DDF6FF"/>
<path d="M182.694 70.4553C182.694 71.3553 182.399 72.0803 181.809 72.6303C181.219 73.1803 180.334 73.4553 179.154 73.4553H177.039V77.9253H175.989V67.4403H179.154C180.324 67.4403 181.204 67.7153 181.794 68.2653C182.394 68.8153 182.694 69.5453 182.694 70.4553ZM179.154 72.5553C180.794 72.5553 181.614 71.8553 181.614 70.4553C181.614 69.7553 181.419 69.2253 181.029 68.8653C180.639 68.5053 180.014 68.3253 179.154 68.3253H177.039V72.5553H179.154ZM183.976 73.8153C183.976 72.9753 184.141 72.2403 184.471 71.6103C184.811 70.9703 185.276 70.4803 185.866 70.1403C186.466 69.7903 187.141 69.6153 187.891 69.6153C188.671 69.6153 189.341 69.7953 189.901 70.1553C190.471 70.5153 190.881 70.9753 191.131 71.5353V69.7353H192.181V77.9253H191.131V76.1103C190.871 76.6703 190.456 77.1353 189.886 77.5053C189.326 77.8653 188.656 78.0453 187.876 78.0453C187.136 78.0453 186.466 77.8703 185.866 77.5203C185.276 77.1703 184.811 76.6753 184.471 76.0353C184.141 75.3953 183.976 74.6553 183.976 73.8153ZM191.131 73.8303C191.131 73.1703 190.996 72.5903 190.726 72.0903C190.456 71.5903 190.086 71.2053 189.616 70.9353C189.156 70.6653 188.646 70.5303 188.086 70.5303C187.506 70.5303 186.986 70.6603 186.526 70.9203C186.066 71.1803 185.701 71.5603 185.431 72.0603C185.171 72.5503 185.041 73.1353 185.041 73.8153C185.041 74.4853 185.171 75.0753 185.431 75.5853C185.701 76.0853 186.066 76.4703 186.526 76.7403C186.986 77.0003 187.506 77.1303 188.086 77.1303C188.646 77.1303 189.156 76.9953 189.616 76.7253C190.086 76.4553 190.456 76.0703 190.726 75.5703C190.996 75.0703 191.131 74.4903 191.131 73.8303ZM201.328 69.7353L196.468 81.7803H195.373L196.963 77.8803L193.603 69.7353H194.758L197.548 76.7253L200.248 69.7353H201.328ZM212.502 69.5853C213.462 69.5853 214.242 69.8903 214.842 70.5003C215.452 71.1003 215.757 71.9753 215.757 73.1253V77.9253H214.722V73.2453C214.722 72.3553 214.507 71.6753 214.077 71.2053C213.647 70.7353 213.062 70.5003 212.322 70.5003C211.552 70.5003 210.937 70.7553 210.477 71.2653C210.017 71.7753 209.787 72.5153 209.787 73.4853V77.9253H208.752V73.2453C208.752 72.3553 208.537 71.6753 208.107 71.2053C207.677 70.7353 207.087 70.5003 206.337 70.5003C205.567 70.5003 204.952 70.7553 204.492 71.2653C204.032 71.7753 203.802 72.5153 203.802 73.4853V77.9253H202.752V69.7353H203.802V71.1453C204.062 70.6353 204.432 70.2503 204.912 69.9903C205.392 69.7203 205.927 69.5853 206.517 69.5853C207.227 69.5853 207.847 69.7553 208.377 70.0953C208.917 70.4353 209.307 70.9353 209.547 71.5953C209.767 70.9453 210.142 70.4503 210.672 70.1103C211.212 69.7603 211.822 69.5853 212.502 69.5853ZM225.499 73.4103C225.499 73.7703 225.489 74.0453 225.469 74.2353H218.674C218.704 74.8553 218.854 75.3853 219.124 75.8253C219.394 76.2653 219.749 76.6003 220.189 76.8303C220.629 77.0503 221.109 77.1603 221.629 77.1603C222.309 77.1603 222.879 76.9953 223.339 76.6653C223.809 76.3353 224.119 75.8903 224.269 75.3303H225.379C225.179 76.1303 224.749 76.7853 224.089 77.2953C223.439 77.7953 222.619 78.0453 221.629 78.0453C220.859 78.0453 220.169 77.8753 219.559 77.5353C218.949 77.1853 218.469 76.6953 218.119 76.0653C217.779 75.4253 217.609 74.6803 217.609 73.8303C217.609 72.9803 217.779 72.2353 218.119 71.5953C218.459 70.9553 218.934 70.4653 219.544 70.1253C220.154 69.7853 220.849 69.6153 221.629 69.6153C222.409 69.6153 223.089 69.7853 223.669 70.1253C224.259 70.4653 224.709 70.9253 225.019 71.5053C225.339 72.0753 225.499 72.7103 225.499 73.4103ZM224.434 73.3803C224.444 72.7703 224.319 72.2503 224.059 71.8203C223.809 71.3903 223.464 71.0653 223.024 70.8453C222.584 70.6253 222.104 70.5153 221.584 70.5153C220.804 70.5153 220.139 70.7653 219.589 71.2653C219.039 71.7653 218.734 72.4703 218.674 73.3803H224.434ZM231.26 69.5853C232.24 69.5853 233.04 69.8903 233.66 70.5003C234.28 71.1003 234.59 71.9753 234.59 73.1253V77.9253H233.555V73.2453C233.555 72.3553 233.33 71.6753 232.88 71.2053C232.44 70.7353 231.835 70.5003 231.065 70.5003C230.275 70.5003 229.645 70.7503 229.175 71.2503C228.705 71.7503 228.47 72.4853 228.47 73.4553V77.9253H227.42V69.7353H228.47V71.1303C228.73 70.6303 229.105 70.2503 229.595 69.9903C230.085 69.7203 230.64 69.5853 231.26 69.5853ZM238.277 70.6203V75.7053C238.277 76.2053 238.372 76.5503 238.562 76.7403C238.752 76.9303 239.087 77.0253 239.567 77.0253H240.527V77.9253H239.402C238.662 77.9253 238.112 77.7553 237.752 77.4153C237.392 77.0653 237.212 76.4953 237.212 75.7053V70.6203H236.072V69.7353H237.212V67.6803H238.277V69.7353H240.527V70.6203H238.277Z" fill="#B3B3B3"/>
<circle cx="308.495" cy="21.9253" r="21" fill="#DDF6FF"/>
<path d="M285.775 77.9253L283.18 73.5453H281.245V77.9253H280.195V67.4403H283.345C284.515 67.4403 285.4 67.7203 286 68.2803C286.61 68.8403 286.915 69.5753 286.915 70.4853C286.915 71.2453 286.695 71.8953 286.255 72.4353C285.825 72.9653 285.185 73.3103 284.335 73.4703L287.035 77.9253H285.775ZM281.245 72.6903H283.36C284.18 72.6903 284.795 72.4903 285.205 72.0903C285.625 71.6903 285.835 71.1553 285.835 70.4853C285.835 69.7953 285.635 69.2653 285.235 68.8953C284.835 68.5153 284.205 68.3253 283.345 68.3253H281.245V72.6903ZM296.409 73.4103C296.409 73.7703 296.399 74.0453 296.379 74.2353H289.584C289.614 74.8553 289.764 75.3853 290.034 75.8253C290.304 76.2653 290.659 76.6003 291.099 76.8303C291.539 77.0503 292.019 77.1603 292.539 77.1603C293.219 77.1603 293.789 76.9953 294.249 76.6653C294.719 76.3353 295.029 75.8903 295.179 75.3303H296.289C296.089 76.1303 295.659 76.7853 294.999 77.2953C294.349 77.7953 293.529 78.0453 292.539 78.0453C291.769 78.0453 291.079 77.8753 290.469 77.5353C289.859 77.1853 289.379 76.6953 289.029 76.0653C288.689 75.4253 288.519 74.6803 288.519 73.8303C288.519 72.9803 288.689 72.2353 289.029 71.5953C289.369 70.9553 289.844 70.4653 290.454 70.1253C291.064 69.7853 291.759 69.6153 292.539 69.6153C293.319 69.6153 293.999 69.7853 294.579 70.1253C295.169 70.4653 295.619 70.9253 295.929 71.5053C296.249 72.0753 296.409 72.7103 296.409 73.4103ZM295.344 73.3803C295.354 72.7703 295.229 72.2503 294.969 71.8203C294.719 71.3903 294.374 71.0653 293.934 70.8453C293.494 70.6253 293.014 70.5153 292.494 70.5153C291.714 70.5153 291.049 70.7653 290.499 71.2653C289.949 71.7653 289.644 72.4703 289.584 73.3803H295.344ZM301.24 76.9053L304 69.7353H305.11L301.825 77.9253H300.64L297.355 69.7353H298.48L301.24 76.9053ZM307.058 68.1903C306.848 68.1903 306.668 68.1153 306.518 67.9653C306.368 67.8153 306.293 67.6303 306.293 67.4103C306.293 67.1903 306.368 67.0103 306.518 66.8703C306.668 66.7203 306.848 66.6453 307.058 66.6453C307.268 66.6453 307.448 66.7203 307.598 66.8703C307.748 67.0103 307.823 67.1903 307.823 67.4103C307.823 67.6303 307.748 67.8153 307.598 67.9653C307.448 68.1153 307.268 68.1903 307.058 68.1903ZM307.583 69.7353V77.9253H306.533V69.7353H307.583ZM317.371 73.4103C317.371 73.7703 317.361 74.0453 317.341 74.2353H310.546C310.576 74.8553 310.726 75.3853 310.996 75.8253C311.266 76.2653 311.621 76.6003 312.061 76.8303C312.501 77.0503 312.981 77.1603 313.501 77.1603C314.181 77.1603 314.751 76.9953 315.211 76.6653C315.681 76.3353 315.991 75.8903 316.141 75.3303H317.251C317.051 76.1303 316.621 76.7853 315.961 77.2953C315.311 77.7953 314.491 78.0453 313.501 78.0453C312.731 78.0453 312.041 77.8753 311.431 77.5353C310.821 77.1853 310.341 76.6953 309.991 76.0653C309.651 75.4253 309.481 74.6803 309.481 73.8303C309.481 72.9803 309.651 72.2353 309.991 71.5953C310.331 70.9553 310.806 70.4653 311.416 70.1253C312.026 69.7853 312.721 69.6153 313.501 69.6153C314.281 69.6153 314.961 69.7853 315.541 70.1253C316.131 70.4653 316.581 70.9253 316.891 71.5053C317.211 72.0753 317.371 72.7103 317.371 73.4103ZM316.306 73.3803C316.316 72.7703 316.191 72.2503 315.931 71.8203C315.681 71.3903 315.336 71.0653 314.896 70.8453C314.456 70.6253 313.976 70.5153 313.456 70.5153C312.676 70.5153 312.011 70.7653 311.461 71.2653C310.911 71.7653 310.606 72.4703 310.546 73.3803H316.306ZM330.092 69.7353L327.527 77.9253H326.477L324.212 71.0553L321.947 77.9253H320.882L318.317 69.7353H319.382L321.422 76.8603L323.717 69.7353H324.767L327.032 76.8753L329.057 69.7353H330.092ZM334.343 78.0453C333.403 78.0453 332.633 77.8303 332.033 77.4003C331.443 76.9603 331.113 76.3653 331.043 75.6153H332.123C332.173 76.0753 332.388 76.4503 332.768 76.7403C333.158 77.0203 333.678 77.1603 334.328 77.1603C334.898 77.1603 335.343 77.0253 335.663 76.7553C335.993 76.4853 336.158 76.1503 336.158 75.7503C336.158 75.4703 336.068 75.2403 335.888 75.0603C335.708 74.8803 335.478 74.7403 335.198 74.6403C334.928 74.5303 334.558 74.4153 334.088 74.2953C333.478 74.1353 332.983 73.9753 332.603 73.8153C332.223 73.6553 331.898 73.4203 331.628 73.1103C331.368 72.7903 331.238 72.3653 331.238 71.8353C331.238 71.4353 331.358 71.0653 331.598 70.7253C331.838 70.3853 332.178 70.1153 332.618 69.9153C333.058 69.7153 333.558 69.6153 334.118 69.6153C334.998 69.6153 335.708 69.8403 336.248 70.2903C336.788 70.7303 337.078 71.3403 337.118 72.1203H336.068C336.038 71.6403 335.848 71.2553 335.498 70.9653C335.158 70.6653 334.688 70.5153 334.088 70.5153C333.558 70.5153 333.128 70.6403 332.798 70.8903C332.468 71.1403 332.303 71.4503 332.303 71.8203C332.303 72.1403 332.398 72.4053 332.588 72.6153C332.788 72.8153 333.033 72.9753 333.323 73.0953C333.613 73.2053 334.003 73.3303 334.493 73.4703C335.083 73.6303 335.553 73.7853 335.903 73.9353C336.253 74.0853 336.553 74.3053 336.803 74.5953C337.053 74.8853 337.183 75.2703 337.193 75.7503C337.193 76.1903 337.073 76.5853 336.833 76.9353C336.593 77.2753 336.258 77.5453 335.828 77.7453C335.398 77.9453 334.903 78.0453 334.343 78.0453Z" fill="#B3B3B3"/>
<path d="M26.8825 12.4548L26.8494 12.4736C26.6768 12.5716 26.5069 12.6631 26.34 12.7529C26.0295 12.92 25.7292 13.0816 25.4412 13.2695L25.4365 13.2725L25.4365 13.2725L24.7552 13.6954L24.0876 14.1448L24.0832 14.1477L24.0832 14.1477C23.9067 14.2612 23.7392 14.3859 23.5637 14.5165C23.5233 14.5466 23.4826 14.5769 23.4412 14.6075C23.3565 14.6721 23.2756 14.7312 23.1972 14.7887C23.0631 14.8868 22.9359 14.9799 22.8081 15.0863L22.8053 15.0886L22.8053 15.0886L22.7493 15.1339C22.3487 15.4574 21.9562 15.7745 21.5845 16.115L21.578 16.121L21.5779 16.1209C21.2938 16.3633 21.0276 16.6205 20.7555 16.8832C20.6446 16.9903 20.5328 17.0983 20.4183 17.2066C20.3357 17.2922 20.2534 17.377 20.1715 17.4613C19.8818 17.7595 19.597 18.0527 19.3232 18.3591L19.3187 18.3642L19.3186 18.3642C19.0469 18.652 18.7907 18.9519 18.5304 19.2567C18.4452 19.3565 18.3595 19.4568 18.2727 19.5573C18.1962 19.6529 18.1199 19.7476 18.044 19.8418C17.7859 20.1622 17.5321 20.4771 17.2911 20.8046L17.2878 20.8091L17.2878 20.8091C17.0493 21.1186 16.8232 21.436 16.5941 21.7575C16.5143 21.8696 16.4341 21.9822 16.3529 22.0951C16.0501 22.5308 15.7542 22.9689 15.4707 23.4141L15.2598 23.2799M26.8825 12.4548L6.71434 29.7579C6.61857 29.6562 6.51967 29.5588 6.42068 29.4614C6.36411 29.4057 6.30752 29.3499 6.25146 29.2934C5.93982 28.9868 5.61896 28.6894 5.28893 28.4022C4.95938 28.114 4.62063 27.8348 4.27072 27.5691C4.13604 27.4632 3.99743 27.3638 3.85851 27.2642C3.81847 27.2355 3.7784 27.2068 3.73839 27.1779M26.8825 12.4548L26.8918 12.4449M26.8825 12.4548L26.8918 12.4449M15.2598 23.2799L15.4708 23.4139C15.1853 23.8632 14.9054 24.3114 14.6415 24.7682L14.6398 24.7711L14.6398 24.7711C14.37 25.2238 14.1154 25.687 13.8673 26.1555L13.8664 26.1573C13.6172 26.6187 13.3904 27.0945 13.1642 27.5752C12.9411 28.0532 12.7285 28.5364 12.5251 29.0224C12.4711 29.1536 12.417 29.284 12.363 29.4139C12.2142 29.7724 12.067 30.127 11.9275 30.4843L11.9257 30.489L11.9256 30.489C11.7292 30.9635 11.5324 31.4743 11.3668 31.9137C11.3667 31.9137 11.3667 31.9137 11.3667 31.9137L10.5545 34.0703L10.4018 34.4756L10.1272 34.1407L8.68829 32.3857L8.68823 32.3856C8.41086 32.0471 8.13075 31.7118 7.84812 31.3786C7.79228 31.3146 7.73686 31.2509 7.68166 31.1873C7.45009 30.9209 7.22235 30.6588 6.98407 30.4063C6.92169 30.341 6.86363 30.2784 6.80698 30.2174C6.71752 30.121 6.63161 30.0285 6.53784 29.935L6.53219 29.9294L6.53228 29.9293C6.43916 29.8303 6.34683 29.7395 6.2507 29.6449C6.19379 29.5889 6.13554 29.5316 6.075 29.4705C5.76725 29.1678 5.45051 28.8742 5.12481 28.5908L5.12437 28.5904C4.79845 28.3054 4.46418 28.0299 4.11954 27.7682L4.11613 27.7656L4.11615 27.7656C3.98628 27.6635 3.8537 27.5684 3.71562 27.4694C3.67491 27.4402 3.63371 27.4107 3.59197 27.3805L3.73839 27.1779M15.2598 23.2799C15.5461 22.8303 15.8444 22.3887 16.1488 21.9508L12.2942 28.9266C12.499 28.4373 12.7131 27.9507 12.9379 27.469C13.1641 26.9882 13.3935 26.5067 13.6464 26.0385C13.8956 25.5679 14.1523 25.1007 14.425 24.6431C14.6917 24.1817 14.9738 23.7299 15.2598 23.2799ZM3.73839 27.1779L3.59236 27.3808C3.43755 27.2694 3.27878 27.1646 3.11396 27.0558C3.09358 27.0423 3.0731 27.0288 3.05253 27.0152C2.68017 26.7779 2.3084 26.5474 1.91938 26.3521L1.91576 26.3503L1.91577 26.3503C1.52619 26.1467 1.11675 25.9598 0.70667 25.8197C0.706393 25.8196 0.706115 25.8195 0.705838 25.8194L0.695231 25.8159L0.692921 25.8151C0.496537 25.7475 0.390048 25.5332 0.45787 25.3348L0.457896 25.3347C0.504281 25.1991 0.620867 25.1061 0.753294 25.0839L0.75332 25.0839C1.02618 25.0382 1.28212 25.0294 1.53526 25.0299L1.53996 25.0299L1.53996 25.0299C1.7904 25.0351 2.04378 25.0493 2.29691 25.0771L2.30247 25.0777L2.30246 25.0778C2.79581 25.1432 3.2954 25.2355 3.78378 25.3771M3.73839 27.1779C3.57919 27.0633 3.416 26.9556 3.25167 26.8471C3.23068 26.8333 3.20967 26.8194 3.18865 26.8055C2.81506 26.5674 2.4335 26.3305 2.03156 26.1287C1.63425 25.9211 1.21249 25.7283 0.786628 25.5828L0.774288 25.5787C0.707507 25.5557 0.67145 25.4829 0.694437 25.4156C0.710165 25.3697 0.749847 25.338 0.794611 25.3305C1.04746 25.2881 1.28749 25.2794 1.53477 25.2799C1.77939 25.285 2.02523 25.2988 2.26959 25.3256C2.75497 25.39 3.24179 25.4802 3.71484 25.6174C4.18909 25.7517 4.6539 25.9199 5.10689 26.1152M3.78378 25.3771C3.78401 25.3772 3.78424 25.3773 3.78448 25.3773L3.71486 25.6174L3.78296 25.3769C3.78323 25.377 3.7835 25.377 3.78378 25.3771ZM3.78378 25.3771C4.26906 25.5146 4.74381 25.6864 5.2056 25.8855M5.2056 25.8855C5.20551 25.8854 5.20543 25.8854 5.20535 25.8854L5.10689 26.1152M5.2056 25.8855C5.20568 25.8855 5.20577 25.8855 5.20585 25.8856L5.10689 26.1152M5.2056 25.8855C5.66721 26.0833 6.11843 26.3081 6.55331 26.56M5.10689 26.1152C5.56033 26.3094 6.00314 26.5301 6.42949 26.7772M6.42949 26.7772L6.55181 26.5592C6.55231 26.5594 6.55281 26.5597 6.55331 26.56M6.42949 26.7772C6.85994 27.0187 7.27247 27.2885 7.67485 27.5718C8.07603 27.8566 8.46388 28.159 8.83727 28.4772C8.9883 28.606 9.13722 28.7369 9.28411 28.8701L9.31118 28.8162C9.33534 28.7683 9.36593 28.7079 9.40117 28.6389M6.42949 26.7772L6.55484 26.5609C6.55433 26.5606 6.55382 26.5603 6.55331 26.56M6.55331 26.56C6.99289 26.8067 7.41237 27.0812 7.81879 27.3674L7.81957 27.3679C8.22685 27.6571 8.62051 27.9641 8.99942 28.2869L8.9995 28.287C9.13503 28.4026 9.2689 28.5199 9.40117 28.6389M9.40117 28.6389C9.46539 28.6968 9.52923 28.755 9.5927 28.8137L11.8403 24.982C12.1425 24.5121 12.4495 24.0459 12.7675 23.5873C13.0813 23.1259 13.4101 22.6751 13.7428 22.2272C14.0763 21.7801 14.4208 21.3416 14.7714 20.908C15.1268 20.4783 15.484 20.0502 15.8631 19.6406M9.40117 28.6389C9.42029 28.6015 9.44077 28.5615 9.46234 28.5197C9.58448 28.2826 9.7426 27.9818 9.88366 27.7332M9.88366 27.7332C9.88351 27.7335 9.88337 27.7337 9.88322 27.734L10.1015 27.8558L9.8841 27.7325C9.88395 27.7327 9.88381 27.733 9.88366 27.7332ZM9.88366 27.7332C10.4343 26.7467 11.0245 25.7887 11.63 24.8468L11.63 24.8468C11.9329 24.3758 12.2414 23.9073 12.5614 23.4458C12.8779 22.9804 13.209 22.5266 13.5422 22.0781L13.5424 22.0778C13.8783 21.6273 14.225 21.1862 14.577 20.7508L14.5788 20.7487C14.9335 20.3198 15.294 19.8876 15.6777 19.4729M15.6777 19.4729C15.6771 19.4736 15.6764 19.4744 15.6758 19.4751L15.8631 19.6406M15.6777 19.4729C15.6784 19.4722 15.679 19.4715 15.6797 19.4708L15.8631 19.6406M15.6777 19.4729C15.9689 19.1434 16.2752 18.8258 16.5768 18.5132C16.6613 18.4256 16.7454 18.3383 16.8288 18.2513L16.835 18.2448L16.8351 18.2449C16.9251 18.1575 17.0153 18.0691 17.1058 17.9804C17.4123 17.68 17.7233 17.3751 18.0486 17.0861M15.8631 19.6406C16.151 19.3149 16.4529 19.0018 16.7545 18.689C16.8396 18.6008 16.9246 18.5127 17.0093 18.4242C17.1011 18.3351 17.1924 18.2456 17.2837 18.1561C17.5903 17.8556 17.8964 17.5556 18.2177 17.2703M18.2177 17.2703L18.0456 17.089C18.0466 17.088 18.0476 17.0871 18.0486 17.0861M18.2177 17.2703C18.5124 16.9906 18.8251 16.7298 19.1372 16.4694C19.2523 16.3734 19.3672 16.2775 19.4812 16.1807C19.6039 16.0864 19.7256 15.991 19.8471 15.8957C20.1631 15.648 20.4785 15.4008 20.8092 15.1729M18.2177 17.2703L18.0517 17.0834C18.0507 17.0843 18.0497 17.0852 18.0486 17.0861M18.0486 17.0861C18.3487 16.8015 18.6695 16.5339 18.9826 16.2728C19.0963 16.1779 19.2091 16.0839 19.3194 15.9902L19.3286 15.9824L19.3288 15.9826C19.4475 15.8912 19.5668 15.7977 19.6871 15.7035C20.0041 15.455 20.3276 15.2014 20.6638 14.9695M20.6638 14.9695C20.6626 14.9703 20.6615 14.9712 20.6604 14.972L20.8092 15.1729M20.6638 14.9695C20.6649 14.9687 20.6661 14.9679 20.6673 14.9671L20.8092 15.1729M20.6638 14.9695C21.0894 14.6545 21.533 14.3659 21.9679 14.0829C21.9946 14.0655 22.0213 14.0481 22.048 14.0308M20.8092 15.1729C21.2295 14.8616 21.6684 14.5761 22.1059 14.2914C22.1325 14.2741 22.1591 14.2568 22.1857 14.2394M22.1857 14.2394L22.0466 14.0317C22.0471 14.0314 22.0475 14.0311 22.048 14.0308M22.1857 14.2394C22.3337 14.1404 22.4877 14.0503 22.6417 13.9602C22.7269 13.9104 22.8121 13.8605 22.8961 13.8092C22.9339 13.7869 22.9715 13.7644 23.0092 13.742C23.2091 13.6229 23.4086 13.5041 23.6165 13.3986M22.1857 14.2394L22.0493 14.0299C22.0489 14.0302 22.0484 14.0305 22.048 14.0308M22.048 14.0308C22.201 13.9284 22.3676 13.8309 22.5258 13.7383C22.6092 13.6894 22.6903 13.642 22.7659 13.5958L22.7687 13.5941L22.7687 13.5941C22.8054 13.5724 22.8423 13.5504 22.8795 13.5282C23.0786 13.4096 23.2858 13.2862 23.5012 13.1768M23.5012 13.1768L23.4991 13.1779L23.6165 13.3986M23.5012 13.1768L24.2301 12.7891L24.2373 12.7852L24.2373 12.7854C24.4075 12.7018 24.5831 12.6214 24.7545 12.5429C24.8354 12.5058 24.9153 12.4692 24.9934 12.4329C25.33 12.268 25.6812 12.1303 26.0209 11.997C26.1917 11.9301 26.3595 11.8643 26.5211 11.7967L26.5213 11.7967C26.713 11.7167 26.9328 11.807 27.0132 11.9981L27.0137 11.9994L27.0137 11.9994C27.0804 12.1602 27.0278 12.3435 26.8918 12.4449M23.5012 13.1768C23.5019 13.1764 23.5026 13.176 23.5034 13.1757L23.6165 13.3986M23.6165 13.3986L24.3475 13.0098L26.8918 12.4449" fill="white" stroke="white" stroke-width="0.5"/>
<circle cx="35.5488" cy="21.9253" r="21" fill="url(#paint0_linear_204_2305)"/>
<path d="M10.7188 70.6953C10.7188 71.2553 10.5838 71.7803 10.3138 72.2703C10.0538 72.7603 9.63883 73.1553 9.06883 73.4553C8.50883 73.7553 7.79883 73.9053 6.93883 73.9053H5.18383V77.9253H3.08383V67.4553H6.93883C7.74883 67.4553 8.43883 67.5953 9.00883 67.8753C9.57883 68.1553 10.0038 68.5403 10.2838 69.0303C10.5738 69.5203 10.7188 70.0753 10.7188 70.6953ZM6.84883 72.2103C7.42883 72.2103 7.85883 72.0803 8.13883 71.8203C8.41883 71.5503 8.55883 71.1753 8.55883 70.6953C8.55883 69.6753 7.98883 69.1653 6.84883 69.1653H5.18383V72.2103H6.84883ZM19.9348 73.5903C19.9348 73.8903 19.9148 74.1603 19.8748 74.4003H13.7998C13.8498 75.0003 14.0598 75.4703 14.4298 75.8103C14.7998 76.1503 15.2548 76.3203 15.7948 76.3203C16.5748 76.3203 17.1298 75.9853 17.4598 75.3153H19.7248C19.4848 76.1153 19.0248 76.7753 18.3448 77.2953C17.6648 77.8053 16.8298 78.0603 15.8398 78.0603C15.0398 78.0603 14.3198 77.8853 13.6798 77.5353C13.0498 77.1753 12.5548 76.6703 12.1948 76.0203C11.8448 75.3703 11.6698 74.6203 11.6698 73.7703C11.6698 72.9103 11.8448 72.1553 12.1948 71.5053C12.5448 70.8553 13.0348 70.3553 13.6648 70.0053C14.2948 69.6553 15.0198 69.4803 15.8398 69.4803C16.6298 69.4803 17.3348 69.6503 17.9548 69.9903C18.5848 70.3303 19.0698 70.8153 19.4098 71.4453C19.7598 72.0653 19.9348 72.7803 19.9348 73.5903ZM17.7598 72.9903C17.7498 72.4503 17.5548 72.0203 17.1748 71.7003C16.7948 71.3703 16.3298 71.2053 15.7798 71.2053C15.2598 71.2053 14.8198 71.3653 14.4598 71.6853C14.1098 71.9953 13.8948 72.4303 13.8148 72.9903H17.7598ZM23.5676 70.9053C23.8376 70.4653 24.1876 70.1203 24.6176 69.8703C25.0576 69.6203 25.5576 69.4953 26.1176 69.4953V71.7003H25.5626C24.9026 71.7003 24.4026 71.8553 24.0626 72.1653C23.7326 72.4753 23.5676 73.0153 23.5676 73.7853V77.9253H21.4676V69.6153H23.5676V70.9053ZM30.7121 78.0603C30.0321 78.0603 29.4221 77.9403 28.8821 77.7003C28.3421 77.4503 27.9121 77.1153 27.5921 76.6953C27.2821 76.2753 27.1121 75.8103 27.0821 75.3003H29.1971C29.2371 75.6203 29.3921 75.8853 29.6621 76.0953C29.9421 76.3053 30.2871 76.4103 30.6971 76.4103C31.0971 76.4103 31.4071 76.3303 31.6271 76.1703C31.8571 76.0103 31.9721 75.8053 31.9721 75.5553C31.9721 75.2853 31.8321 75.0853 31.5521 74.9553C31.2821 74.8153 30.8471 74.6653 30.2471 74.5053C29.6271 74.3553 29.1171 74.2003 28.7171 74.0403C28.3271 73.8803 27.9871 73.6353 27.6971 73.3053C27.4171 72.9753 27.2771 72.5303 27.2771 71.9703C27.2771 71.5103 27.4071 71.0903 27.6671 70.7103C27.9371 70.3303 28.3171 70.0303 28.8071 69.8103C29.3071 69.5903 29.8921 69.4803 30.5621 69.4803C31.5521 69.4803 32.3421 69.7303 32.9321 70.2303C33.5221 70.7203 33.8471 71.3853 33.9071 72.2253H31.8971C31.8671 71.8953 31.7271 71.6353 31.4771 71.4453C31.2371 71.2453 30.9121 71.1453 30.5021 71.1453C30.1221 71.1453 29.8271 71.2153 29.6171 71.3553C29.4171 71.4953 29.3171 71.6903 29.3171 71.9403C29.3171 72.2203 29.4571 72.4353 29.7371 72.5853C30.0171 72.7253 30.4521 72.8703 31.0421 73.0203C31.6421 73.1703 32.1371 73.3253 32.5271 73.4853C32.9171 73.6453 33.2521 73.8953 33.5321 74.2353C33.8221 74.5653 33.9721 75.0053 33.9821 75.5553C33.9821 76.0353 33.8471 76.4653 33.5771 76.8453C33.3171 77.2253 32.9371 77.5253 32.4371 77.7453C31.9471 77.9553 31.3721 78.0603 30.7121 78.0603ZM39.3959 78.0603C38.5959 78.0603 37.8759 77.8853 37.2359 77.5353C36.5959 77.1753 36.0909 76.6703 35.7209 76.0203C35.3609 75.3703 35.1809 74.6203 35.1809 73.7703C35.1809 72.9203 35.3659 72.1703 35.7359 71.5203C36.1159 70.8703 36.6309 70.3703 37.2809 70.0203C37.9309 69.6603 38.6559 69.4803 39.4559 69.4803C40.2559 69.4803 40.9809 69.6603 41.6309 70.0203C42.2809 70.3703 42.7909 70.8703 43.1609 71.5203C43.5409 72.1703 43.7309 72.9203 43.7309 73.7703C43.7309 74.6203 43.5359 75.3703 43.1459 76.0203C42.7659 76.6703 42.2459 77.1753 41.5859 77.5353C40.9359 77.8853 40.2059 78.0603 39.3959 78.0603ZM39.3959 76.2303C39.7759 76.2303 40.1309 76.1403 40.4609 75.9603C40.8009 75.7703 41.0709 75.4903 41.2709 75.1203C41.4709 74.7503 41.5709 74.3003 41.5709 73.7703C41.5709 72.9803 41.3609 72.3753 40.9409 71.9553C40.5309 71.5253 40.0259 71.3103 39.4259 71.3103C38.8259 71.3103 38.3209 71.5253 37.9109 71.9553C37.5109 72.3753 37.3109 72.9803 37.3109 73.7703C37.3109 74.5603 37.5059 75.1703 37.8959 75.6003C38.2959 76.0203 38.7959 76.2303 39.3959 76.2303ZM49.8763 69.4953C50.8663 69.4953 51.6663 69.8103 52.2763 70.4403C52.8863 71.0603 53.1913 71.9303 53.1913 73.0503V77.9253H51.0913V73.3353C51.0913 72.6753 50.9263 72.1703 50.5963 71.8203C50.2663 71.4603 49.8163 71.2803 49.2463 71.2803C48.6663 71.2803 48.2063 71.4603 47.8663 71.8203C47.5363 72.1703 47.3713 72.6753 47.3713 73.3353V77.9253H45.2713V69.6153H47.3713V70.6503C47.6513 70.2903 48.0063 70.0103 48.4363 69.8103C48.8763 69.6003 49.3563 69.4953 49.8763 69.4953ZM54.6483 73.7403C54.6483 72.9003 54.8133 72.1553 55.1433 71.5053C55.4833 70.8553 55.9383 70.3553 56.5083 70.0053C57.0883 69.6553 57.7333 69.4803 58.4433 69.4803C59.0633 69.4803 59.6033 69.6053 60.0633 69.8553C60.5333 70.1053 60.9083 70.4203 61.1883 70.8003V69.6153H63.3033V77.9253H61.1883V76.7103C60.9183 77.1003 60.5433 77.4253 60.0633 77.6853C59.5933 77.9353 59.0483 78.0603 58.4283 78.0603C57.7283 78.0603 57.0883 77.8803 56.5083 77.5203C55.9383 77.1603 55.4833 76.6553 55.1433 76.0053C54.8133 75.3453 54.6483 74.5903 54.6483 73.7403ZM61.1883 73.7703C61.1883 73.2603 61.0883 72.8253 60.8883 72.4653C60.6883 72.0953 60.4183 71.8153 60.0783 71.6253C59.7383 71.4253 59.3733 71.3253 58.9833 71.3253C58.5933 71.3253 58.2333 71.4203 57.9033 71.6103C57.5733 71.8003 57.3033 72.0803 57.0933 72.4503C56.8933 72.8103 56.7933 73.2403 56.7933 73.7403C56.7933 74.2403 56.8933 74.6803 57.0933 75.0603C57.3033 75.4303 57.5733 75.7153 57.9033 75.9153C58.2433 76.1153 58.6033 76.2153 58.9833 76.2153C59.3733 76.2153 59.7383 76.1203 60.0783 75.9303C60.4183 75.7303 60.6883 75.4503 60.8883 75.0903C61.0883 74.7203 61.1883 74.2803 61.1883 73.7703ZM67.4543 66.8253V77.9253H65.3543V66.8253H67.4543Z" fill="#938F99"/>
<defs>
<linearGradient id="paint0_linear_204_2305" x1="35.5488" y1="0.925293" x2="35.5488" y2="42.9253" gradientUnits="userSpaceOnUse">
<stop stop-color="#DDF6FF"/>
<stop offset="1" stop-color="#92EEF7"/>
</linearGradient>
</defs>
</svg>
